<?xml version="1.0" encoding="utf-8" standalone="no"?>
<!DOCTYPE svg PUBLIC "-//W3C//DTD SVG 1.1//EN"
  "http://www.w3.org/Graphics/SVG/1.1/DTD/svg11.dtd">
<!-- Created with matplotlib (https://matplotlib.org/) -->
<svg height="800pt" version="1.1" viewBox="0 0 1200 800" width="1200pt" xmlns="http://www.w3.org/2000/svg" xmlns:xlink="http://www.w3.org/1999/xlink">
 <metadata>
  <rdf:RDF xmlns:cc="http://creativecommons.org/ns#" xmlns:dc="http://purl.org/dc/elements/1.1/" xmlns:rdf="http://www.w3.org/1999/02/22-rdf-syntax-ns#">
   <cc:Work>
    <dc:type rdf:resource="http://purl.org/dc/dcmitype/StillImage"/>
    <dc:date>2022-03-08T17:08:58.430616</dc:date>
    <dc:format>image/svg+xml</dc:format>
    <dc:creator>
     <cc:Agent>
      <dc:title>Matplotlib v3.3.4, https://matplotlib.org/</dc:title>
     </cc:Agent>
    </dc:creator>
   </cc:Work>
  </rdf:RDF>
 </metadata>
 <defs>
  <style type="text/css">*{stroke-linecap:butt;stroke-linejoin:round;}</style>
 </defs>
 <g id="figure_1">
  <g id="patch_1">
   <path d="M 0 800 
L 1200 800 
L 1200 0 
L 0 0 
z
" style="fill:none;"/>
  </g>
  <g id="axes_1">
   <g id="patch_2">
    <path d="M 150 700 
L 1080 700 
L 1080 96 
L 150 96 
z
" style="fill:#fffae5;"/>
   </g>
   <g id="line2d_1">
    <path clip-path="url(#pf6fd23998a)" d="M 150 549 
L 1080 549 
" style="fill:none;stroke:#808080;stroke-dasharray:10,5;stroke-dashoffset:0;"/>
   </g>
   <g id="line2d_2">
    <path clip-path="url(#pf6fd23998a)" d="M 150 398 
L 1080 398 
" style="fill:none;stroke:#808080;stroke-dasharray:10,5;stroke-dashoffset:0;"/>
   </g>
   <g id="line2d_3">
    <path clip-path="url(#pf6fd23998a)" d="M 150 247 
L 1080 247 
" style="fill:none;stroke:#808080;stroke-dasharray:10,5;stroke-dashoffset:0;"/>
   </g>
   <g id="line2d_4">
    <path clip-path="url(#pf6fd23998a)" d="M 266.25 700 
L 266.25 96 
" style="fill:none;stroke:#808080;stroke-dasharray:10,5;stroke-dashoffset:0;"/>
   </g>
   <g id="line2d_5">
    <path clip-path="url(#pf6fd23998a)" d="M 498.75 700 
L 498.75 96 
" style="fill:none;stroke:#808080;stroke-dasharray:10,5;stroke-dashoffset:0;"/>
   </g>
   <g id="line2d_6">
    <path clip-path="url(#pf6fd23998a)" d="M 731.25 700 
L 731.25 96 
" style="fill:none;stroke:#808080;stroke-dasharray:10,5;stroke-dashoffset:0;"/>
   </g>
   <g id="line2d_7">
    <path clip-path="url(#pf6fd23998a)" d="M 963.75 700 
L 963.75 96 
" style="fill:none;stroke:#808080;stroke-dasharray:10,5;stroke-dashoffset:0;"/>
   </g>
   <g id="patch_3">
    <path clip-path="url(#pf6fd23998a)" d="M 181.713 700 
L 236.29625 700 
L 236.29625 648.66 
L 181.713 648.66 
z
" style="fill:#ff8c00;"/>
   </g>
   <g id="patch_4">
    <path clip-path="url(#pf6fd23998a)" d="M 236.29625 700 
L 290.8795 700 
L 290.8795 443.3 
L 236.29625 443.3 
z
" style="fill:#ff8c00;"/>
   </g>
   <g id="patch_5">
    <path clip-path="url(#pf6fd23998a)" d="M 290.8795 700 
L 345.46275 700 
L 345.46275 180.56 
L 290.8795 180.56 
z
" style="fill:#ff8c00;"/>
   </g>
   <g id="patch_6">
    <path clip-path="url(#pf6fd23998a)" d="M 345.46275 700 
L 400.046 700 
L 400.046 289.28 
L 345.46275 289.28 
z
" style="fill:#ff8c00;"/>
   </g>
   <g id="patch_7">
    <path clip-path="url(#pf6fd23998a)" d="M 400.046 700 
L 454.62925 700 
L 454.62925 262.1 
L 400.046 262.1 
z
" style="fill:#ff8c00;"/>
   </g>
   <g id="patch_8">
    <path clip-path="url(#pf6fd23998a)" d="M 454.62925 700 
L 509.2125 700 
L 509.2125 370.82 
L 454.62925 370.82 
z
" style="fill:#ff8c00;"/>
   </g>
   <g id="patch_9">
    <path clip-path="url(#pf6fd23998a)" d="M 509.2125 700 
L 563.79575 700 
L 563.79575 373.84 
L 509.2125 373.84 
z
" style="fill:#ff8c00;"/>
   </g>
   <g id="patch_10">
    <path clip-path="url(#pf6fd23998a)" d="M 563.79575 700 
L 618.379 700 
L 618.379 494.64 
L 563.79575 494.64 
z
" style="fill:#ff8c00;"/>
   </g>
   <g id="patch_11">
    <path clip-path="url(#pf6fd23998a)" d="M 618.379 700 
L 672.96225 700 
L 672.96225 558.06 
L 618.379 558.06 
z
" style="fill:#ff8c00;"/>
   </g>
   <g id="patch_12">
    <path clip-path="url(#pf6fd23998a)" d="M 672.96225 700 
L 727.5455 700 
L 727.5455 612.42 
L 672.96225 612.42 
z
" style="fill:#ff8c00;"/>
   </g>
   <g id="patch_13">
    <path clip-path="url(#pf6fd23998a)" d="M 727.5455 700 
L 782.12875 700 
L 782.12875 630.54 
L 727.5455 630.54 
z
" style="fill:#ff8c00;"/>
   </g>
   <g id="patch_14">
    <path clip-path="url(#pf6fd23998a)" d="M 782.12875 700 
L 836.712 700 
L 836.712 666.78 
L 782.12875 666.78 
z
" style="fill:#ff8c00;"/>
   </g>
   <g id="patch_15">
    <path clip-path="url(#pf6fd23998a)" d="M 836.712 700 
L 891.29525 700 
L 891.29525 681.88 
L 836.712 681.88 
z
" style="fill:#ff8c00;"/>
   </g>
   <g id="patch_16">
    <path clip-path="url(#pf6fd23998a)" d="M 891.29525 700 
L 945.8785 700 
L 945.8785 696.98 
L 891.29525 696.98 
z
" style="fill:#ff8c00;"/>
   </g>
   <g id="patch_17">
    <path clip-path="url(#pf6fd23998a)" d="M 945.8785 700 
L 1000.46175 700 
L 1000.46175 696.98 
L 945.8785 696.98 
z
" style="fill:#ff8c00;"/>
   </g>
   <g id="matplotlib.axis_1">
    <g id="xtick_1">
     <g id="line2d_8">
      <defs>
       <path d="M 0 0 
L 0 3.5 
" id="m26c408b1c4" style="stroke:#101629;stroke-width:0.8;"/>
      </defs>
      <g>
       <use style="fill:#101629;stroke:#101629;stroke-width:0.8;" x="266.25" xlink:href="#m26c408b1c4" y="700"/>
      </g>
     </g>
     <g id="text_1">
      <!-- $20,000 -->
      <g style="fill:#101629;" transform="translate(184.861875 741.799375)scale(0.36 -0.36)">
       <defs>
        <path d="M 29.90625 82.203125 
L 29.90625 73.703125 
C 19.5 72.90625 9.09375 66.90625 9.09375 54.09375 
C 9.09375 42.90625 18.09375 36.5 26.59375 34.40625 
L 29.90625 33.5 
L 29.90625 6.703125 
C 22 7.90625 17.09375 13.296875 16.40625 23 
L 7 23 
C 7.40625 9.40625 16.59375 0.09375 29.90625 -1.09375 
L 29.90625 -9.703125 
L 35.40625 -9.703125 
L 35.40625 -1.203125 
C 47.59375 -0.296875 57 7 57 20.40625 
C 57 34.90625 45.40625 39.09375 35.90625 41.59375 
L 35.40625 41.703125 
L 35.40625 65.796875 
C 40.703125 64.796875 46.09375 61.59375 46.90625 53.5 
L 56.296875 53.5 
C 55 66.203125 45.59375 72.5 35.40625 73.59375 
L 35.40625 82.203125 
z
M 47.703125 19.5 
C 47.703125 12.90625 43.203125 7.40625 35.40625 6.59375 
L 35.40625 32.09375 
C 42.59375 30.203125 47.703125 26.703125 47.703125 19.5 
z
M 18.5 54.796875 
C 18.5 63 25.09375 65.5 29.90625 66 
L 29.90625 43.09375 
L 28.703125 43.40625 
C 22.90625 44.90625 18.5 48.5 18.5 54.796875 
z
" id="SuisseIntlMono-36"/>
        <path d="M 33.40625 73.796875 
C 18.703125 73.796875 9.09375 63.296875 9.296875 49.5 
L 18.703125 49.5 
C 18.90625 61.40625 25.796875 66 33.296875 66 
C 41.5 66 45.796875 60.59375 45.796875 53.09375 
C 45.796875 40.40625 32.296875 26.796875 8 7.90625 
L 8 0 
L 56.90625 0 
L 56.90625 7.90625 
L 20.90625 7.90625 
C 39.40625 22.703125 55.59375 37.5 55.59375 54.296875 
C 55.59375 66.59375 46.09375 73.796875 33.40625 73.796875 
z
" id="SuisseIntlMono-50"/>
        <path d="M 32.203125 -1.296875 
C 50.5 -1.296875 57.59375 14.09375 57.59375 36.59375 
C 57.59375 59.09375 50.5 73.796875 32.203125 73.796875 
C 13.90625 73.796875 6.90625 59.09375 6.90625 36.59375 
C 6.90625 14.09375 13.90625 -1.296875 32.203125 -1.296875 
z
M 16.203125 36.59375 
C 16.203125 56.40625 21.296875 66 32.203125 66 
C 40.90625 66 46 59.796875 47.59375 47.203125 
L 16.296875 32.90625 
C 16.203125 34.09375 16.203125 35.296875 16.203125 36.59375 
z
M 32.203125 6.59375 
C 23.59375 6.59375 18.59375 12.90625 16.90625 25.296875 
L 48.203125 39.796875 
C 48.296875 38.703125 48.296875 37.703125 48.296875 36.59375 
C 48.296875 16.796875 43.09375 6.59375 32.203125 6.59375 
z
" id="SuisseIntlMono-48"/>
        <path d="M 26.5 0 
L 31.40625 0 
L 26.09375 -13.90625 
L 31.90625 -13.90625 
L 38 -0.796875 
L 38 11.5 
L 26.5 11.5 
z
" id="SuisseIntlMono-44"/>
       </defs>
       <use xlink:href="#SuisseIntlMono-36"/>
       <use x="64.599991" xlink:href="#SuisseIntlMono-50"/>
       <use x="129.199982" xlink:href="#SuisseIntlMono-48"/>
       <use x="193.799973" xlink:href="#SuisseIntlMono-44"/>
       <use x="258.399963" xlink:href="#SuisseIntlMono-48"/>
       <use x="322.999954" xlink:href="#SuisseIntlMono-48"/>
       <use x="387.599945" xlink:href="#SuisseIntlMono-48"/>
      </g>
     </g>
    </g>
    <g id="xtick_2">
     <g id="line2d_9">
      <g>
       <use style="fill:#101629;stroke:#101629;stroke-width:0.8;" x="498.75" xlink:href="#m26c408b1c4" y="700"/>
      </g>
     </g>
     <g id="text_2">
      <!-- $40,000 -->
      <g style="fill:#101629;" transform="translate(417.361875 741.799375)scale(0.36 -0.36)">
       <defs>
        <path d="M 38.5 60.09375 
L 38.5 26.5 
L 13.90625 26.5 
z
M 59.796875 26.5 
L 47.703125 26.5 
L 47.703125 72.5 
L 38.40625 72.5 
L 4.296875 26.5 
L 4.296875 17.90625 
L 38.5 17.90625 
L 38.5 0 
L 47.703125 0 
L 47.703125 17.90625 
L 59.796875 17.90625 
z
" id="SuisseIntlMono-52"/>
       </defs>
       <use xlink:href="#SuisseIntlMono-36"/>
       <use x="64.599991" xlink:href="#SuisseIntlMono-52"/>
       <use x="129.199982" xlink:href="#SuisseIntlMono-48"/>
       <use x="193.799973" xlink:href="#SuisseIntlMono-44"/>
       <use x="258.399963" xlink:href="#SuisseIntlMono-48"/>
       <use x="322.999954" xlink:href="#SuisseIntlMono-48"/>
       <use x="387.599945" xlink:href="#SuisseIntlMono-48"/>
      </g>
     </g>
    </g>
    <g id="xtick_3">
     <g id="line2d_10">
      <g>
       <use style="fill:#101629;stroke:#101629;stroke-width:0.8;" x="731.25" xlink:href="#m26c408b1c4" y="700"/>
      </g>
     </g>
     <g id="text_3">
      <!-- $60,000 -->
      <g style="fill:#101629;" transform="translate(649.861875 741.799375)scale(0.36 -0.36)">
       <defs>
        <path d="M 17.59375 23.203125 
C 17.59375 32.90625 23.703125 40 32.703125 40 
C 41.5 40 47.703125 32.90625 47.703125 23.203125 
C 47.703125 13.40625 41.40625 6.59375 32.59375 6.59375 
C 23.5 6.59375 17.59375 13.296875 17.59375 23.203125 
z
M 34 66 
C 40.59375 66 45.296875 62.296875 46.40625 55.90625 
L 56.296875 55.90625 
C 54.90625 64.90625 48 73.796875 34.5 73.796875 
C 14.59375 73.796875 7.09375 53.796875 7.09375 33.40625 
C 7.09375 11.40625 15.5 -1.296875 32.703125 -1.296875 
C 47.5 -1.296875 57.5 10.296875 57.5 23.59375 
C 57.5 38 47.59375 48.203125 34.796875 48.203125 
C 25.59375 48.203125 19.703125 43.90625 16.59375 38.296875 
C 17 54.796875 22.90625 66 34 66 
z
" id="SuisseIntlMono-54"/>
       </defs>
       <use xlink:href="#SuisseIntlMono-36"/>
       <use x="64.599991" xlink:href="#SuisseIntlMono-54"/>
       <use x="129.199982" xlink:href="#SuisseIntlMono-48"/>
       <use x="193.799973" xlink:href="#SuisseIntlMono-44"/>
       <use x="258.399963" xlink:href="#SuisseIntlMono-48"/>
       <use x="322.999954" xlink:href="#SuisseIntlMono-48"/>
       <use x="387.599945" xlink:href="#SuisseIntlMono-48"/>
      </g>
     </g>
    </g>
    <g id="xtick_4">
     <g id="line2d_11">
      <g>
       <use style="fill:#101629;stroke:#101629;stroke-width:0.8;" x="963.75" xlink:href="#m26c408b1c4" y="700"/>
      </g>
     </g>
     <g id="text_4">
      <!-- $80,000 -->
      <g style="fill:#101629;" transform="translate(882.361875 741.799375)scale(0.36 -0.36)">
       <defs>
        <path d="M 32.296875 73.796875 
C 18.203125 73.796875 8.703125 65.90625 8.703125 55.296875 
C 8.703125 49.5 11.40625 42.5 18.296875 38.703125 
C 9.203125 34.796875 6.59375 26.90625 6.59375 20.40625 
C 6.59375 6.796875 18.09375 -1.296875 32.296875 -1.296875 
C 46.5 -1.296875 58 6.796875 58 20.40625 
C 58 26.90625 55.296875 34.796875 46.296875 38.703125 
C 53.09375 42.5 55.796875 49.5 55.796875 55.296875 
C 55.796875 65.90625 46.40625 73.796875 32.296875 73.796875 
z
M 32.296875 34.59375 
C 42 34.59375 48.203125 28.796875 48.203125 20.40625 
C 48.203125 12 42 6.59375 32.296875 6.59375 
C 22.59375 6.59375 16.296875 12 16.296875 20.40625 
C 16.296875 28.796875 22.59375 34.59375 32.296875 34.59375 
z
M 46.59375 54.40625 
C 46.59375 47.203125 40.90625 41.703125 32.296875 41.703125 
C 23.703125 41.703125 18 47.203125 18 54.40625 
C 18 61.5 23.703125 65.90625 32.296875 65.90625 
C 40.90625 65.90625 46.59375 61.796875 46.59375 54.40625 
z
" id="SuisseIntlMono-56"/>
       </defs>
       <use xlink:href="#SuisseIntlMono-36"/>
       <use x="64.599991" xlink:href="#SuisseIntlMono-56"/>
       <use x="129.199982" xlink:href="#SuisseIntlMono-48"/>
       <use x="193.799973" xlink:href="#SuisseIntlMono-44"/>
       <use x="258.399963" xlink:href="#SuisseIntlMono-48"/>
       <use x="322.999954" xlink:href="#SuisseIntlMono-48"/>
       <use x="387.599945" xlink:href="#SuisseIntlMono-48"/>
      </g>
     </g>
    </g>
    <g id="text_5">
     <!-- Income in USD -->
     <g style="fill:#101629;" transform="translate(469.102188 799.25)scale(0.44 -0.44)">
      <defs>
       <path d="M 8 70 
L 21 70 
L 21 0 
L 8 0 
z
" id="ApercuPro-Bold-73"/>
       <path d="M 19.40625 50.40625 
L 19.40625 42.296875 
Q 22.296875 46.40625 26.296875 48.796875 
Q 30.296875 51.203125 35 51.203125 
Q 42 51.203125 46.25 47.296875 
Q 50.5 43.40625 50.5 36 
L 50.5 0 
L 38.09375 0 
L 38.09375 32.296875 
Q 38.09375 36.59375 36.140625 38.59375 
Q 34.203125 40.59375 30.90625 40.59375 
Q 27.796875 40.59375 25.1875 38.1875 
Q 22.59375 35.796875 21 31.140625 
Q 19.40625 26.5 19.40625 20.09375 
L 19.40625 0 
L 7 0 
L 7 50.40625 
z
" id="ApercuPro-Bold-110"/>
       <path d="M 28.796875 -0.796875 
Q 20.90625 -0.796875 15.34375 2.640625 
Q 9.796875 6.09375 7 12 
Q 4.203125 17.90625 4.203125 25.203125 
Q 4.203125 32.5 7 38.390625 
Q 9.796875 44.296875 15.34375 47.75 
Q 20.90625 51.203125 28.796875 51.203125 
Q 37.203125 51.203125 43.046875 47.546875 
Q 48.90625 43.90625 51.703125 36.796875 
L 40.59375 32.296875 
Q 38.59375 36.40625 35.75 38.5 
Q 32.90625 40.59375 28.796875 40.59375 
Q 23.09375 40.59375 20.140625 36.34375 
Q 17.203125 32.09375 17.203125 25.203125 
Q 17.203125 18.296875 20.140625 14.046875 
Q 23.09375 9.796875 28.796875 9.796875 
Q 32.90625 9.796875 35.75 11.890625 
Q 38.59375 14 40.59375 18.09375 
L 51.703125 13.59375 
Q 48.90625 6.5 43.046875 2.84375 
Q 37.203125 -0.796875 28.796875 -0.796875 
z
" id="ApercuPro-Bold-99"/>
       <path d="M 29.796875 -0.796875 
Q 21.90625 -0.796875 16.09375 2.59375 
Q 10.296875 6 7.25 11.890625 
Q 4.203125 17.796875 4.203125 25.203125 
Q 4.203125 32.59375 7.25 38.5 
Q 10.296875 44.40625 16.09375 47.796875 
Q 21.90625 51.203125 29.796875 51.203125 
Q 37.703125 51.203125 43.5 47.796875 
Q 49.296875 44.40625 52.34375 38.5 
Q 55.40625 32.59375 55.40625 25.203125 
Q 55.40625 17.796875 52.34375 11.890625 
Q 49.296875 6 43.5 2.59375 
Q 37.703125 -0.796875 29.796875 -0.796875 
z
M 29.796875 9.796875 
Q 35.59375 9.796875 39 14.25 
Q 42.40625 18.703125 42.40625 25.203125 
Q 42.40625 31.703125 39 36.140625 
Q 35.59375 40.59375 29.796875 40.59375 
Q 24 40.59375 20.59375 36.140625 
Q 17.203125 31.703125 17.203125 25.203125 
Q 17.203125 18.703125 20.59375 14.25 
Q 24 9.796875 29.796875 9.796875 
z
" id="ApercuPro-Bold-111"/>
       <path d="M 19.40625 50.40625 
L 19.40625 42.296875 
Q 22.296875 46.703125 25.75 48.953125 
Q 29.203125 51.203125 33.90625 51.203125 
Q 38.796875 51.203125 42.59375 48.59375 
Q 46.40625 46 48 40.796875 
Q 50.703125 45.703125 54.75 48.453125 
Q 58.796875 51.203125 63.40625 51.203125 
Q 70.40625 51.203125 74.40625 47.09375 
Q 78.40625 43 78.40625 35.703125 
L 78.40625 0 
L 66 0 
L 66 33.59375 
Q 66 40.59375 59.796875 40.59375 
Q 55 40.59375 51.953125 35.1875 
Q 48.90625 29.796875 48.90625 19.59375 
L 48.90625 0 
L 36.5 0 
L 36.5 33.59375 
Q 36.5 40.59375 30.296875 40.59375 
Q 25.5 40.59375 22.453125 34.9375 
Q 19.40625 29.296875 19.40625 18.5 
L 19.40625 0 
L 7 0 
L 7 50.40625 
z
" id="ApercuPro-Bold-109"/>
       <path d="M 51.90625 21.203125 
L 17.09375 21.203125 
Q 17.90625 15.59375 21.046875 12.6875 
Q 24.203125 9.796875 29.09375 9.796875 
Q 33.296875 9.796875 36.140625 11.6875 
Q 39 13.59375 41.296875 17.59375 
L 51.296875 13.90625 
Q 48.203125 6.796875 42.640625 3 
Q 37.09375 -0.796875 28.40625 -0.796875 
Q 20.203125 -0.796875 14.75 3.046875 
Q 9.296875 6.90625 6.75 12.84375 
Q 4.203125 18.796875 4.203125 25.203125 
Q 4.203125 31.59375 6.75 37.546875 
Q 9.296875 43.5 14.75 47.34375 
Q 20.203125 51.203125 28.40625 51.203125 
Q 36.296875 51.203125 41.59375 47.453125 
Q 46.90625 43.703125 49.40625 38 
Q 51.90625 32.296875 51.90625 26.296875 
z
M 39.203125 31 
Q 38.296875 35.203125 35.640625 37.890625 
Q 33 40.59375 28.40625 40.59375 
Q 24.40625 40.59375 21.5 38.140625 
Q 18.59375 35.703125 17.40625 31 
z
" id="ApercuPro-Bold-101"/>
       <path id="ApercuPro-Bold-32"/>
       <path d="M 7 50.40625 
L 19.40625 50.40625 
L 19.40625 0 
L 7 0 
z
M 13.203125 56.90625 
Q 9.796875 56.90625 7.5 59.203125 
Q 5.203125 61.5 5.203125 64.90625 
Q 5.203125 68.296875 7.5 70.59375 
Q 9.796875 72.90625 13.203125 72.90625 
Q 16.59375 72.90625 18.890625 70.59375 
Q 21.203125 68.296875 21.203125 64.90625 
Q 21.203125 61.5 18.890625 59.203125 
Q 16.59375 56.90625 13.203125 56.90625 
z
" id="ApercuPro-Bold-105"/>
       <path d="M 33.296875 -0.796875 
Q 21.296875 -0.796875 14.25 6.09375 
Q 7.203125 13 7.203125 26.59375 
L 7.203125 70 
L 20.203125 70 
L 20.203125 26.40625 
Q 20.203125 11.203125 33.296875 11.203125 
Q 46.40625 11.203125 46.40625 26.40625 
L 46.40625 70 
L 59.40625 70 
L 59.40625 26.59375 
Q 59.40625 13 52.34375 6.09375 
Q 45.296875 -0.796875 33.296875 -0.796875 
z
" id="ApercuPro-Bold-85"/>
       <path d="M 27.296875 -0.796875 
Q 21.09375 -0.796875 16.046875 1.796875 
Q 11 4.40625 7.640625 8.90625 
Q 4.296875 13.40625 3.203125 18.796875 
L 13.703125 25.40625 
Q 15.296875 19 18.75 15.09375 
Q 22.203125 11.203125 27.59375 11.203125 
Q 31.703125 11.203125 34.203125 13.25 
Q 36.703125 15.296875 36.703125 19.5 
Q 36.703125 22.09375 35 24.09375 
Q 33.296875 26.09375 30.75 27.59375 
Q 28.203125 29.09375 23.5 31.40625 
L 20.59375 32.796875 
Q 14.59375 35.796875 11 40.34375 
Q 7.40625 44.90625 7.40625 52 
Q 7.40625 57.296875 9.84375 61.59375 
Q 12.296875 65.90625 16.75 68.34375 
Q 21.203125 70.796875 26.90625 70.796875 
Q 41.40625 70.796875 46.703125 58.09375 
L 36.203125 51.40625 
Q 33.59375 58.796875 26.90625 58.796875 
Q 24 58.796875 21.890625 56.9375 
Q 19.796875 55.09375 19.796875 52.40625 
Q 19.796875 49.703125 21.640625 47.640625 
Q 23.5 45.59375 26.140625 44.140625 
Q 28.796875 42.703125 33.796875 40.40625 
Q 38.703125 38.09375 42.046875 35.6875 
Q 45.40625 33.296875 47.546875 29.4375 
Q 49.703125 25.59375 49.703125 20.09375 
Q 49.703125 13.796875 46.84375 9.046875 
Q 44 4.296875 38.890625 1.75 
Q 33.796875 -0.796875 27.296875 -0.796875 
z
" id="ApercuPro-Bold-83"/>
       <path d="M 29.90625 70 
Q 38.59375 70 46 66.203125 
Q 53.40625 62.40625 57.953125 54.546875 
Q 62.5 46.703125 62.5 35 
Q 62.5 23.296875 57.953125 15.4375 
Q 53.40625 7.59375 46 3.796875 
Q 38.59375 0 29.90625 0 
L 8 0 
L 8 70 
z
M 25.796875 12 
Q 35.796875 12 42.546875 17.140625 
Q 49.296875 22.296875 49.296875 35 
Q 49.296875 47.703125 42.546875 52.84375 
Q 35.796875 58 25.796875 58 
L 21 58 
L 21 12 
L 25.796875 12 
z
" id="ApercuPro-Bold-68"/>
      </defs>
      <use xlink:href="#ApercuPro-Bold-73"/>
      <use x="28.999985" xlink:href="#ApercuPro-Bold-110"/>
      <use x="86.499969" xlink:href="#ApercuPro-Bold-99"/>
      <use x="141.799957" xlink:href="#ApercuPro-Bold-111"/>
      <use x="201.399948" xlink:href="#ApercuPro-Bold-109"/>
      <use x="286.799942" xlink:href="#ApercuPro-Bold-101"/>
      <use x="342.899933" xlink:href="#ApercuPro-Bold-32"/>
      <use x="367.699921" xlink:href="#ApercuPro-Bold-105"/>
      <use x="394.099915" xlink:href="#ApercuPro-Bold-110"/>
      <use x="451.599899" xlink:href="#ApercuPro-Bold-32"/>
      <use x="476.399887" xlink:href="#ApercuPro-Bold-85"/>
      <use x="542.999878" xlink:href="#ApercuPro-Bold-83"/>
      <use x="596.099869" xlink:href="#ApercuPro-Bold-68"/>
     </g>
    </g>
   </g>
   <g id="matplotlib.axis_2">
    <g id="ytick_1">
     <g id="line2d_12">
      <defs>
       <path d="M 0 0 
L -3.5 0 
" id="m01d45b2c3e" style="stroke:#101629;stroke-width:0.8;"/>
      </defs>
      <g>
       <use style="fill:#101629;stroke:#101629;stroke-width:0.8;" x="150" xlink:href="#m01d45b2c3e" y="549"/>
      </g>
     </g>
     <g id="text_6">
      <!-- 50 -->
      <g style="fill:#101629;" transform="translate(89.9925 562.05)scale(0.36 -0.36)">
       <defs>
        <path d="M 32.203125 6.59375 
C 22.5 6.59375 17.5 12.796875 16.5 21.59375 
L 7.203125 21.59375 
C 8.09375 9.796875 16 -1.296875 32.09375 -1.296875 
C 45 -1.296875 57.296875 7.5 57.296875 23.90625 
C 57.296875 39.59375 46.09375 48.40625 34.09375 48.40625 
C 28.296875 48.40625 22.90625 46.703125 19.09375 43 
L 21.703125 64.703125 
L 54.09375 64.703125 
L 54.09375 72.5 
L 13.90625 72.5 
L 9.203125 33.203125 
L 18.796875 32.796875 
C 20.296875 36.296875 25.09375 40.40625 32 40.40625 
C 39.5 40.40625 47.5 35.59375 47.5 23.796875 
C 47.5 12.796875 40.5 6.59375 32.203125 6.59375 
z
" id="SuisseIntlMono-53"/>
       </defs>
       <use xlink:href="#SuisseIntlMono-53"/>
       <use x="64.599991" xlink:href="#SuisseIntlMono-48"/>
      </g>
     </g>
    </g>
    <g id="ytick_2">
     <g id="line2d_13">
      <g>
       <use style="fill:#101629;stroke:#101629;stroke-width:0.8;" x="150" xlink:href="#m01d45b2c3e" y="398"/>
      </g>
     </g>
     <g id="text_7">
      <!-- 100 -->
      <g style="fill:#101629;" transform="translate(66.73875 411.05)scale(0.36 -0.36)">
       <defs>
        <path d="M 32.703125 72.5 
C 29 64.59375 23.09375 63.296875 11 63 
L 11 56.703125 
L 29.5 56.703125 
L 29.5 7.90625 
L 11 7.90625 
L 11 0 
L 53.90625 0 
L 53.90625 7.90625 
L 38.703125 7.90625 
L 38.703125 72.5 
z
" id="SuisseIntlMono-49"/>
       </defs>
       <use xlink:href="#SuisseIntlMono-49"/>
       <use x="64.599991" xlink:href="#SuisseIntlMono-48"/>
       <use x="129.199982" xlink:href="#SuisseIntlMono-48"/>
      </g>
     </g>
    </g>
    <g id="ytick_3">
     <g id="line2d_14">
      <g>
       <use style="fill:#101629;stroke:#101629;stroke-width:0.8;" x="150" xlink:href="#m01d45b2c3e" y="247"/>
      </g>
     </g>
     <g id="text_8">
      <!-- 150 -->
      <g style="fill:#101629;" transform="translate(66.73875 260.05)scale(0.36 -0.36)">
       <use xlink:href="#SuisseIntlMono-49"/>
       <use x="64.599991" xlink:href="#SuisseIntlMono-53"/>
       <use x="129.199982" xlink:href="#SuisseIntlMono-48"/>
      </g>
     </g>
    </g>
    <g id="text_9">
     <!-- Frequency -->
     <g style="fill:#101629;" transform="translate(37.76 505.3325)rotate(-90)scale(0.44 -0.44)">
      <defs>
       <path d="M 8 70 
L 52.296875 70 
L 52.296875 58 
L 21 58 
L 21 42 
L 46.203125 42 
L 46.203125 30 
L 21 30 
L 21 0 
L 8 0 
z
" id="ApercuPro-Bold-70"/>
       <path d="M 19.40625 50.40625 
L 19.40625 42.203125 
Q 22.09375 46.5 26 48.84375 
Q 29.90625 51.203125 34.296875 51.203125 
Q 37.09375 51.203125 40.40625 50.203125 
L 38.09375 38.703125 
Q 35.796875 40.09375 32.90625 40.09375 
Q 27 40.09375 23.203125 34.75 
Q 19.40625 29.40625 19.40625 17.90625 
L 19.40625 0 
L 7 0 
L 7 50.40625 
z
" id="ApercuPro-Bold-114"/>
       <path d="M 39.40625 4.59375 
Q 37.703125 2.40625 34.296875 0.796875 
Q 30.90625 -0.796875 27.203125 -0.796875 
Q 16.09375 -0.796875 10.140625 6.25 
Q 4.203125 13.296875 4.203125 25.203125 
Q 4.203125 37.09375 10.140625 44.140625 
Q 16.09375 51.203125 27.203125 51.203125 
Q 31.5 51.203125 34.84375 49.296875 
Q 38.203125 47.40625 39.40625 45.203125 
L 39.40625 48.203125 
L 39.40625 50.40625 
L 51.796875 50.40625 
L 51.796875 -20.40625 
L 39.40625 -20.40625 
L 39.40625 1.59375 
z
M 28.90625 9.796875 
Q 34 9.796875 37.25 13.84375 
Q 40.5 17.90625 40.5 25.203125 
Q 40.5 32.5 37.25 36.546875 
Q 34 40.59375 28.90625 40.59375 
Q 23.796875 40.59375 20.5 36.546875 
Q 17.203125 32.5 17.203125 25.203125 
Q 17.203125 18 20.5 13.890625 
Q 23.796875 9.796875 28.90625 9.796875 
z
" id="ApercuPro-Bold-113"/>
       <path d="M 22.5 -0.796875 
Q 15.5 -0.796875 11.25 3.09375 
Q 7 7 7 14.40625 
L 7 50.40625 
L 19.40625 50.40625 
L 19.40625 18.09375 
Q 19.40625 13.796875 21.34375 11.796875 
Q 23.296875 9.796875 26.59375 9.796875 
Q 29.703125 9.796875 32.296875 12.1875 
Q 34.90625 14.59375 36.5 19.25 
Q 38.09375 23.90625 38.09375 30.296875 
L 38.09375 50.40625 
L 50.5 50.40625 
L 50.5 0 
L 38.09375 0 
L 38.09375 8.09375 
Q 35.203125 4 31.203125 1.59375 
Q 27.203125 -0.796875 22.5 -0.796875 
z
" id="ApercuPro-Bold-117"/>
       <path d="M 36.203125 50.40625 
L 48.59375 50.40625 
L 22.59375 -20.40625 
L 10.59375 -20.40625 
L 19.203125 3.40625 
L 1 50.40625 
L 13.5 50.40625 
L 25 19.40625 
z
" id="ApercuPro-Bold-121"/>
      </defs>
      <use xlink:href="#ApercuPro-Bold-70"/>
      <use x="55.299988" xlink:href="#ApercuPro-Bold-114"/>
      <use x="96.999985" xlink:href="#ApercuPro-Bold-101"/>
      <use x="153.099976" xlink:href="#ApercuPro-Bold-113"/>
      <use x="211.899963" xlink:href="#ApercuPro-Bold-117"/>
      <use x="269.399948" xlink:href="#ApercuPro-Bold-101"/>
      <use x="325.499939" xlink:href="#ApercuPro-Bold-110"/>
      <use x="382.999924" xlink:href="#ApercuPro-Bold-99"/>
      <use x="438.299911" xlink:href="#ApercuPro-Bold-121"/>
     </g>
    </g>
   </g>
   <g id="patch_18">
    <path d="M 150 700 
L 150 96 
" style="fill:none;stroke:#000000;stroke-linecap:square;stroke-linejoin:miter;"/>
   </g>
   <g id="patch_19">
    <path d="M 1080 700 
L 1080 96 
" style="fill:none;stroke:#000000;stroke-linecap:square;stroke-linejoin:miter;"/>
   </g>
   <g id="patch_20">
    <path d="M 150 700 
L 1080 700 
" style="fill:none;stroke:#000000;stroke-linecap:square;stroke-linejoin:miter;"/>
   </g>
   <g id="patch_21">
    <path d="M 150 96 
L 1080 96 
" style="fill:none;stroke:#000000;stroke-linecap:square;stroke-linejoin:miter;"/>
   </g>
   <g id="text_10">
    <!-- Income distribution -->
    <g style="fill:#101629;" transform="translate(345.3 76)scale(0.6 -0.6)">
     <defs>
      <path d="M 26.203125 -0.796875 
Q 15.703125 -0.796875 9.953125 6.25 
Q 4.203125 13.296875 4.203125 25.203125 
Q 4.203125 37.09375 9.953125 44.140625 
Q 15.703125 51.203125 26.203125 51.203125 
Q 30.5 51.203125 34.046875 49.640625 
Q 37.59375 48.09375 39.40625 45.796875 
L 39.40625 48.796875 
L 39.40625 70.796875 
L 51.796875 70.796875 
L 51.796875 0 
L 39.40625 0 
L 39.40625 2.203125 
L 39.40625 5.203125 
Q 38.203125 2.90625 34.640625 1.046875 
Q 31.09375 -0.796875 26.203125 -0.796875 
z
M 28.90625 9.796875 
Q 34 9.796875 37.25 13.84375 
Q 40.5 17.90625 40.5 25.203125 
Q 40.5 32.5 37.25 36.546875 
Q 34 40.59375 28.90625 40.59375 
Q 23.796875 40.59375 20.5 36.546875 
Q 17.203125 32.5 17.203125 25.203125 
Q 17.203125 18 20.5 13.890625 
Q 23.796875 9.796875 28.90625 9.796875 
z
" id="ApercuPro-Bold-100"/>
      <path d="M 23.40625 -0.796875 
Q 15.59375 -0.796875 10.34375 3.203125 
Q 5.09375 7.203125 3.40625 12.796875 
L 13.296875 18.09375 
Q 14.703125 14.203125 17.25 12 
Q 19.796875 9.796875 23.296875 9.796875 
Q 25.703125 9.796875 27.390625 11.046875 
Q 29.09375 12.296875 29.09375 14.703125 
Q 29.09375 17 26.5 18.640625 
Q 23.90625 20.296875 18.703125 22.296875 
Q 13 24.59375 9.84375 28.09375 
Q 6.703125 31.59375 6.703125 37.09375 
Q 6.703125 41 8.75 44.203125 
Q 10.796875 47.40625 14.390625 49.296875 
Q 18 51.203125 22.59375 51.203125 
Q 27.703125 51.203125 31.890625 49.046875 
Q 36.09375 46.90625 38.40625 43 
L 31 36.203125 
Q 28 40.59375 22.90625 40.59375 
Q 20.90625 40.59375 19.453125 39.546875 
Q 18 38.5 18 36.796875 
Q 18 35 20.09375 33.453125 
Q 22.203125 31.90625 28.296875 29.703125 
Q 34.203125 27.59375 37.390625 24.1875 
Q 40.59375 20.796875 40.59375 15.5 
Q 40.59375 8.09375 35.796875 3.640625 
Q 31 -0.796875 23.40625 -0.796875 
z
" id="ApercuPro-Bold-115"/>
      <path d="M 27.203125 -0.796875 
Q 18.5 -0.796875 13.59375 3.890625 
Q 8.703125 8.59375 8.703125 17.796875 
L 8.703125 39.796875 
L 0.90625 39.796875 
L 0.90625 50.40625 
L 8.703125 50.40625 
L 8.703125 63 
L 21.09375 70.796875 
L 21.09375 50.40625 
L 34.40625 50.40625 
L 34.40625 39.796875 
L 21.09375 39.796875 
L 21.09375 18 
Q 21.09375 13.5 22.75 11.640625 
Q 24.40625 9.796875 27.703125 9.796875 
Q 30.203125 9.796875 32.5 11 
L 35.40625 1 
Q 31.5 -0.796875 27.203125 -0.796875 
z
" id="ApercuPro-Bold-116"/>
      <path d="M 31.59375 -0.796875 
Q 27.296875 -0.796875 23.9375 1.09375 
Q 20.59375 3 19.40625 5.203125 
L 19.40625 2.203125 
L 19.40625 0 
L 7 0 
L 7 70.796875 
L 19.40625 70.796875 
L 19.40625 48.796875 
L 19.40625 45.796875 
Q 21.09375 48 24.5 49.59375 
Q 27.90625 51.203125 31.59375 51.203125 
Q 42.703125 51.203125 48.640625 44.140625 
Q 54.59375 37.09375 54.59375 25.203125 
Q 54.59375 13.296875 48.640625 6.25 
Q 42.703125 -0.796875 31.59375 -0.796875 
z
M 29.90625 9.796875 
Q 35 9.796875 38.296875 13.890625 
Q 41.59375 18 41.59375 25.203125 
Q 41.59375 32.5 38.296875 36.546875 
Q 35 40.59375 29.90625 40.59375 
Q 24.796875 40.59375 21.546875 36.546875 
Q 18.296875 32.5 18.296875 25.203125 
Q 18.296875 17.90625 21.546875 13.84375 
Q 24.796875 9.796875 29.90625 9.796875 
z
" id="ApercuPro-Bold-98"/>
     </defs>
     <use xlink:href="#ApercuPro-Bold-73"/>
     <use x="28.999985" xlink:href="#ApercuPro-Bold-110"/>
     <use x="86.499969" xlink:href="#ApercuPro-Bold-99"/>
     <use x="141.799957" xlink:href="#ApercuPro-Bold-111"/>
     <use x="201.399948" xlink:href="#ApercuPro-Bold-109"/>
     <use x="286.799942" xlink:href="#ApercuPro-Bold-101"/>
     <use x="342.899933" xlink:href="#ApercuPro-Bold-32"/>
     <use x="367.699921" xlink:href="#ApercuPro-Bold-100"/>
     <use x="426.499908" xlink:href="#ApercuPro-Bold-105"/>
     <use x="452.899902" xlink:href="#ApercuPro-Bold-115"/>
     <use x="497.099899" xlink:href="#ApercuPro-Bold-116"/>
     <use x="534.099884" xlink:href="#ApercuPro-Bold-114"/>
     <use x="575.799881" xlink:href="#ApercuPro-Bold-105"/>
     <use x="602.199875" xlink:href="#ApercuPro-Bold-98"/>
     <use x="660.999863" xlink:href="#ApercuPro-Bold-117"/>
     <use x="718.499847" xlink:href="#ApercuPro-Bold-116"/>
     <use x="755.499832" xlink:href="#ApercuPro-Bold-105"/>
     <use x="781.899826" xlink:href="#ApercuPro-Bold-111"/>
     <use x="841.499817" xlink:href="#ApercuPro-Bold-110"/>
    </g>
   </g>
  </g>
 </g>
 <defs>
  <clipPath id="pf6fd23998a">
   <rect height="604" width="930" x="150" y="96"/>
  </clipPath>
 </defs>
</svg>
