<?xml version="1.0" encoding="utf-8"?>
<!-- Generator: Adobe Illustrator 26.0.3, SVG Export Plug-In . SVG Version: 6.00 Build 0)  -->
<svg version="1.1" xmlns="http://www.w3.org/2000/svg" xmlns:xlink="http://www.w3.org/1999/xlink" x="0px" y="0px"
	 viewBox="0 0 1200 800" style="enable-background:new 0 0 1200 800;" xml:space="preserve">
<style type="text/css">
	.st0{fill:#101629;}
	.st1{fill:#FFFFFF;}
	.st2{fill:#66C4FF;}
	.st3{font-family:'SuisseIntlMono-Bold';}
	.st4{font-size:32px;}
	.st5{fill:none;}
	.st6{font-family:'ApercuPro-Bold';}
	.st7{font-size:36px;}
	.st8{font-size:48px;}
</style>
<g id="Layer_1">
	<rect x="9" y="0" class="st0" width="1200.01" height="800.07"/>
	<rect x="209" y="134.63" class="st1" width="873.42" height="509.37"/>
	<rect x="334.43" y="204" class="st2" width="50.24" height="440"/>
	<rect x="280.6" y="280" class="st2" width="50.24" height="364"/>
	<rect x="226.77" y="438" class="st2" width="50.24" height="206"/>
	<rect x="388.27" y="256" class="st2" width="50.24" height="388"/>
	<rect x="442.1" y="375" class="st2" width="50.24" height="269"/>
	<rect x="495.93" y="431" class="st2" width="50.24" height="213"/>
	<rect x="549.76" y="375.5" class="st2" width="50.24" height="268.5"/>
	<rect x="603.59" y="310" class="st2" width="50.24" height="334"/>
	<rect x="657.43" y="348" class="st2" width="50.24" height="296"/>
	<rect x="711.26" y="419" class="st2" width="50.24" height="225"/>
	<rect x="765.09" y="516" class="st2" width="50.24" height="128"/>
	<rect x="818.92" y="538" class="st2" width="50.24" height="106"/>
	<rect x="872.76" y="593.31" class="st2" width="50.24" height="50.69"/>
	<path id="Stroke-18_00000181083338114799333100000005656659182766482596_" class="st1" d="M210.57,386.73h-11.12
		c-1.11,0-1.85,0.81-1.85,2.02c0,1.21,0.73,2.02,1.85,2.02h11.12c1.11,0,1.85-0.81,1.85-2.02
		C212.42,387.93,211.68,386.73,210.57,386.73z"/>
	<path id="Stroke-18_00000023960166085626303950000015507127099316504198_" class="st1" d="M210.15,515.62h-11.12
		c-1.11,0-1.85,0.81-1.85,2.02s0.73,2.02,1.85,2.02h11.12c1.11,0,1.85-0.81,1.85-2.02C212.02,516.83,211.26,515.62,210.15,515.62z"
		/>
	<path id="Stroke-18_00000049913391999763416350000009920508558259448709_" class="st1" d="M211.15,265.58h-11.12
		c-1.11,0-1.85,0.81-1.85,2.02c0,1.21,0.73,2.02,1.85,2.02h11.12c1.11,0,1.85-0.81,1.85-2.02
		C213.02,266.79,212.26,265.58,211.15,265.58z"/>
	<text transform="matrix(1 0 0 1 113 279.8174)" class="st1 st3 st4">150</text>
	<text transform="matrix(1 0 0 1 113 400.394)" class="st1 st3 st4">100</text>
	<text transform="matrix(1 0 0 1 133.9106 527.9707)" class="st1 st3 st4">50</text>
	<rect x="41" y="135" class="st5" width="37.82" height="509"/>
	<text transform="matrix(6.123234e-17 -1 1 6.123234e-17 72.6565 477.3208)" class="st1 st6 st7">Frequency</text>
	<path id="Stroke-18_00000152224420117698960400000016257076206115884724_" class="st1" d="M480.99,646.33v11.12
		c0,1.11,0.98,1.85,2.43,1.85c1.45,0,2.43-0.73,2.43-1.85v-11.12c0-1.11-0.98-1.85-2.43-1.85
		C482.45,644.49,480.99,645.22,480.99,646.33z"/>
	<path id="Stroke-18_00000066503681560462331930000011184973232281058432_" class="st1" d="M636.39,646.75v11.12
		c0,1.11,0.98,1.85,2.43,1.85s2.43-0.73,2.43-1.85v-11.12c0-1.11-0.98-1.85-2.43-1.85C637.85,644.88,636.39,645.64,636.39,646.75z"
		/>
	<path id="Stroke-18_00000173161877071748281780000015471190549863335851_" class="st1" d="M334.94,645.75v11.12
		c0,1.11,0.98,1.85,2.43,1.85s2.43-0.73,2.43-1.85v-11.12c0-1.11-0.98-1.85-2.43-1.85C336.4,643.88,334.94,644.64,334.94,645.75z"/>
	<path id="Stroke-18_00000049195379961500077560000009336775046871684759_" class="st1" d="M939.14,644.34v11.12
		c0,1.11,0.98,1.85,2.43,1.85c1.45,0,2.43-0.73,2.43-1.85v-11.12c0-1.11-0.98-1.85-2.43-1.85
		C940.59,642.49,939.14,643.23,939.14,644.34z"/>
	<path id="Stroke-18_00000088099147240080738000000001316231397092121503_" class="st1" d="M793.09,643.76v11.12
		c0,1.11,0.98,1.85,2.43,1.85c1.45,0,2.43-0.73,2.43-1.85v-11.12c0-1.11-0.98-1.85-2.43-1.85
		C794.54,641.89,793.09,642.65,793.09,643.76z"/>
	<rect x="308.44" y="656.48" class="st5" width="58.56" height="48.43"/>
	<text transform="matrix(1 0 0 1 317.0488 692.2949)" class="st1 st3 st4">10</text>
	<rect x="453.69" y="656.59" class="st5" width="58.56" height="48.43"/>
	<text transform="matrix(1 0 0 1 462.3018 692.4048)" class="st1 st3 st4">20</text>
	<rect x="609.07" y="656.73" class="st5" width="58.56" height="48.43"/>
	<text transform="matrix(1 0 0 1 617.6805 692.5409)" class="st1 st3 st4">30</text>
	<rect x="765.07" y="656.73" class="st5" width="58.56" height="48.43"/>
	<text transform="matrix(1 0 0 1 773.6805 692.5409)" class="st1 st3 st4">40</text>
	<rect x="912.07" y="656.73" class="st5" width="58.56" height="48.43"/>
	<text transform="matrix(1 0 0 1 920.6805 692.5409)" class="st1 st3 st4">50</text>
	<rect x="206" y="707.6" class="st5" width="876" height="75.46"/>
	<text transform="matrix(1 0 0 1 483.605 758.0703)" class="st1 st6 st7">Experience in years</text>
	<rect x="205.74" y="24.45" class="st5" width="876" height="75.46"/>
	<text transform="matrix(1 0 0 1 421.2135 79.1732)" class="st1 st6 st8">Bimodal distribution</text>
	<rect x="926.62" y="619" class="st2" width="50.24" height="25.36"/>
	<rect x="980.62" y="626" class="st2" width="50.24" height="17.69"/>
</g>
<g id="ticks">
</g>
</svg>
