<svg id="Layer_1" data-name="Layer 1" xmlns="http://www.w3.org/2000/svg" viewBox="0 0 3350.7 2560.02"><defs><style>.cls-1{fill:#ffd400;}.cls-1,.cls-2,.cls-3,.cls-4,.cls-5{stroke:#000;stroke-linecap:round;stroke-linejoin:round;stroke-width:6px;}.cls-2{fill:#ff7eee;}.cls-3{fill:#00feb9;}.cls-4{fill:#fcd5c5;}.cls-5{fill:#ff9600;}</style></defs><rect class="cls-1" x="465.75" y="72.39" width="1211.14" height="2413.6"/><rect class="cls-1" x="1675.79" y="72.39" width="1211.14" height="2413.6"/><rect class="cls-2" x="540.06" y="389.58" width="1067.16" height="247.07"/><path d="M871.38,223.61c0,28.06-21.68,48.14-48.68,48.14S774,251.67,774,223.61s21.68-48.14,48.68-48.14S871.38,195.55,871.38,223.61Zm-19.29,0c0-17.82-11.84-31.12-29.39-31.12s-29.39,13.3-29.39,31.12,11.83,31.12,29.39,31.12S852.09,241.43,852.09,223.61Z"/><path d="M932.56,201.8c-5.72-5.59-13.17-9.58-19.69-9.58-6.11,0-11.7,3.19-11.7,8.78,0,4.26,2.66,7.58,10.11,11l7.71,3.59c14.76,6.92,23.67,14.63,23.67,28.59s-11.83,27.53-32.31,27.53c-14.1,0-24.61-5.45-33.39-14L887.2,244c6.92,7,15.7,11,22.75,11,8,0,12.9-4.39,12.9-10.11,0-6.38-5.72-10-14.63-14.1l-6.52-3.06c-12.5-5.85-20.35-14.36-20.35-26.06,0-16.36,14.63-26.2,31.12-26.2,10.78,0,21.82,5.32,30.73,13Z"/><path d="M957,177.06h18.49v93.1H957Z"/><path d="M1057.84,250.21l-18.35-45.88v65.83h-18v-93.1h26.07l20.35,52.8,20.74-52.8h24.87v93.1h-18.35V204.33l-17.82,45.88Z"/><path d="M1125.27,239.7c0-18.62,14.5-32,32.59-32s32.58,13.43,32.58,32-14.5,32.05-32.58,32.05S1125.27,258.32,1125.27,239.7Zm17.29,0c0,9.44,6.25,16.63,15.3,16.63S1173,249.14,1173,239.7s-6.25-16.62-15.16-16.62S1142.56,230.13,1142.56,239.7Z"/><path d="M1246.3,262.44c-3.06,5.06-10.24,9.31-19,9.31-16.76,0-29.52-13.43-29.52-32.05s12.63-32,29.39-32c9.31,0,16.36,4.26,19.42,9.44,0-2-.27-7.05-.27-11.57V177.06h17.29v93.1H1246.3Zm-30.72-22.74c0,9.31,6.38,16.76,15.56,16.76s15.56-7.45,15.56-16.76-6.39-16.62-15.56-16.62S1215.58,230.26,1215.58,239.7Z"/><path d="M1338.2,244.76h-45.35a13.79,13.79,0,0,0,14,12.23c5.06,0,9.85-2.13,12.24-6.25l18,1.86c-5.45,13-16.89,19.15-30.45,19.15-18.22,0-31.92-13.43-31.92-32.05s13.43-32,31.65-32c16.76,0,31.92,10.91,31.92,36.44Zm-45.75-11.57h27.26A13.21,13.21,0,0,0,1306.28,222,13.59,13.59,0,0,0,1292.45,233.19Z"/><path d="M1365.6,270.16h-17.16v-93.1h17.16Z"/><path d="M1949.68,177.06v16.49h-27.8v76.61h-18.35V193.55h-27.8V177.06Z"/><path d="M2002.48,254.73c12.37,0,21.81-6.65,25.27-17.69h20.35c-5.46,22-24.61,34.71-45.62,34.71-27.4,0-48.54-20.08-48.54-48.14s21.14-48.14,48.54-48.14c21,0,40.16,12.76,45.62,34.71h-20.35c-3.46-11-12.9-17.69-25.27-17.69-17.56,0-29.26,13.3-29.26,31.12S1984.92,254.73,2002.48,254.73Z"/><path d="M2079.35,270.16H2061v-93.1h31.52c21.94,0,33.51,13.7,33.51,30.59s-11.57,31-33.51,31h-13.17Zm0-77.14v29.79h10.38c10.1,0,17.42-4.79,17.42-15.16S2099.83,193,2089.73,193Z"/><path d="M2160.88,177.06h16l-31.52,93.1h-16Z"/><path d="M2190.4,177.06h18.49v93.1H2190.4Z"/><path d="M2246.66,270.16h-18.35v-93.1h31.52c21.94,0,33.51,13.7,33.51,30.59s-11.57,31-33.51,31h-13.17Zm0-77.14v29.79H2257c10.1,0,17.42-4.79,17.42-15.16S2267.14,193,2257,193Z"/><path d="M2364.9,250.21l-18.36-45.88v65.83h-17.95v-93.1h26.07l20.34,52.8,20.75-52.8h24.87v93.1h-18.35V204.33l-17.82,45.88Z"/><path d="M2432.33,239.7c0-18.62,14.5-32,32.58-32s32.59,13.43,32.59,32-14.5,32.05-32.59,32.05S2432.33,258.32,2432.33,239.7Zm17.29,0c0,9.44,6.25,16.63,15.29,16.63s15.16-7.19,15.16-16.63-6.25-16.62-15.16-16.62S2449.62,230.13,2449.62,239.7Z"/><path d="M2553.36,262.44c-3.06,5.06-10.24,9.31-19,9.31-16.76,0-29.53-13.43-29.53-32.05s12.64-32,29.39-32c9.31,0,16.36,4.26,19.42,9.44,0-2-.26-7.05-.26-11.57V177.06h17.29v93.1h-17.29Zm-30.73-22.74c0,9.31,6.39,16.76,15.57,16.76s15.56-7.45,15.56-16.76-6.39-16.62-15.56-16.62S2522.63,230.26,2522.63,239.7Z"/><path d="M2645.26,244.76h-45.35a13.79,13.79,0,0,0,14,12.23c5.05,0,9.84-2.13,12.24-6.25l17.95,1.86c-5.45,13-16.89,19.15-30.45,19.15-18.23,0-31.92-13.43-31.92-32.05s13.43-32,31.65-32c16.76,0,31.92,10.91,31.92,36.44Zm-45.75-11.57h27.26A13.22,13.22,0,0,0,2613.34,222,13.58,13.58,0,0,0,2599.51,233.19Z"/><path d="M2672.65,270.16H2655.5v-93.1h17.15Z"/><path d="M737.39,518l-8.2,24.7h-6.4l24.1-70h7.71l24.2,70h-6.7L763.7,518Zm1.7-5.41H761.9l-11.2-33.8h-.31Z"/><path d="M794.69,534.39v25.8h-6.1V498.58h6.1v8.61c2.6-5.51,9.4-9.81,17-9.81,12.6,0,22.2,9.81,22.2,23.31s-9.7,23.2-22.41,23.2C804,543.89,797.39,539.79,794.69,534.39Zm16.4-31.61c-9.8,0-16.7,7.8-16.7,17.91s6.9,17.9,16.7,17.9,16.61-7.8,16.61-17.9S820.9,502.78,811.09,502.78Z"/><path d="M851.09,534.39v25.8H845V498.58h6.1v8.61c2.6-5.51,9.4-9.81,17-9.81,12.61,0,22.21,9.81,22.21,23.31s-9.71,23.2-22.41,23.2C860.39,543.89,853.79,539.79,851.09,534.39Zm16.4-31.61c-9.8,0-16.7,7.8-16.7,17.91s6.9,17.9,16.7,17.9,16.6-7.8,16.6-17.9S877.29,502.78,867.49,502.78Z"/><path d="M907.49,542.69h-6.1v-70h6.1Z"/><path d="M929.39,542.69h-6.1v-39h-7v-5.1h13.1Zm-3.5-65.41a5.3,5.3,0,1,1-5.3,5.3A5.34,5.34,0,0,1,925.89,477.28Z"/><path d="M963.19,538.59a15.77,15.77,0,0,0,14.5-8.9l5.2,3a22.32,22.32,0,0,1-19.7,11.2c-12.7,0-22.8-9.7-22.8-23.2s10.1-23.31,22.8-23.31a22.32,22.32,0,0,1,19.7,11.2l-5.2,3a15.85,15.85,0,0,0-14.5-8.8c-9.8,0-16.6,7.8-16.6,17.91S953.39,538.59,963.19,538.59Z"/><path d="M1019.49,512.19c0-6.71-5.2-9.41-11.1-9.41-5.5,0-9.9,2.3-13.6,4.8l-2.9-4.6a28.86,28.86,0,0,1,16.9-5.6c10.5,0,16.8,5.9,16.8,15v30.3h-6.1v-5.5c-2.5,4.4-8.5,6.7-13.8,6.7-9.6,0-16-5.6-16-13.5,0-8.1,5.8-12.9,14.9-12.9h10.6c3.1,0,4.3-1.6,4.3-4Zm0,14.8v-6.1c-1.1,1.3-3.4,1.7-5.7,1.7h-8.2c-6.5,0-9.5,3.2-9.5,7.8,0,3.8,2.9,8.3,10.3,8.3C1013.09,538.69,1019.49,535,1019.49,527Z"/><path d="M1047.89,480v18.6h10.9v5.1h-10.9v29.91c0,4.1,2.9,4.3,6.3,4.3a30.89,30.89,0,0,0,4.6-.3v5.1a61.76,61.76,0,0,1-6.8.4c-4.6,0-10.2-1.2-10.2-9.4v-30h-7.6v-5.1h7.6V480Z"/><path d="M1075.79,542.69h-6.1v-39h-7v-5.1h13.1Zm-3.5-65.41a5.3,5.3,0,1,1-5.3,5.3A5.34,5.34,0,0,1,1072.29,477.28Z"/><path d="M1109.59,497.38c12.7,0,22.9,9.81,22.9,23.31s-10.2,23.2-22.9,23.2-22.8-9.7-22.8-23.2S1097,497.38,1109.59,497.38Zm0,5.4c-9.8,0-16.6,7.8-16.6,17.91s6.8,17.9,16.6,17.9,16.7-7.8,16.7-17.9S1119.49,502.78,1109.59,502.78Z"/><path d="M1175.19,513.69c0-7.11-4.6-10.91-10.9-10.91-5.3,0-10.5,2.9-14.7,7.8v32.11h-6.1V498.58h6v6.3a20,20,0,0,1,15.8-7.5c10.3,0,16,6.3,16,16v29.3h-6.1Z"/><path d="M1216.89,542.69v-70h6.2v64.51h31.2v5.5Z"/><path d="M1288.89,512.19c0-6.71-5.2-9.41-11.1-9.41-5.5,0-9.9,2.3-13.6,4.8l-2.9-4.6a28.86,28.86,0,0,1,16.9-5.6c10.5,0,16.8,5.9,16.8,15v30.3h-6.1v-5.5c-2.5,4.4-8.5,6.7-13.8,6.7-9.6,0-16-5.6-16-13.5,0-8.1,5.8-12.9,14.9-12.9h10.6c3.1,0,4.3-1.6,4.3-4Zm0,14.8v-6.1c-1.1,1.3-3.4,1.7-5.7,1.7H1275c-6.5,0-9.5,3.2-9.5,7.8,0,3.8,2.9,8.3,10.3,8.3C1282.49,538.69,1288.89,535,1288.89,527Z"/><path d="M1322.09,542.69h-2.2l-16.4-44.11h6.8l13.8,39.21,14.2-39.21h6.5l-19.7,51.91c-2.4,6.3-5.1,9.7-12.6,9.7h-5.1v-5.1h5c4.4,0,5.9-2.3,7.6-6.8Z"/><path d="M1356.09,522.49c.8,9.1,6.9,16,16.1,16,6,0,11-2.8,13.7-7.6h7.1a22.6,22.6,0,0,1-20.8,13c-12.7,0-22.4-9.7-22.4-23.2s9.7-23.31,22.3-23.31c11.5,0,22.2,8.1,22.2,24.91v.2Zm.2-5h31.2c-.7-8-6.7-14.71-15.4-14.71S1357.39,509.08,1356.29,517.49Z"/><path d="M1427.09,504h-3c-7.8,0-13.4,3.6-13.4,14v24.7h-6V498.58h5.8v7.5c2.5-5.9,8-8.3,13.3-8.3,1,0,2.1.1,3.3.2Z"/><rect class="cls-2" x="540.06" y="694.49" width="1067.16" height="247.07"/><path d="M715.24,849.59H709v-70h18.6c16,0,24,9.5,24,21.2s-8,21.6-24,21.6h-12.4Zm0-64.5v31.8h13.1c9.21,0,17-5.6,17-16.1s-7.8-15.7-17-15.7Z"/><path d="M782.94,810.89h-3c-7.8,0-13.4,3.6-13.4,14v24.7h-6v-44.1h5.8V813c2.5-5.9,8-8.3,13.3-8.3,1,0,2.1.1,3.3.2Z"/><path d="M794.14,829.39c.8,9.1,6.9,16,16.1,16,6,0,11-2.8,13.71-7.6h7.1a22.61,22.61,0,0,1-20.81,13c-12.7,0-22.4-9.7-22.4-23.2s9.7-23.3,22.3-23.3c11.5,0,22.21,8.1,22.21,24.9v.2Zm.2-5h31.21c-.71-8-6.71-14.7-15.41-14.7S795.44,816,794.34,824.39Z"/><path d="M864.14,837.89c0-4.4-3.6-6.3-9.9-8.6l-2.5-.9c-6.7-2.4-11.2-5.8-11.2-12.2,0-7.3,6.5-11.9,15.1-11.9a22.49,22.49,0,0,1,14.3,5.1l-3.3,4.6c-3.1-2.5-7.7-4.4-11.2-4.4-4.9,0-8.6,2.5-8.6,6.3,0,2.8,2,5,6.5,6.7l5.1,1.9c8.5,3.3,12,7,12,13.5,0,5.7-4.9,12.8-16.2,12.8a26.34,26.34,0,0,1-15.5-5.5l3.2-4.6a21.09,21.09,0,0,0,12.5,4.7C860.44,845.39,864.14,842,864.14,837.89Z"/><path d="M884.54,829.39c.8,9.1,6.9,16,16.1,16,6,0,11-2.8,13.7-7.6h7.1a22.6,22.6,0,0,1-20.8,13c-12.7,0-22.4-9.7-22.4-23.2s9.7-23.3,22.3-23.3c11.5,0,22.2,8.1,22.2,24.9v.2Zm.2-5h31.2c-.7-8-6.7-14.7-15.4-14.7S885.84,816,884.74,824.39Z"/><path d="M964.84,820.59c0-7.1-4.6-10.9-10.9-10.9-5.3,0-10.5,2.9-14.7,7.8v32.1h-6.1v-44.1h6v6.3a20,20,0,0,1,15.8-7.5c10.3,0,16,6.3,16,16v29.3h-6.1Z"/><path d="M993.24,786.89v18.6h10.9v5.1h-10.9v29.9c0,4.1,2.9,4.3,6.3,4.3a30.89,30.89,0,0,0,4.6-.3v5.1a61.76,61.76,0,0,1-6.8.4c-4.6,0-10.2-1.2-10.2-9.4v-30h-7.6v-5.1h7.6v-18.6Z"/><path d="M1039.54,819.09c0-6.7-5.2-9.4-11.1-9.4-5.5,0-9.9,2.3-13.6,4.8l-2.9-4.6a28.86,28.86,0,0,1,16.9-5.6c10.5,0,16.8,5.9,16.8,15v30.3h-6.1v-5.5c-2.5,4.4-8.5,6.7-13.8,6.7-9.6,0-16-5.6-16-13.5,0-8.1,5.8-12.9,14.9-12.9h10.6c3.1,0,4.3-1.6,4.3-4Zm0,14.8v-6.1c-1.1,1.3-3.4,1.7-5.7,1.7h-8.2c-6.5,0-9.5,3.2-9.5,7.8,0,3.8,2.9,8.3,10.3,8.3C1033.14,845.59,1039.54,841.89,1039.54,833.89Z"/><path d="M1067.94,786.89v18.6h10.9v5.1h-10.9v29.9c0,4.1,2.9,4.3,6.3,4.3a30.89,30.89,0,0,0,4.6-.3v5.1a61.76,61.76,0,0,1-6.8.4c-4.6,0-10.2-1.2-10.2-9.4v-30h-7.6v-5.1h7.6v-18.6Z"/><path d="M1095.84,849.59h-6.1v-39h-7v-5.1h13.1Zm-3.5-65.4a5.3,5.3,0,1,1-5.3,5.3A5.34,5.34,0,0,1,1092.34,784.19Z"/><path d="M1129.64,804.29c12.7,0,22.9,9.8,22.9,23.3s-10.2,23.2-22.9,23.2-22.8-9.7-22.8-23.2S1117,804.29,1129.64,804.29Zm0,5.4c-9.8,0-16.6,7.8-16.6,17.9s6.8,17.9,16.6,17.9,16.7-7.8,16.7-17.9S1139.54,809.69,1129.64,809.69Z"/><path d="M1195.24,820.59c0-7.1-4.6-10.9-10.9-10.9-5.3,0-10.5,2.9-14.7,7.8v32.1h-6.1v-44.1h6v6.3a20,20,0,0,1,15.8-7.5c10.3,0,16,6.3,16,16v29.3h-6.1Z"/><path d="M1236.94,849.59v-70h6.2v64.5h31.2v5.5Z"/><path d="M1308.94,819.09c0-6.7-5.2-9.4-11.1-9.4-5.5,0-9.9,2.3-13.6,4.8l-2.9-4.6a28.86,28.86,0,0,1,16.9-5.6c10.5,0,16.8,5.9,16.8,15v30.3h-6.1v-5.5c-2.5,4.4-8.5,6.7-13.8,6.7-9.6,0-16-5.6-16-13.5,0-8.1,5.8-12.9,14.9-12.9h10.6c3.1,0,4.3-1.6,4.3-4Zm0,14.8v-6.1c-1.1,1.3-3.4,1.7-5.7,1.7H1295c-6.5,0-9.5,3.2-9.5,7.8,0,3.8,2.9,8.3,10.3,8.3C1302.54,845.59,1308.94,841.89,1308.94,833.89Z"/><path d="M1342.14,849.59h-2.2l-16.4-44.1h6.8l13.8,39.2,14.2-39.2h6.5l-19.7,51.9c-2.4,6.3-5.1,9.7-12.6,9.7h-5.1V862h5c4.4,0,5.9-2.3,7.6-6.8Z"/><path d="M1376.14,829.39c.8,9.1,6.9,16,16.1,16,6,0,11-2.8,13.7-7.6h7.1a22.6,22.6,0,0,1-20.8,13c-12.7,0-22.4-9.7-22.4-23.2s9.7-23.3,22.3-23.3c11.5,0,22.2,8.1,22.2,24.9v.2Zm.2-5h31.2c-.7-8-6.7-14.7-15.4-14.7S1377.44,816,1376.34,824.39Z"/><path d="M1447.14,810.89h-3c-7.8,0-13.4,3.6-13.4,14v24.7h-6v-44.1h5.8V813c2.5-5.9,8-8.3,13.3-8.3,1,0,2.1.1,3.3.2Z"/><rect class="cls-2" x="540.06" y="990.01" width="1067.16" height="247.07"/><path d="M842.9,1085.51c-3.5-3-9.7-6.2-15.51-6.2-7.3,0-14.4,3.9-14.4,11.7,0,4.61,3,8.81,10.2,12.51l7.3,3.8c10.91,5.7,16.21,11.7,16.21,20.2,0,9.3-7.71,18.8-21.81,18.8a30.56,30.56,0,0,1-20.9-8.1l3.5-4.7a25,25,0,0,0,17.8,7.4c9.3,0,15.11-6.5,15.11-13,0-7.2-4.51-10.9-13.71-15.7l-5.9-3.1c-9.1-4.8-14-9.9-14-17.91,0-10.9,9.5-17.3,20.5-17.3a31.36,31.36,0,0,1,19,6.8Z"/><path d="M861.29,1124.92c.8,9.1,6.9,16,16.1,16,6,0,11-2.8,13.7-7.6h7.11a22.62,22.62,0,0,1-20.81,13c-12.7,0-22.4-9.7-22.4-23.2s9.7-23.3,22.3-23.3c11.5,0,22.2,8.1,22.2,24.9v.2Zm.2-5h31.2c-.7-8-6.7-14.7-15.4-14.7S862.59,1111.52,861.49,1119.92Z"/><path d="M931.29,1133.42c0-4.4-3.6-6.3-9.9-8.6l-2.5-.9c-6.7-2.4-11.2-5.8-11.2-12.2,0-7.3,6.5-11.9,15.1-11.9a22.49,22.49,0,0,1,14.3,5.1l-3.3,4.6c-3.1-2.5-7.7-4.4-11.2-4.4-4.9,0-8.6,2.5-8.6,6.3,0,2.8,2,5,6.5,6.7l5.1,1.9c8.5,3.3,12,7,12,13.5,0,5.7-4.9,12.8-16.2,12.8a26.34,26.34,0,0,1-15.5-5.5l3.2-4.6a21.09,21.09,0,0,0,12.5,4.7C927.59,1140.92,931.29,1137.52,931.29,1133.42Z"/><path d="M969.89,1133.42c0-4.4-3.6-6.3-9.9-8.6l-2.5-.9c-6.7-2.4-11.2-5.8-11.2-12.2,0-7.3,6.5-11.9,15.1-11.9a22.49,22.49,0,0,1,14.3,5.1l-3.3,4.6c-3.1-2.5-7.7-4.4-11.2-4.4-4.9,0-8.6,2.5-8.6,6.3,0,2.8,2,5,6.5,6.7l5.1,1.9c8.5,3.3,12,7,12,13.5,0,5.7-4.9,12.8-16.2,12.8a26.34,26.34,0,0,1-15.5-5.5l3.2-4.6a21.09,21.09,0,0,0,12.5,4.7C966.19,1140.92,969.89,1137.52,969.89,1133.42Z"/><path d="M994.79,1145.12h-6.1v-39h-7V1101h13.1Zm-3.5-65.41a5.31,5.31,0,1,1-5.3,5.3A5.34,5.34,0,0,1,991.29,1079.71Z"/><path d="M1028.59,1099.82c12.7,0,22.9,9.8,22.9,23.3s-10.2,23.2-22.9,23.2-22.8-9.7-22.8-23.2S1016,1099.82,1028.59,1099.82Zm0,5.4c-9.8,0-16.6,7.8-16.6,17.9s6.8,17.9,16.6,17.9,16.7-7.8,16.7-17.9S1038.49,1105.22,1028.59,1105.22Z"/><path d="M1094.19,1116.12c0-7.1-4.6-10.9-10.9-10.9-5.3,0-10.5,2.9-14.7,7.8v32.1h-6.1V1101h6v6.3a20,20,0,0,1,15.8-7.5c10.3,0,16,6.3,16,16v29.3h-6.1Z"/><path d="M1135.89,1145.12v-70h6.2v64.51h31.2v5.5Z"/><path d="M1207.89,1114.62c0-6.7-5.2-9.4-11.1-9.4-5.5,0-9.9,2.3-13.6,4.8l-2.9-4.6a28.86,28.86,0,0,1,16.9-5.6c10.5,0,16.8,5.9,16.8,15v30.3h-6.1v-5.5c-2.5,4.4-8.5,6.7-13.8,6.7-9.6,0-16-5.6-16-13.5,0-8.1,5.8-12.9,14.9-12.9h10.6c3.1,0,4.3-1.6,4.3-4Zm0,14.8v-6.1c-1.1,1.3-3.4,1.7-5.7,1.7H1194c-6.5,0-9.5,3.2-9.5,7.8,0,3.8,2.9,8.3,10.3,8.3C1201.49,1141.12,1207.89,1137.42,1207.89,1129.42Z"/><path d="M1241.09,1145.12h-2.2l-16.4-44.1h6.8l13.8,39.2,14.2-39.2h6.5l-19.7,51.9c-2.4,6.3-5.1,9.7-12.6,9.7h-5.1v-5.1h5c4.4,0,5.9-2.3,7.6-6.8Z"/><path d="M1275.09,1124.92c.8,9.1,6.9,16,16.1,16,6,0,11-2.8,13.7-7.6h7.1a22.6,22.6,0,0,1-20.8,13c-12.7,0-22.4-9.7-22.4-23.2s9.7-23.3,22.3-23.3c11.5,0,22.2,8.1,22.2,24.9v.2Zm.2-5h31.2c-.7-8-6.7-14.7-15.4-14.7S1276.39,1111.52,1275.29,1119.92Z"/><path d="M1346.09,1106.42h-3c-7.8,0-13.4,3.6-13.4,14v24.7h-6V1101h5.8v7.5c2.5-5.9,8-8.3,13.3-8.3,1,0,2.1.1,3.3.2Z"/><rect class="cls-3" x="540.06" y="1280.85" width="1067.16" height="247.07"/><path d="M815.45,1369v5.7h-22V1439h-6.2v-64.3h-21.9V1369Z"/><path d="M835.54,1400.25h-3c-7.8,0-13.4,3.6-13.4,14V1439h-6v-44.1h5.8v7.5c2.5-5.9,8-8.3,13.3-8.3,1,0,2.1.1,3.3.2Z"/><path d="M870.84,1408.45c0-6.7-5.2-9.4-11.1-9.4-5.5,0-9.9,2.3-13.6,4.8l-2.9-4.6a28.86,28.86,0,0,1,16.9-5.6c10.5,0,16.8,5.9,16.8,15V1439h-6.1v-5.5c-2.5,4.4-8.5,6.7-13.8,6.7-9.6,0-16-5.6-16-13.5,0-8.1,5.8-12.9,14.9-12.9h10.6c3.1,0,4.3-1.6,4.3-4Zm0,14.8v-6.1c-1.1,1.3-3.4,1.7-5.7,1.7h-8.2c-6.5,0-9.5,3.2-9.5,7.8,0,3.8,2.9,8.3,10.3,8.3C864.44,1435,870.84,1431.25,870.84,1423.25Z"/><path d="M922.34,1410c0-7.1-4.6-10.9-10.9-10.9-5.3,0-10.5,2.9-14.7,7.8V1439h-6.1v-44.1h6v6.3a20,20,0,0,1,15.8-7.5c10.3,0,16,6.3,16,16V1439h-6.1Z"/><path d="M963.54,1427.25c0-4.4-3.6-6.3-9.9-8.6l-2.5-.9c-6.7-2.4-11.2-5.8-11.2-12.2,0-7.3,6.5-11.9,15.1-11.9a22.49,22.49,0,0,1,14.3,5.1l-3.3,4.6c-3.1-2.5-7.7-4.4-11.2-4.4-4.9,0-8.6,2.5-8.6,6.3,0,2.8,2,5,6.5,6.7l5.1,1.9c8.5,3.3,12,7,12,13.5,0,5.7-4.9,12.8-16.2,12.8a26.34,26.34,0,0,1-15.5-5.5l3.2-4.6a21.09,21.09,0,0,0,12.5,4.7C959.84,1434.75,963.54,1431.35,963.54,1427.25Z"/><path d="M986.84,1430.65v25.8h-6.1v-61.6h6.1v8.6c2.6-5.5,9.4-9.8,17-9.8,12.6,0,22.2,9.8,22.2,23.3s-9.7,23.2-22.4,23.2C996.14,1440.15,989.54,1436.05,986.84,1430.65Zm16.4-31.6c-9.8,0-16.7,7.8-16.7,17.9s6.9,17.9,16.7,17.9,16.6-7.8,16.6-17.9S1013,1399.05,1003.24,1399.05Z"/><path d="M1056.74,1393.65c12.7,0,22.9,9.8,22.9,23.3s-10.2,23.2-22.9,23.2-22.8-9.7-22.8-23.2S1044.14,1393.65,1056.74,1393.65Zm0,5.4c-9.8,0-16.6,7.8-16.6,17.9s6.8,17.9,16.6,17.9,16.7-7.8,16.7-17.9S1066.64,1399.05,1056.74,1399.05Z"/><path d="M1113,1400.25h-3c-7.8,0-13.4,3.6-13.4,14V1439h-6v-44.1h5.8v7.5c2.5-5.9,8-8.3,13.3-8.3,1,0,2.1.1,3.3.2Z"/><path d="M1130.84,1376.25v18.6h10.9v5.1h-10.9v29.9c0,4.1,2.9,4.3,6.3,4.3a30.89,30.89,0,0,0,4.6-.3v5.1a61.76,61.76,0,0,1-6.8.4c-4.6,0-10.2-1.2-10.2-9.4v-30h-7.6v-5.1h7.6v-18.6Z"/><path d="M1172.94,1439v-70h6.2v64.5h31.2v5.5Z"/><path d="M1244.94,1408.45c0-6.7-5.2-9.4-11.1-9.4-5.5,0-9.9,2.3-13.6,4.8l-2.9-4.6a28.86,28.86,0,0,1,16.9-5.6c10.5,0,16.8,5.9,16.8,15V1439h-6.1v-5.5c-2.5,4.4-8.5,6.7-13.8,6.7-9.6,0-16-5.6-16-13.5,0-8.1,5.8-12.9,14.9-12.9h10.6c3.1,0,4.3-1.6,4.3-4Zm0,14.8v-6.1c-1.1,1.3-3.4,1.7-5.7,1.7H1231c-6.5,0-9.5,3.2-9.5,7.8,0,3.8,2.9,8.3,10.3,8.3C1238.54,1435,1244.94,1431.25,1244.94,1423.25Z"/><path d="M1278.14,1439h-2.2l-16.4-44.1h6.8l13.8,39.2,14.2-39.2h6.5l-19.7,51.9c-2.4,6.3-5.1,9.7-12.6,9.7h-5.1v-5.1h5c4.4,0,5.9-2.3,7.6-6.8Z"/><path d="M1312.14,1418.75c.8,9.1,6.9,16,16.1,16,6,0,11-2.8,13.7-7.6h7.1a22.6,22.6,0,0,1-20.8,13c-12.7,0-22.4-9.7-22.4-23.2s9.7-23.3,22.3-23.3c11.5,0,22.2,8.1,22.2,24.9v.2Zm.2-5h31.2c-.7-8-6.7-14.7-15.4-14.7S1313.44,1405.35,1312.34,1413.75Z"/><path d="M1383.14,1400.25h-3c-7.8,0-13.4,3.6-13.4,14V1439h-6v-44.1h5.8v7.5c2.5-5.9,8-8.3,13.3-8.3,1,0,2.1.1,3.3.2Z"/><rect class="cls-3" x="1742.39" y="1280.85" width="1067.16" height="247.07"/><path d="M2017.78,1369v5.7h-22V1439h-6.21v-64.3h-21.9V1369Z"/><path d="M2037.88,1400.25h-3c-7.81,0-13.41,3.6-13.41,14V1439h-6v-44.1h5.8v7.5c2.5-5.9,8-8.3,13.3-8.3,1,0,2.11.1,3.31.2Z"/><path d="M2073.18,1408.45c0-6.7-5.21-9.4-11.11-9.4-5.5,0-9.9,2.3-13.6,4.8l-2.9-4.6a28.86,28.86,0,0,1,16.9-5.6c10.5,0,16.81,5.9,16.81,15V1439h-6.1v-5.5c-2.51,4.4-8.51,6.7-13.81,6.7-9.6,0-16-5.6-16-13.5,0-8.1,5.8-12.9,14.9-12.9h10.6c3.1,0,4.31-1.6,4.31-4Zm0,14.8v-6.1c-1.11,1.3-3.41,1.7-5.71,1.7h-8.2c-6.5,0-9.5,3.2-9.5,7.8,0,3.8,2.9,8.3,10.3,8.3C2066.77,1435,2073.18,1431.25,2073.18,1423.25Z"/><path d="M2124.68,1410c0-7.1-4.6-10.9-10.9-10.9-5.31,0-10.51,2.9-14.71,7.8V1439H2093v-44.1h6v6.3a20,20,0,0,1,15.81-7.5c10.3,0,16,6.3,16,16V1439h-6.1Z"/><path d="M2165.88,1427.25c0-4.4-3.61-6.3-9.91-8.6l-2.5-.9c-6.7-2.4-11.2-5.8-11.2-12.2,0-7.3,6.5-11.9,15.1-11.9a22.52,22.52,0,0,1,14.31,5.1l-3.3,4.6c-3.1-2.5-7.71-4.4-11.21-4.4-4.9,0-8.6,2.5-8.6,6.3,0,2.8,2,5,6.5,6.7l5.1,1.9c8.51,3.3,12,7,12,13.5,0,5.7-4.9,12.8-16.21,12.8a26.34,26.34,0,0,1-15.5-5.5l3.2-4.6a21.09,21.09,0,0,0,12.5,4.7C2162.18,1434.75,2165.88,1431.35,2165.88,1427.25Z"/><path d="M2189.17,1430.65v25.8h-6.1v-61.6h6.1v8.6c2.6-5.5,9.4-9.8,17-9.8,12.6,0,22.21,9.8,22.21,23.3s-9.71,23.2-22.41,23.2C2198.47,1440.15,2191.87,1436.05,2189.17,1430.65Zm16.4-31.6c-9.8,0-16.7,7.8-16.7,17.9s6.9,17.9,16.7,17.9,16.6-7.8,16.6-17.9S2215.37,1399.05,2205.57,1399.05Z"/><path d="M2259.07,1393.65c12.7,0,22.9,9.8,22.9,23.3s-10.2,23.2-22.9,23.2-22.8-9.7-22.8-23.2S2246.47,1393.65,2259.07,1393.65Zm0,5.4c-9.8,0-16.6,7.8-16.6,17.9s6.8,17.9,16.6,17.9,16.7-7.8,16.7-17.9S2269,1399.05,2259.07,1399.05Z"/><path d="M2315.37,1400.25h-3c-7.8,0-13.4,3.6-13.4,14V1439h-6v-44.1h5.8v7.5c2.5-5.9,8-8.3,13.3-8.3,1,0,2.1.1,3.3.2Z"/><path d="M2333.17,1376.25v18.6h10.9v5.1h-10.9v29.9c0,4.1,2.9,4.3,6.3,4.3a30.89,30.89,0,0,0,4.6-.3v5.1a61.76,61.76,0,0,1-6.8.4c-4.6,0-10.2-1.2-10.2-9.4v-30h-7.6v-5.1h7.6v-18.6Z"/><path d="M2375.27,1439v-70h6.2v64.5h31.2v5.5Z"/><path d="M2447.27,1408.45c0-6.7-5.2-9.4-11.1-9.4-5.5,0-9.9,2.3-13.6,4.8l-2.9-4.6a28.86,28.86,0,0,1,16.9-5.6c10.5,0,16.8,5.9,16.8,15V1439h-6.1v-5.5c-2.5,4.4-8.5,6.7-13.8,6.7-9.6,0-16-5.6-16-13.5,0-8.1,5.8-12.9,14.9-12.9H2443c3.1,0,4.3-1.6,4.3-4Zm0,14.8v-6.1c-1.1,1.3-3.4,1.7-5.7,1.7h-8.2c-6.5,0-9.5,3.2-9.5,7.8,0,3.8,2.9,8.3,10.3,8.3C2440.87,1435,2447.27,1431.25,2447.27,1423.25Z"/><path d="M2480.47,1439h-2.2l-16.4-44.1h6.8l13.8,39.2,14.2-39.2h6.5l-19.7,51.9c-2.4,6.3-5.1,9.7-12.6,9.7h-5.1v-5.1h5c4.4,0,5.9-2.3,7.6-6.8Z"/><path d="M2514.47,1418.75c.8,9.1,6.9,16,16.1,16,6,0,11-2.8,13.7-7.6h7.1a22.6,22.6,0,0,1-20.8,13c-12.7,0-22.4-9.7-22.4-23.2s9.7-23.3,22.3-23.3c11.5,0,22.2,8.1,22.2,24.9v.2Zm.2-5h31.2c-.7-8-6.7-14.7-15.4-14.7S2515.77,1405.35,2514.67,1413.75Z"/><path d="M2585.47,1400.25h-3c-7.8,0-13.4,3.6-13.4,14V1439h-6v-44.1h5.8v7.5c2.5-5.9,8-8.3,13.3-8.3,1,0,2.1.1,3.3.2Z"/><rect class="cls-4" x="540.06" y="1576.37" width="1067.16" height="247.07"/><path d="M795.19,1731.48h-5.9v-70h8.6l33.71,61v-61h5.9v70h-7.71l-34.6-62.31Z"/><path d="M855.89,1711.28c.8,9.1,6.9,16,16.1,16,6,0,11-2.8,13.7-7.6h7.1a22.6,22.6,0,0,1-20.8,13c-12.7,0-22.4-9.7-22.4-23.2s9.7-23.31,22.3-23.31c11.5,0,22.2,8.1,22.2,24.91v.2Zm.2-5h31.2c-.7-8-6.7-14.7-15.4-14.7S857.19,1697.87,856.09,1706.28Z"/><path d="M913.09,1668.77v18.6H924v5.1h-10.9v29.91c0,4.1,2.9,4.3,6.3,4.3a30.89,30.89,0,0,0,4.6-.3v5.1a61.76,61.76,0,0,1-6.8.4c-4.6,0-10.2-1.2-10.2-9.4v-30h-7.6v-5.1H907v-18.6Z"/><path d="M987.29,1687.37h6.6l-12.8,44.11h-8.3l-11.2-37.9-11.3,37.9H942l-12.4-44.11h6.8l9.8,39.11,11.9-39.11h7.2l11.8,39.11Z"/><path d="M1022.89,1686.17c12.7,0,22.9,9.81,22.9,23.31s-10.2,23.2-22.9,23.2-22.8-9.7-22.8-23.2S1010.29,1686.17,1022.89,1686.17Zm0,5.41c-9.8,0-16.6,7.79-16.6,17.9s6.8,17.9,16.6,17.9,16.7-7.8,16.7-17.9S1032.79,1691.58,1022.89,1691.58Z"/><path d="M1079.19,1692.77h-3c-7.8,0-13.4,3.6-13.4,14v24.7h-6v-44.11h5.8v7.5c2.5-5.9,8-8.3,13.3-8.3,1,0,2.1.1,3.3.2Z"/><path d="M1094.49,1704.48h5.7l17-17.11h8.2l-20.3,19.71,21.4,24.4h-8.1l-18.5-21.7h-5.4v21.7h-6.1v-70h6.1Z"/><path d="M1156.69,1731.48v-70h6.2V1726h31.2v5.5Z"/><path d="M1228.69,1701c0-6.71-5.2-9.4-11.1-9.4-5.5,0-9.9,2.29-13.6,4.79l-2.9-4.6a28.86,28.86,0,0,1,16.9-5.6c10.5,0,16.8,5.91,16.8,15v30.31h-6.1V1726c-2.5,4.4-8.5,6.7-13.8,6.7-9.6,0-16-5.6-16-13.5,0-8.1,5.8-12.9,14.9-12.9h10.6c3.1,0,4.3-1.61,4.3-4Zm0,14.8v-6.1c-1.1,1.3-3.4,1.7-5.7,1.7h-8.2c-6.5,0-9.5,3.2-9.5,7.8,0,3.8,2.9,8.3,10.3,8.3C1222.29,1727.48,1228.69,1723.78,1228.69,1715.78Z"/><path d="M1261.89,1731.48h-2.2l-16.4-44.11h6.8l13.8,39.21,14.2-39.21h6.5l-19.7,51.91c-2.4,6.3-5.1,9.7-12.6,9.7h-5.1v-5.1h5c4.4,0,5.9-2.3,7.6-6.8Z"/><path d="M1295.89,1711.28c.8,9.1,6.9,16,16.1,16,6,0,11-2.8,13.7-7.6h7.1a22.6,22.6,0,0,1-20.8,13c-12.7,0-22.4-9.7-22.4-23.2s9.7-23.31,22.3-23.31c11.5,0,22.2,8.1,22.2,24.91v.2Zm.2-5h31.2c-.7-8-6.7-14.7-15.4-14.7S1297.19,1697.87,1296.09,1706.28Z"/><path d="M1366.89,1692.77h-3c-7.8,0-13.4,3.6-13.4,14v24.7h-6v-44.11h5.8v7.5c2.5-5.9,8-8.3,13.3-8.3,1,0,2.1.1,3.3.2Z"/><rect class="cls-4" x="1742.39" y="1576.37" width="1067.16" height="247.07"/><path d="M2005.52,1661.47h6.2v70h-6.2Z"/><path d="M2059.53,1702.48c0-7.11-4.61-10.9-10.91-10.9-5.3,0-10.5,2.89-14.7,7.79v32.11h-6.1v-44.11h6v6.3a20,20,0,0,1,15.8-7.5c10.31,0,16,6.3,16,16v29.31h-6.1Z"/><path d="M2087.92,1668.77v18.6h10.9v5.1h-10.9v29.91c0,4.1,2.9,4.3,6.3,4.3a30.89,30.89,0,0,0,4.6-.3v5.1a61.76,61.76,0,0,1-6.8.4c-4.6,0-10.2-1.2-10.2-9.4v-30h-7.6v-5.1h7.6v-18.6Z"/><path d="M2110.92,1711.28c.8,9.1,6.9,16,16.1,16,6,0,11-2.8,13.7-7.6h7.1a22.6,22.6,0,0,1-20.8,13c-12.7,0-22.4-9.7-22.4-23.2s9.7-23.31,22.3-23.31c11.5,0,22.2,8.1,22.2,24.91v.2Zm.2-5h31.2c-.7-8-6.7-14.7-15.4-14.7S2112.22,1697.87,2111.12,1706.28Z"/><path d="M2181.92,1692.77h-3c-7.8,0-13.4,3.6-13.4,14v24.7h-6v-44.11h5.8v7.5c2.5-5.9,8-8.3,13.3-8.3,1,0,2.1.1,3.3.2Z"/><path d="M2222.82,1702.48c0-7.11-4.6-10.9-10.9-10.9-5.3,0-10.5,2.89-14.7,7.79v32.11h-6.1v-44.11h6v6.3a20,20,0,0,1,15.8-7.5c10.3,0,16,6.3,16,16v29.31h-6.1Z"/><path d="M2245.82,1711.28c.8,9.1,6.9,16,16.1,16,6,0,11-2.8,13.7-7.6h7.1a22.6,22.6,0,0,1-20.8,13c-12.7,0-22.4-9.7-22.4-23.2s9.7-23.31,22.3-23.31c11.5,0,22.2,8.1,22.2,24.91v.2Zm.2-5h31.2c-.7-8-6.7-14.7-15.4-14.7S2247.12,1697.87,2246,1706.28Z"/><path d="M2303,1668.77v18.6h10.9v5.1H2303v29.91c0,4.1,2.9,4.3,6.3,4.3a30.89,30.89,0,0,0,4.6-.3v5.1a61.76,61.76,0,0,1-6.8.4c-4.6,0-10.2-1.2-10.2-9.4v-30h-7.6v-5.1h7.6v-18.6Z"/><path d="M2345.12,1731.48v-70h6.2V1726h31.2v5.5Z"/><path d="M2417.12,1701c0-6.71-5.2-9.4-11.1-9.4-5.5,0-9.9,2.29-13.6,4.79l-2.9-4.6a28.86,28.86,0,0,1,16.9-5.6c10.5,0,16.8,5.91,16.8,15v30.31h-6.1V1726c-2.5,4.4-8.5,6.7-13.8,6.7-9.6,0-16-5.6-16-13.5,0-8.1,5.8-12.9,14.9-12.9h10.6c3.1,0,4.3-1.61,4.3-4Zm0,14.8v-6.1c-1.1,1.3-3.4,1.7-5.7,1.7h-8.2c-6.5,0-9.5,3.2-9.5,7.8,0,3.8,2.9,8.3,10.3,8.3C2410.72,1727.48,2417.12,1723.78,2417.12,1715.78Z"/><path d="M2450.32,1731.48h-2.2l-16.4-44.11h6.8l13.8,39.21,14.2-39.21h6.5l-19.7,51.91c-2.4,6.3-5.1,9.7-12.6,9.7h-5.1v-5.1h5c4.4,0,5.9-2.3,7.6-6.8Z"/><path d="M2484.32,1711.28c.8,9.1,6.9,16,16.1,16,6,0,11-2.8,13.7-7.6h7.1a22.6,22.6,0,0,1-20.8,13c-12.7,0-22.4-9.7-22.4-23.2s9.7-23.31,22.3-23.31c11.5,0,22.2,8.1,22.2,24.91v.2Zm.2-5h31.2c-.7-8-6.7-14.7-15.4-14.7S2485.62,1697.87,2484.52,1706.28Z"/><path d="M2555.32,1692.77h-3c-7.8,0-13.4,3.6-13.4,14v24.7h-6v-44.11h5.8v7.5c2.5-5.9,8-8.3,13.3-8.3,1,0,2.1.1,3.3.2Z"/><rect class="cls-5" x="540.06" y="1871.9" width="1067.16" height="247.07"/><path d="M793,2025h-17.8v-70H793c24,0,36.81,14.2,36.81,35S817,2025,793,2025Zm-.1-64.5h-11.5v59.1h11.5c18.5,0,30.6-10,30.6-29.6S811.39,1960.5,792.89,1960.5Z"/><path d="M866.79,1994.5c0-6.7-5.2-9.4-11.1-9.4-5.5,0-9.9,2.3-13.6,4.8l-2.9-4.6a28.86,28.86,0,0,1,16.9-5.6c10.5,0,16.8,5.9,16.8,15V2025h-6.1v-5.5c-2.5,4.4-8.5,6.7-13.8,6.7-9.6,0-16-5.6-16-13.5,0-8.1,5.8-12.9,14.9-12.9h10.6c3.1,0,4.3-1.6,4.3-4Zm0,14.8v-6.1c-1.1,1.3-3.4,1.7-5.7,1.7h-8.2c-6.5,0-9.5,3.2-9.5,7.8,0,3.8,2.9,8.3,10.3,8.3C860.39,2021,866.79,2017.3,866.79,2009.3Z"/><path d="M895.19,1962.3v18.6h10.9v5.1h-10.9v29.9c0,4.1,2.9,4.3,6.3,4.3a30.89,30.89,0,0,0,4.6-.3v5.1a61.76,61.76,0,0,1-6.8.4c-4.6,0-10.2-1.2-10.2-9.4v-30h-7.6v-5.1h7.6v-18.6Z"/><path d="M941.49,1994.5c0-6.7-5.2-9.4-11.1-9.4-5.5,0-9.9,2.3-13.6,4.8l-2.9-4.6a28.86,28.86,0,0,1,16.9-5.6c10.5,0,16.8,5.9,16.8,15V2025h-6.1v-5.5c-2.5,4.4-8.5,6.7-13.8,6.7-9.6,0-16-5.6-16-13.5,0-8.1,5.8-12.9,14.9-12.9h10.6c3.1,0,4.3-1.6,4.3-4Zm0,14.8v-6.1c-1.1,1.3-3.4,1.7-5.7,1.7h-8.2c-6.5,0-9.5,3.2-9.5,7.8,0,3.8,2.9,8.3,10.3,8.3C935.09,2021,941.49,2017.3,941.49,2009.3Z"/><path d="M983.19,2025v-70h6.2v64.5h31.2v5.5Z"/><path d="M1036.79,2025h-6.1v-39h-7v-5.1h13.1Zm-3.5-65.4a5.3,5.3,0,1,1-5.3,5.3A5.34,5.34,0,0,1,1033.29,1959.6Z"/><path d="M1082.69,1996c0-7.1-4.6-10.9-10.9-10.9-5.3,0-10.5,2.9-14.7,7.8V2025H1051v-44.1h6v6.3a20,20,0,0,1,15.8-7.5c10.3,0,16,6.3,16,16V2025h-6.1Z"/><path d="M1108.59,1998h5.7l17-17.1h8.2l-20.3,19.7,21.4,24.4h-8.1l-18.5-21.7h-5.4V2025h-6.1v-70h6.1Z"/><path d="M1170.79,2025v-70h6.2v64.5h31.2v5.5Z"/><path d="M1242.79,1994.5c0-6.7-5.2-9.4-11.1-9.4-5.5,0-9.9,2.3-13.6,4.8l-2.9-4.6a28.86,28.86,0,0,1,16.9-5.6c10.5,0,16.8,5.9,16.8,15V2025h-6.1v-5.5c-2.5,4.4-8.5,6.7-13.8,6.7-9.6,0-16-5.6-16-13.5,0-8.1,5.8-12.9,14.9-12.9h10.6c3.1,0,4.3-1.6,4.3-4Zm0,14.8v-6.1c-1.1,1.3-3.4,1.7-5.7,1.7h-8.2c-6.5,0-9.5,3.2-9.5,7.8,0,3.8,2.9,8.3,10.3,8.3C1236.39,2021,1242.79,2017.3,1242.79,2009.3Z"/><path d="M1276,2025h-2.2l-16.4-44.1h6.8l13.8,39.2,14.2-39.2h6.5l-19.7,51.9c-2.4,6.3-5.1,9.7-12.6,9.7h-5.1v-5.1h5c4.4,0,5.9-2.3,7.6-6.8Z"/><path d="M1310,2004.8c.8,9.1,6.9,16,16.1,16,6,0,11-2.8,13.7-7.6h7.1a22.6,22.6,0,0,1-20.8,13c-12.7,0-22.4-9.7-22.4-23.2s9.7-23.3,22.3-23.3c11.5,0,22.2,8.1,22.2,24.9v.2Zm.2-5h31.2c-.7-8-6.7-14.7-15.4-14.7S1311.29,1991.4,1310.19,1999.8Z"/><path d="M1381,1986.3h-3c-7.8,0-13.4,3.6-13.4,14V2025h-6v-44.1h5.8v7.5c2.5-5.9,8-8.3,13.3-8.3,1,0,2.1.1,3.3.2Z"/><rect class="cls-5" x="540.06" y="2170.13" width="1067.16" height="247.07"/><path d="M805.59,2323.24h-6.2v-70H818c16,0,24,9.5,24,21.2s-8,21.6-24,21.6h-12.4Zm0-64.51v31.8h13.1c9.2,0,17-5.6,17-16.1s-7.8-15.7-17-15.7Z"/><path d="M883.79,2294.23c0-7.1-4.6-10.9-10.9-10.9-5.3,0-10.5,2.9-14.7,7.8v32.11h-6.1v-70h6v32.2a20,20,0,0,1,15.8-7.5c10.3,0,16,6.3,16,16v29.31h-6.1Z"/><path d="M917,2323.24h-2.2l-16.4-44.11h6.8l13.8,39.2,14.2-39.2h6.5L920,2331c-2.4,6.3-5.1,9.7-12.6,9.7h-5.1v-5.1h5c4.4,0,5.9-2.3,7.6-6.8Z"/><path d="M969.59,2311.54c0-4.41-3.6-6.31-9.9-8.61l-2.5-.9c-6.7-2.4-11.2-5.8-11.2-12.2,0-7.3,6.5-11.9,15.1-11.9a22.49,22.49,0,0,1,14.3,5.1l-3.3,4.6c-3.1-2.5-7.7-4.4-11.2-4.4-4.9,0-8.6,2.5-8.6,6.3,0,2.8,2,5,6.5,6.7l5.1,1.9c8.5,3.3,12,7,12,13.5,0,5.7-4.9,12.81-16.2,12.81a26.34,26.34,0,0,1-15.5-5.5l3.2-4.61a21,21,0,0,0,12.5,4.71C965.89,2319,969.59,2315.63,969.59,2311.54Z"/><path d="M994.49,2323.24h-6.1v-39h-7v-5.1h13.1Zm-3.5-65.41a5.3,5.3,0,1,1-5.3,5.3A5.34,5.34,0,0,1,991,2257.83Z"/><path d="M1028.29,2319.14a15.77,15.77,0,0,0,14.5-8.91l5.2,3a22.32,22.32,0,0,1-19.7,11.2c-12.7,0-22.8-9.7-22.8-23.21s10.1-23.3,22.8-23.3a22.32,22.32,0,0,1,19.7,11.2l-5.2,3a15.85,15.85,0,0,0-14.5-8.8c-9.8,0-16.6,7.8-16.6,17.9S1018.49,2319.14,1028.29,2319.14Z"/><path d="M1084.59,2292.73c0-6.7-5.2-9.4-11.1-9.4-5.5,0-9.9,2.3-13.6,4.8l-2.9-4.6a28.86,28.86,0,0,1,16.9-5.6c10.5,0,16.8,5.9,16.8,15v30.31h-6.1v-5.5c-2.5,4.4-8.5,6.7-13.8,6.7-9.6,0-16-5.61-16-13.51,0-8.1,5.8-12.9,14.9-12.9h10.6c3.1,0,4.3-1.6,4.3-4Zm0,14.8v-6.1c-1.1,1.3-3.4,1.7-5.7,1.7h-8.2c-6.5,0-9.5,3.2-9.5,7.8,0,3.81,2.9,8.31,10.3,8.31C1078.19,2319.24,1084.59,2315.54,1084.59,2307.53Z"/><path d="M1110.49,2323.24h-6.1v-70h6.1Z"/><path d="M1146.59,2323.24v-70h6.2v64.51H1184v5.5Z"/><path d="M1218.59,2292.73c0-6.7-5.2-9.4-11.1-9.4-5.5,0-9.9,2.3-13.6,4.8l-2.9-4.6a28.86,28.86,0,0,1,16.9-5.6c10.5,0,16.8,5.9,16.8,15v30.31h-6.1v-5.5c-2.5,4.4-8.5,6.7-13.8,6.7-9.6,0-16-5.61-16-13.51,0-8.1,5.8-12.9,14.9-12.9h10.6c3.1,0,4.3-1.6,4.3-4Zm0,14.8v-6.1c-1.1,1.3-3.4,1.7-5.7,1.7h-8.2c-6.5,0-9.5,3.2-9.5,7.8,0,3.81,2.9,8.31,10.3,8.31C1212.19,2319.24,1218.59,2315.54,1218.59,2307.53Z"/><path d="M1251.79,2323.24h-2.2l-16.4-44.11h6.8l13.8,39.2,14.2-39.2h6.5l-19.7,51.91c-2.4,6.3-5.1,9.7-12.6,9.7h-5.1v-5.1h5c4.4,0,5.9-2.3,7.6-6.8Z"/><path d="M1285.79,2303c.8,9.1,6.9,16,16.1,16,6,0,11-2.8,13.7-7.61h7.1a22.59,22.59,0,0,1-20.8,13c-12.7,0-22.4-9.7-22.4-23.21s9.7-23.3,22.3-23.3c11.5,0,22.2,8.1,22.2,24.9v.2Zm.2-5h31.2c-.7-8-6.7-14.7-15.4-14.7S1287.09,2289.63,1286,2298Z"/><path d="M1356.79,2284.53h-3c-7.8,0-13.4,3.6-13.4,14v24.71h-6v-44.11h5.8v7.5c2.5-5.9,8-8.3,13.3-8.3,1,0,2.1.1,3.3.2Z"/><rect class="cls-5" x="1744.66" y="1871.9" width="1067.16" height="546.15"/><path d="M1966.75,2121.37h-5.9v-70h8.6l33.7,61v-61h5.9v70h-7.7l-34.6-62.3Z"/><path d="M2027.45,2101.17c.8,9.1,6.9,16,16.1,16,6,0,11-2.8,13.7-7.6h7.1a22.6,22.6,0,0,1-20.8,13c-12.7,0-22.4-9.7-22.4-23.2s9.7-23.3,22.3-23.3c11.5,0,22.2,8.1,22.2,24.9v.2Zm.2-5h31.2c-.7-8-6.7-14.7-15.4-14.7S2028.75,2087.77,2027.65,2096.17Z"/><path d="M2084.65,2058.67v18.6h10.9v5.1h-10.9v29.9c0,4.1,2.9,4.3,6.3,4.3a30.89,30.89,0,0,0,4.6-.3v5.1a61.76,61.76,0,0,1-6.8.4c-4.6,0-10.21-1.2-10.21-9.4v-30h-7.6v-5.1h7.6v-18.6Z"/><path d="M2158.85,2077.27h6.6l-12.8,44.1h-8.3l-11.2-37.9-11.3,37.9h-8.31l-12.4-44.1h6.8l9.8,39.1,11.91-39.1h7.2l11.8,39.1Z"/><path d="M2194.45,2076.07c12.7,0,22.9,9.8,22.9,23.3s-10.2,23.2-22.9,23.2-22.81-9.7-22.81-23.2S2181.84,2076.07,2194.45,2076.07Zm0,5.4c-9.81,0-16.61,7.8-16.61,17.9s6.8,17.9,16.61,17.9,16.7-7.8,16.7-17.9S2204.35,2081.47,2194.45,2081.47Z"/><path d="M2250.74,2082.67h-3c-7.8,0-13.4,3.6-13.4,14v24.7h-6v-44.1h5.8v7.5c2.5-5.9,8-8.3,13.3-8.3,1,0,2.1.1,3.3.2Z"/><path d="M2266,2094.37h5.7l17-17.1h8.2l-20.3,19.7,21.4,24.4h-8.1l-18.5-21.7H2266v21.7h-6.1v-70h6.1Z"/><path d="M2334,2096.67l-8.2,24.7h-6.4l24.1-70h7.7l24.21,70h-6.71l-8.4-24.7Zm1.7-5.4h22.8l-11.2-33.8h-.3Z"/><path d="M2403.74,2117.27a15.77,15.77,0,0,0,14.5-8.9l5.21,3a22.35,22.35,0,0,1-19.71,11.2c-12.7,0-22.8-9.7-22.8-23.2s10.1-23.3,22.8-23.3a22.35,22.35,0,0,1,19.71,11.2l-5.21,3a15.85,15.85,0,0,0-14.5-8.8c-9.8,0-16.6,7.8-16.6,17.9S2393.94,2117.27,2403.74,2117.27Z"/><path d="M2453,2117.27a15.77,15.77,0,0,0,14.5-8.9l5.2,3a22.32,22.32,0,0,1-19.7,11.2c-12.7,0-22.8-9.7-22.8-23.2s10.1-23.3,22.8-23.3a22.32,22.32,0,0,1,19.7,11.2l-5.2,3a15.85,15.85,0,0,0-14.5-8.8c-9.8,0-16.6,7.8-16.6,17.9S2443.24,2117.27,2453,2117.27Z"/><path d="M2485.94,2101.17c.8,9.1,6.9,16,16.1,16,6,0,11-2.8,13.7-7.6h7.1a22.6,22.6,0,0,1-20.8,13c-12.7,0-22.4-9.7-22.4-23.2s9.7-23.3,22.3-23.3c11.5,0,22.2,8.1,22.2,24.9v.2Zm.2-5h31.2c-.7-8-6.7-14.7-15.4-14.7S2487.24,2087.77,2486.14,2096.17Z"/><path d="M2555.94,2109.67c0-4.4-3.6-6.3-9.9-8.6l-2.5-.9c-6.7-2.4-11.2-5.8-11.2-12.2,0-7.3,6.5-11.9,15.1-11.9a22.49,22.49,0,0,1,14.3,5.1l-3.3,4.6c-3.1-2.5-7.7-4.4-11.2-4.4-4.9,0-8.6,2.5-8.6,6.3,0,2.8,2,5,6.5,6.7l5.1,1.9c8.5,3.3,12,7,12,13.5,0,5.7-4.9,12.8-16.2,12.8a26.34,26.34,0,0,1-15.5-5.5l3.2-4.6a21.09,21.09,0,0,0,12.5,4.7C2552.24,2117.17,2555.94,2113.77,2555.94,2109.67Z"/><path d="M2594.54,2109.67c0-4.4-3.6-6.3-9.9-8.6l-2.5-.9c-6.7-2.4-11.2-5.8-11.2-12.2,0-7.3,6.5-11.9,15.1-11.9a22.49,22.49,0,0,1,14.3,5.1l-3.3,4.6c-3.1-2.5-7.7-4.4-11.2-4.4-4.9,0-8.6,2.5-8.6,6.3,0,2.8,2,5,6.5,6.7l5.1,1.9c8.5,3.3,12,7,12,13.5,0,5.7-4.9,12.8-16.2,12.8a26.34,26.34,0,0,1-15.5-5.5l3.2-4.6a21.09,21.09,0,0,0,12.5,4.7C2590.84,2117.17,2594.54,2113.77,2594.54,2109.67Z"/><path d="M2177.59,2241.37v-70h6.2v64.5H2215v5.5Z"/><path d="M2249.59,2210.87c0-6.7-5.2-9.4-11.1-9.4-5.5,0-9.9,2.3-13.6,4.8l-2.9-4.6a28.86,28.86,0,0,1,16.9-5.6c10.5,0,16.8,5.9,16.8,15v30.3h-6.1v-5.5c-2.5,4.4-8.5,6.7-13.8,6.7-9.6,0-16-5.6-16-13.5,0-8.1,5.8-12.9,14.9-12.9h10.6c3.1,0,4.3-1.6,4.3-4Zm0,14.8v-6.1c-1.1,1.3-3.4,1.7-5.7,1.7h-8.2c-6.5,0-9.5,3.2-9.5,7.8,0,3.8,2.9,8.3,10.3,8.3C2243.19,2237.37,2249.59,2233.67,2249.59,2225.67Z"/><path d="M2282.79,2241.37h-2.2l-16.4-44.1h6.8l13.8,39.2,14.2-39.2h6.5l-19.7,51.9c-2.4,6.3-5.1,9.7-12.6,9.7h-5.1v-5.1h5c4.4,0,5.9-2.3,7.6-6.8Z"/><path d="M2316.79,2221.17c.8,9.1,6.9,16,16.1,16,6,0,11-2.8,13.7-7.6h7.11a22.62,22.62,0,0,1-20.81,13c-12.7,0-22.4-9.7-22.4-23.2s9.7-23.3,22.3-23.3c11.5,0,22.2,8.1,22.2,24.9v.2Zm.2-5h31.21c-.71-8-6.71-14.7-15.41-14.7S2318.09,2207.77,2317,2216.17Z"/><path d="M2387.79,2202.67h-3c-7.8,0-13.4,3.6-13.4,14v24.7h-6v-44.1h5.8v7.5c2.5-5.9,8-8.3,13.3-8.3,1,0,2.1.1,3.3.2Z"/><rect class="cls-2" x="1740.92" y="389.58" width="1067.16" height="847.43"/><path d="M1938.26,783.09l-8.2,24.7h-6.4l24.1-70h7.7l24.2,70H1973l-8.4-24.7Zm1.7-5.4h22.8l-11.2-33.8h-.3Z"/><path d="M1995.56,799.49v25.8h-6.1v-61.6h6.1v8.6c2.6-5.5,9.4-9.8,17-9.8,12.6,0,22.2,9.8,22.2,23.3s-9.7,23.2-22.4,23.2C2004.86,809,1998.26,804.89,1995.56,799.49Zm16.4-31.6c-9.8,0-16.7,7.8-16.7,17.9s6.9,17.9,16.7,17.9,16.6-7.8,16.6-17.9S2021.76,767.89,2012,767.89Z"/><path d="M2052,799.49v25.8h-6.1v-61.6h6.1v8.6c2.6-5.5,9.4-9.8,17-9.8,12.6,0,22.2,9.8,22.2,23.3s-9.7,23.2-22.4,23.2C2061.26,809,2054.66,804.89,2052,799.49Zm16.4-31.6c-9.8,0-16.7,7.8-16.7,17.9s6.9,17.9,16.7,17.9,16.6-7.8,16.6-17.9S2078.16,767.89,2068.36,767.89Z"/><path d="M2108.35,807.79h-6.1v-70h6.1Z"/><path d="M2130.25,807.79h-6.1v-39h-7v-5.1h13.1Zm-3.5-65.4a5.3,5.3,0,1,1-5.3,5.3A5.34,5.34,0,0,1,2126.75,742.39Z"/><path d="M2164.05,803.69a15.77,15.77,0,0,0,14.5-8.9l5.21,3a22.35,22.35,0,0,1-19.71,11.2c-12.7,0-22.8-9.7-22.8-23.2s10.1-23.3,22.8-23.3a22.35,22.35,0,0,1,19.71,11.2l-5.21,3a15.85,15.85,0,0,0-14.5-8.8c-9.8,0-16.6,7.8-16.6,17.9S2154.25,803.69,2164.05,803.69Z"/><path d="M2220.35,777.29c0-6.7-5.2-9.4-11.1-9.4-5.5,0-9.9,2.3-13.6,4.8l-2.9-4.6a28.86,28.86,0,0,1,16.9-5.6c10.5,0,16.8,5.9,16.8,15v30.3h-6.1v-5.5c-2.5,4.4-8.5,6.7-13.8,6.7-9.6,0-16-5.6-16-13.5,0-8.1,5.8-12.9,14.9-12.9h10.6c3.1,0,4.3-1.6,4.3-4Zm0,14.8V786c-1.1,1.3-3.4,1.7-5.7,1.7h-8.2c-6.5,0-9.5,3.2-9.5,7.8,0,3.8,2.9,8.3,10.3,8.3C2214,803.79,2220.35,800.09,2220.35,792.09Z"/><path d="M2248.75,745.09v18.6h10.9v5.1h-10.9v29.9c0,4.1,2.9,4.3,6.3,4.3a30.89,30.89,0,0,0,4.6-.3v5.1a61.76,61.76,0,0,1-6.8.4c-4.6,0-10.2-1.2-10.2-9.4v-30h-7.6v-5.1h7.6v-18.6Z"/><path d="M2276.65,807.79h-6.1v-39h-7v-5.1h13.1Zm-3.5-65.4a5.3,5.3,0,1,1-5.3,5.3A5.34,5.34,0,0,1,2273.15,742.39Z"/><path d="M2310.45,762.49c12.7,0,22.9,9.8,22.9,23.3s-10.2,23.2-22.9,23.2-22.8-9.7-22.8-23.2S2297.85,762.49,2310.45,762.49Zm0,5.4c-9.8,0-16.6,7.8-16.6,17.9s6.8,17.9,16.6,17.9,16.7-7.8,16.7-17.9S2320.35,767.89,2310.45,767.89Z"/><path d="M2376.05,778.79c0-7.1-4.6-10.9-10.9-10.9-5.3,0-10.5,2.9-14.7,7.8v32.1h-6.1v-44.1h6V770a20,20,0,0,1,15.8-7.5c10.3,0,16,6.3,16,16v29.3h-6.1Z"/><path d="M2417.75,807.79v-70h6.2v64.5h31.2v5.5Z"/><path d="M2489.75,777.29c0-6.7-5.2-9.4-11.1-9.4-5.5,0-9.9,2.3-13.6,4.8l-2.9-4.6a28.86,28.86,0,0,1,16.9-5.6c10.5,0,16.8,5.9,16.8,15v30.3h-6.1v-5.5c-2.5,4.4-8.5,6.7-13.8,6.7-9.6,0-16-5.6-16-13.5,0-8.1,5.8-12.9,14.9-12.9h10.6c3.1,0,4.3-1.6,4.3-4Zm0,14.8V786c-1.1,1.3-3.4,1.7-5.7,1.7h-8.2c-6.5,0-9.5,3.2-9.5,7.8,0,3.8,2.9,8.3,10.3,8.3C2483.35,803.79,2489.75,800.09,2489.75,792.09Z"/><path d="M2523,807.79h-2.2l-16.4-44.1h6.8l13.8,39.2,14.2-39.2h6.5l-19.7,51.9c-2.4,6.3-5.1,9.7-12.6,9.7h-5.1v-5.1h5c4.4,0,5.9-2.3,7.6-6.8Z"/><path d="M2557,787.59c.8,9.1,6.9,16,16.1,16,6,0,11-2.8,13.7-7.6h7.1a22.6,22.6,0,0,1-20.8,13c-12.7,0-22.4-9.7-22.4-23.2s9.7-23.3,22.3-23.3c11.5,0,22.2,8.1,22.2,24.9v.2Zm.2-5h31.2c-.7-8-6.7-14.7-15.4-14.7S2558.25,774.19,2557.15,782.59Z"/><path d="M2628,769.09h-3c-7.8,0-13.4,3.6-13.4,14v24.7h-6v-44.1h5.8v7.5c2.5-5.9,8-8.3,13.3-8.3,1,0,2.1.1,3.3.2Z"/></svg>