<?xml version="1.0" encoding="UTF-8"?>
<svg xmlns="http://www.w3.org/2000/svg" viewBox="0 0 640 420">
  <defs>
    <style>
      .cls-1 {
        fill: #008a27;
      }

      .cls-2 {
        fill: #fff;
      }

      .cls-3 {
        fill: #fff5ff;
      }

      .cls-4 {
        fill: #fffae5;
      }

      .cls-5 {
        fill: #e91c11;
      }

      .cls-6 {
        fill: #10162f;
      }

      .cls-7 {
        fill: #3a10e5;
      }
    </style>
  </defs>
  <g id="Layer_1" data-name="Layer 1">
    <g>
      <rect class="cls-4" x=".5" y=".5" width="639" height="419"/>
      <path class="cls-6" d="M639,1V419H1V1H639M640,0H0V420H640V0h0Z"/>
    </g>
  </g>
  <g id="Layer_2" data-name="Layer 2">
    <g>
      <rect class="cls-3" x="40" y="40" width="560" height="340"/>
      <path class="cls-6" d="M600.5,380.5H39.5V39.5H600.5V380.5Zm-560-1H599.5V40.5H40.5V379.5Z"/>
    </g>
  </g>
  <g id="Layer_3" data-name="Layer 3">
    <g>
      <rect class="cls-3" x="186.22" y="182.48" width="11.64" height="11.64" transform="translate(3.75 380.34) rotate(-90)"/>
      <path class="cls-6" d="M198.36,194.62h-12.64v-12.64h12.64v12.64Zm-11.64-1h10.64v-10.64h-10.64v10.64Z"/>
    </g>
    <g>
      <rect class="cls-3" x="221.71" y="147.29" width="11.64" height="11.64" transform="translate(74.41 380.64) rotate(-90)"/>
      <path class="cls-6" d="M233.85,159.44h-12.64v-12.64h12.64v12.64Zm-11.64-1h10.64v-10.64h-10.64v10.64Z"/>
    </g>
    <g>
      <rect class="cls-3" x="151.13" y="147.29" width="11.64" height="11.64" transform="translate(3.83 310.06) rotate(-90)"/>
      <path class="cls-6" d="M163.27,159.44h-12.64v-12.64h12.64v12.64Zm-11.64-1h10.64v-10.64h-10.64v10.64Z"/>
    </g>
    <g>
      <rect class="cls-3" x="186.22" y="111.84" width="11.64" height="11.64" transform="translate(74.38 309.7) rotate(-90)"/>
      <path class="cls-6" d="M198.36,123.98h-12.64v-12.64h12.64v12.64Zm-11.64-1h10.64v-10.64h-10.64v10.64Z"/>
    </g>
    <g>
      <rect class="cls-3" x="174.85" y="73.64" width="11.64" height="11.64" transform="translate(101.21 260.12) rotate(-90)"/>
      <path class="cls-6" d="M186.99,85.78h-12.64v-12.64h12.64v12.64Zm-11.64-1h10.64v-10.64h-10.64v10.64Z"/>
    </g>
    <g>
      <rect class="cls-3" x="205.92" y="73.64" width="11.64" height="11.64" transform="translate(132.28 291.19) rotate(-90)"/>
      <path class="cls-6" d="M218.06,85.78h-12.64v-12.64h12.64v12.64Zm-11.64-1h10.64v-10.64h-10.64v10.64Z"/>
    </g>
    <g>
      <rect class="cls-3" x="280.64" y="73.64" width="11.64" height="11.64" transform="translate(207 365.91) rotate(-90)"/>
      <path class="cls-6" d="M292.78,85.78h-12.64v-12.64h12.64v12.64Zm-11.64-1h10.64v-10.64h-10.64v10.64Z"/>
    </g>
    <g>
      <rect class="cls-3" x="311.71" y="73.64" width="11.64" height="11.64" transform="translate(238.07 396.98) rotate(-90)"/>
      <path class="cls-6" d="M323.85,85.78h-12.64v-12.64h12.64v12.64Zm-11.64-1h10.64v-10.64h-10.64v10.64Z"/>
    </g>
    <g>
      <rect class="cls-3" x="386.43" y="73.64" width="11.64" height="11.64" transform="translate(312.79 471.7) rotate(-90)"/>
      <path class="cls-6" d="M398.57,85.78h-12.64v-12.64h12.64v12.64Zm-11.64-1h10.64v-10.64h-10.64v10.64Z"/>
    </g>
    <g>
      <rect class="cls-3" x="417.5" y="73.64" width="11.64" height="11.64" transform="translate(343.86 502.77) rotate(-90)"/>
      <path class="cls-6" d="M429.64,85.78h-12.64v-12.64h12.64v12.64Zm-11.64-1h10.64v-10.64h-10.64v10.64Z"/>
    </g>
    <g>
      <rect class="cls-3" x="492.22" y="73.64" width="11.64" height="11.64" transform="translate(418.58 577.49) rotate(-90)"/>
      <path class="cls-6" d="M504.36,85.78h-12.64v-12.64h12.64v12.64Zm-11.64-1h10.64v-10.64h-10.64v10.64Z"/>
    </g>
    <g>
      <rect class="cls-3" x="523.29" y="73.64" width="11.64" height="11.64" transform="translate(449.65 608.56) rotate(-90)"/>
      <path class="cls-6" d="M535.43,85.78h-12.64v-12.64h12.64v12.64Zm-11.64-1h10.64v-10.64h-10.64v10.64Z"/>
    </g>
    <g>
      <rect class="cls-3" x="83.05" y="288.05" width="12.75" height="12.75" transform="translate(-205 383.85) rotate(-90)"/>
      <path class="cls-6" d="M96.29,301.3h-13.75v-13.75h13.75v13.75Zm-12.75-1h11.75v-11.75h-11.75v11.75Z"/>
    </g>
    <g>
      <rect class="cls-3" x="83.05" y="308.69" width="12.75" height="12.75" transform="translate(-225.64 404.48) rotate(-90)"/>
      <path class="cls-6" d="M96.29,321.94h-13.75v-13.75h13.75v13.75Zm-12.75-1h11.75v-11.75h-11.75v11.75Z"/>
    </g>
    <g>
      <rect class="cls-3" x="83.05" y="329.33" width="12.75" height="12.75" transform="translate(-246.28 425.12) rotate(-90)"/>
      <path class="cls-6" d="M96.29,342.58h-13.75v-13.75h13.75v13.75Zm-12.75-1h11.75v-11.75h-11.75v11.75Z"/>
    </g>
    <g>
      <rect class="cls-3" x="83.05" y="349.97" width="12.75" height="12.75" transform="translate(-266.92 445.76) rotate(-90)"/>
      <path class="cls-6" d="M96.29,363.21h-13.75v-13.75h13.75v13.75Zm-12.75-1h11.75v-11.75h-11.75v11.75Z"/>
    </g>
    <g>
      <rect class="cls-3" x="53.31" y="54.33" width="22.21" height="143.19"/>
      <path class="cls-6" d="M76.03,198.02h-23.21V53.83h23.21V198.02Zm-22.21-1h21.21V54.83h-21.21V197.02Z"/>
    </g>
    <g>
      <rect class="cls-3" x="53.31" y="284.64" width="22.21" height="82.45"/>
      <path class="cls-6" d="M76.03,367.58h-23.21v-83.45h23.21v83.45Zm-22.21-1h21.21v-81.45h-21.21v81.45Z"/>
    </g>
    <g>
      <rect class="cls-3" x="40" y="240.68" width="4.99" height="43.95"/>
      <path class="cls-6" d="M45.49,285.14h-5.99v-44.96h5.99v44.96Zm-4.99-1h3.99v-42.96h-3.99v42.96Z"/>
    </g>
    <g>
      <rect class="cls-3" x="40" y="197.52" width="4.99" height="43.95"/>
      <path class="cls-6" d="M45.49,241.98h-5.99v-44.96h5.99v44.96Zm-4.99-1h3.99v-42.96h-3.99v42.96Z"/>
    </g>
    <g>
      <rect class="cls-3" x="210.77" y="276.66" width="22.02" height="103.34"/>
      <path class="cls-6" d="M233.3,380.5h-23.02v-104.34h23.02v104.34Zm-22.02-1h21.02v-102.34h-21.02v102.34Z"/>
    </g>
    <g>
      <rect class="cls-3" x="352.88" y="128.64" width="32.91" height="317.12" transform="translate(656.53 -82.13) rotate(90)"/>
      <path class="cls-6" d="M528.39,304.15H210.27v-33.91h318.12v33.91Zm-317.12-1h316.12v-31.91H211.27v31.91Z"/>
    </g>
    <g>
      <rect class="cls-3" x="265.83" y="266.58" width="12.75" height="42.45" transform="translate(-15.6 560) rotate(-90)"/>
      <path class="cls-6" d="M293.93,294.67h-43.45v-13.75h43.45v13.75Zm-42.45-1h41.45v-11.75h-41.45v11.75Z"/>
    </g>
    <g>
      <rect class="cls-7" x="400.54" y="269.65" width="24" height="36" transform="translate(124.89 700.19) rotate(-90)"/>
      <path class="cls-6" d="M431.04,300.15h-37v-25h37v25Zm-36-1h35v-23h-35v23Z"/>
    </g>
    <g>
      <rect class="cls-7" x="397.88" y="183.7" width="30" height="304" transform="translate(77.18 748.59) rotate(-90)"/>
      <path class="cls-6" d="M565.38,351.2H260.38v-31h305v31Zm-304-1h303v-29H261.38v29Z"/>
    </g>
    <g>
      <rect class="cls-3" x="446.7" y="278.24" width="18.55" height="19.63" transform="translate(167.92 744.03) rotate(-90)"/>
      <path class="cls-6" d="M466.29,297.83h-20.63v-19.55h20.63v19.55Zm-19.63-1h18.63v-17.55h-18.63v17.55Z"/>
    </g>
    <g>
      <rect class="cls-3" x="486.67" y="278.24" width="18.55" height="19.63" transform="translate(207.89 783.99) rotate(-90)"/>
      <path class="cls-6" d="M506.26,297.83h-20.63v-19.55h20.63v19.55Zm-19.63-1h18.63v-17.55h-18.63v17.55Z"/>
    </g>
    <g>
      <circle class="cls-3" cx="285.22" cy="287.97" r="3.58"/>
      <path class="cls-6" d="M285.22,292.05c-2.25,0-4.08-1.83-4.08-4.08s1.83-4.08,4.08-4.08,4.08,1.83,4.08,4.08-1.83,4.08-4.08,4.08Zm0-7.15c-1.7,0-3.08,1.38-3.08,3.08s1.38,3.08,3.08,3.08,3.08-1.38,3.08-3.08-1.38-3.08-3.08-3.08Z"/>
    </g>
    <g>
      <circle class="cls-3" cx="272.37" cy="287.97" r="3.58"/>
      <path class="cls-6" d="M272.37,292.05c-2.25,0-4.08-1.83-4.08-4.08s1.83-4.08,4.08-4.08,4.08,1.83,4.08,4.08-1.83,4.08-4.08,4.08Zm0-7.15c-1.7,0-3.08,1.38-3.08,3.08s1.38,3.08,3.08,3.08,3.08-1.38,3.08-3.08-1.38-3.08-3.08-3.08Z"/>
    </g>
    <g>
      <circle class="cls-3" cx="259.51" cy="287.97" r="3.58"/>
      <path class="cls-6" d="M259.51,292.05c-2.25,0-4.08-1.83-4.08-4.08s1.83-4.08,4.08-4.08,4.08,1.83,4.08,4.08-1.83,4.08-4.08,4.08Zm0-7.15c-1.7,0-3.08,1.38-3.08,3.08s1.38,3.08,3.08,3.08,3.08-1.38,3.08-3.08-1.38-3.08-3.08-3.08Z"/>
    </g>
    <g>
      <rect class="cls-3" x="332.61" y="266.58" width="12.75" height="42.45" transform="translate(51.19 626.79) rotate(-90)"/>
      <path class="cls-6" d="M360.71,294.67h-43.45v-13.75h43.45v13.75Zm-42.45-1h41.45v-11.75h-41.45v11.75Z"/>
    </g>
    <g>
      <circle class="cls-3" cx="517.17" cy="288.22" r="5.05"/>
      <path class="cls-6" d="M517.17,293.77c-1.42,0-2.84-.54-3.92-1.62-2.16-2.16-2.16-5.68,0-7.85,2.16-2.16,5.68-2.16,7.84,0h0c2.16,2.16,2.16,5.68,0,7.85-1.08,1.08-2.5,1.62-3.92,1.62Zm0-10.09c-1.16,0-2.33,.44-3.21,1.33-1.77,1.77-1.77,4.66,0,6.43s4.66,1.77,6.43,0c1.77-1.77,1.77-4.66,0-6.43-.89-.89-2.05-1.33-3.22-1.33Z"/>
    </g>
    <g>
      <circle class="cls-3" cx="474.41" cy="288.22" r="5.05"/>
      <path class="cls-6" d="M474.41,293.77c-1.42,0-2.84-.54-3.92-1.62-2.16-2.16-2.16-5.68,0-7.85,2.16-2.16,5.68-2.16,7.84,0s2.16,5.68,0,7.85c-1.08,1.08-2.5,1.62-3.92,1.62Zm0-10.09c-1.17,0-2.33,.44-3.22,1.33-1.77,1.77-1.77,4.66,0,6.43,1.77,1.77,4.66,1.77,6.43,0s1.77-4.66,0-6.43c-.89-.89-2.05-1.33-3.21-1.33Z"/>
    </g>
    <g>
      <circle class="cls-3" cx="339.15" cy="287.97" r="3.58"/>
      <path class="cls-6" d="M339.15,292.05c-2.25,0-4.08-1.83-4.08-4.08s1.83-4.08,4.08-4.08,4.08,1.83,4.08,4.08-1.83,4.08-4.08,4.08Zm0-7.15c-1.7,0-3.08,1.38-3.08,3.08s1.38,3.08,3.08,3.08,3.08-1.38,3.08-3.08-1.38-3.08-3.08-3.08Z"/>
    </g>
    <g>
      <circle class="cls-3" cx="351.47" cy="287.97" r="3.58"/>
      <path class="cls-6" d="M351.47,292.05c-2.25,0-4.08-1.83-4.08-4.08s1.83-4.08,4.08-4.08,4.08,1.83,4.08,4.08-1.83,4.08-4.08,4.08Zm0-7.15c-1.7,0-3.08,1.38-3.08,3.08s1.38,3.08,3.08,3.08,3.08-1.38,3.08-3.08-1.38-3.08-3.08-3.08Z"/>
    </g>
    <g>
      <circle class="cls-3" cx="326.5" cy="287.97" r="3.58"/>
      <path class="cls-6" d="M326.5,292.05c-2.25,0-4.08-1.83-4.08-4.08s1.83-4.08,4.08-4.08,4.08,1.83,4.08,4.08-1.83,4.08-4.08,4.08Zm0-7.15c-1.7,0-3.08,1.38-3.08,3.08s1.38,3.08,3.08,3.08,3.08-1.38,3.08-3.08-1.38-3.08-3.08-3.08Z"/>
    </g>
    <g>
      <circle class="cls-3" cx="192.32" cy="153.11" r="25.63"/>
      <path class="cls-6" d="M192.32,179.24c-14.41,0-26.13-11.72-26.13-26.13s11.72-26.13,26.13-26.13,26.13,11.72,26.13,26.13-11.72,26.13-26.13,26.13Zm0-51.26c-13.86,0-25.13,11.27-25.13,25.13s11.27,25.13,25.13,25.13,25.13-11.27,25.13-25.13-11.27-25.13-25.13-25.13Z"/>
    </g>
    <g>
      <rect class="cls-3" x="292.01" y="208.42" width="11.64" height="11.64" transform="translate(83.59 512.07) rotate(-90)"/>
      <path class="cls-6" d="M304.15,220.56h-12.64v-12.64h12.64v12.64Zm-11.64-1h10.64v-10.64h-10.64v10.64Z"/>
    </g>
    <g>
      <rect class="cls-3" x="327.5" y="173.24" width="11.64" height="11.64" transform="translate(154.26 512.37) rotate(-90)"/>
      <path class="cls-6" d="M339.64,185.38h-12.64v-12.64h12.64v12.64Zm-11.64-1h10.64v-10.64h-10.64v10.64Z"/>
    </g>
    <g>
      <rect class="cls-3" x="256.92" y="173.24" width="11.64" height="11.64" transform="translate(83.68 441.79) rotate(-90)"/>
      <path class="cls-6" d="M269.06,185.38h-12.64v-12.64h12.64v12.64Zm-11.64-1h10.64v-10.64h-10.64v10.64Z"/>
    </g>
    <g>
      <rect class="cls-3" x="292.01" y="137.78" width="11.64" height="11.64" transform="translate(154.23 441.43) rotate(-90)"/>
      <path class="cls-6" d="M304.15,149.92h-12.64v-12.64h12.64v12.64Zm-11.64-1h10.64v-10.64h-10.64v10.64Z"/>
    </g>
    <g>
      <circle class="cls-3" cx="298.11" cy="179.06" r="25.63"/>
      <path class="cls-6" d="M298.11,205.18c-14.41,0-26.13-11.72-26.13-26.13s11.72-26.13,26.13-26.13,26.13,11.72,26.13,26.13-11.72,26.13-26.13,26.13Zm0-51.26c-13.86,0-25.13,11.27-25.13,25.13s11.27,25.13,25.13,25.13,25.13-11.27,25.13-25.13-11.27-25.13-25.13-25.13Z"/>
    </g>
    <g>
      <rect class="cls-3" x="400.14" y="182.48" width="11.64" height="11.64" transform="translate(217.66 594.26) rotate(-90)"/>
      <path class="cls-6" d="M412.28,194.62h-12.64v-12.64h12.64v12.64Zm-11.64-1h10.64v-10.64h-10.64v10.64Z"/>
    </g>
    <g>
      <rect class="cls-3" x="435.62" y="147.29" width="11.64" height="11.64" transform="translate(288.33 594.56) rotate(-90)"/>
      <path class="cls-6" d="M447.76,159.44h-12.64v-12.64h12.64v12.64Zm-11.64-1h10.64v-10.64h-10.64v10.64Z"/>
    </g>
    <g>
      <rect class="cls-3" x="365.04" y="147.29" width="11.64" height="11.64" transform="translate(217.75 523.98) rotate(-90)"/>
      <path class="cls-6" d="M377.18,159.44h-12.64v-12.64h12.64v12.64Zm-11.64-1h10.64v-10.64h-10.64v10.64Z"/>
    </g>
    <g>
      <rect class="cls-3" x="400.14" y="111.84" width="11.64" height="11.64" transform="translate(288.3 523.62) rotate(-90)"/>
      <path class="cls-6" d="M412.28,123.98h-12.64v-12.64h12.64v12.64Zm-11.64-1h10.64v-10.64h-10.64v10.64Z"/>
    </g>
    <g>
      <circle class="cls-3" cx="406.23" cy="153.11" r="25.63"/>
      <path class="cls-6" d="M406.23,179.24c-14.41,0-26.13-11.72-26.13-26.13s11.72-26.13,26.13-26.13,26.13,11.72,26.13,26.13-11.72,26.13-26.13,26.13Zm0-51.26c-13.86,0-25.13,11.27-25.13,25.13s11.27,25.13,25.13,25.13,25.13-11.27,25.13-25.13-11.27-25.13-25.13-25.13Z"/>
    </g>
    <g>
      <rect class="cls-3" x="505.93" y="208.42" width="11.64" height="11.64" transform="translate(297.51 725.99) rotate(-90)"/>
      <path class="cls-6" d="M518.07,220.56h-12.64v-12.64h12.64v12.64Zm-11.64-1h10.64v-10.64h-10.64v10.64Z"/>
    </g>
    <g>
      <rect class="cls-3" x="541.41" y="173.24" width="11.64" height="11.64" transform="translate(368.18 726.29) rotate(-90)"/>
      <path class="cls-6" d="M553.55,185.38h-12.64v-12.64h12.64v12.64Zm-11.64-1h10.64v-10.64h-10.64v10.64Z"/>
    </g>
    <g>
      <rect class="cls-3" x="470.83" y="173.24" width="11.64" height="11.64" transform="translate(297.59 655.71) rotate(-90)"/>
      <path class="cls-6" d="M482.97,185.38h-12.64v-12.64h12.64v12.64Zm-11.64-1h10.64v-10.64h-10.64v10.64Z"/>
    </g>
    <g>
      <rect class="cls-3" x="505.93" y="137.78" width="11.64" height="11.64" transform="translate(368.15 655.35) rotate(-90)"/>
      <path class="cls-6" d="M518.07,149.92h-12.64v-12.64h12.64v12.64Zm-11.64-1h10.64v-10.64h-10.64v10.64Z"/>
    </g>
    <g>
      <circle class="cls-3" cx="512.02" cy="179.06" r="25.63"/>
      <path class="cls-6" d="M512.02,205.18c-14.41,0-26.13-11.72-26.13-26.13s11.72-26.13,26.13-26.13,26.13,11.72,26.13,26.13-11.72,26.13-26.13,26.13Zm0-51.26c-13.86,0-25.13,11.27-25.13,25.13s11.27,25.13,25.13,25.13,25.13-11.27,25.13-25.13-11.27-25.13-25.13-25.13Z"/>
    </g>
    <g>
      <rect class="cls-3" x="83.05" y="118.97" width="12.75" height="12.75" transform="translate(-35.92 214.76) rotate(-90)"/>
      <path class="cls-6" d="M96.29,132.22h-13.75v-13.75h13.75v13.75Zm-12.75-1h11.75v-11.75h-11.75v11.75Z"/>
    </g>
    <g>
      <rect class="cls-3" x="83.05" y="139.61" width="12.75" height="12.75" transform="translate(-56.56 235.4) rotate(-90)"/>
      <path class="cls-6" d="M96.29,152.85h-13.75v-13.75h13.75v13.75Zm-12.75-1h11.75v-11.75h-11.75v11.75Z"/>
    </g>
    <g>
      <rect class="cls-3" x="83.05" y="160.25" width="12.75" height="12.75" transform="translate(-77.2 256.04) rotate(-90)"/>
      <path class="cls-6" d="M96.29,173.49h-13.75v-13.75h13.75v13.75Zm-12.75-1h11.75v-11.75h-11.75v11.75Z"/>
    </g>
    <g>
      <rect class="cls-3" x="83.05" y="57.05" width="12.75" height="12.75" transform="translate(26 152.85) rotate(-90)"/>
      <path class="cls-6" d="M96.29,70.3h-13.75v-13.75h13.75v13.75Zm-12.75-1h11.75v-11.75h-11.75v11.75Z"/>
    </g>
    <g>
      <rect class="cls-3" x="83.05" y="77.69" width="12.75" height="12.75" transform="translate(5.36 173.48) rotate(-90)"/>
      <path class="cls-6" d="M96.29,90.94h-13.75v-13.75h13.75v13.75Zm-12.75-1h11.75v-11.75h-11.75v11.75Z"/>
    </g>
    <g>
      <rect class="cls-3" x="83.05" y="98.33" width="12.75" height="12.75" transform="translate(-15.28 194.12) rotate(-90)"/>
      <path class="cls-6" d="M96.29,111.58h-13.75v-13.75h13.75v13.75Zm-12.75-1h11.75v-11.75h-11.75v11.75Z"/>
    </g>
    <g>
      <rect class="cls-3" x="83.05" y="180.89" width="12.75" height="12.75" transform="translate(-97.84 276.68) rotate(-90)"/>
      <path class="cls-6" d="M96.29,194.13h-13.75v-13.75h13.75v13.75Zm-12.75-1h11.75v-11.75h-11.75v11.75Z"/>
    </g>
    <path class="cls-1" d="M457.87,291.14c-.34,.42-.8,.7-1.37,.85v1.08h-1.46v-1.06c-.58-.12-1.06-.39-1.46-.81-.4-.42-.65-.91-.77-1.47l1.26-.79c.13,.51,.33,.92,.61,1.24,.28,.31,.63,.47,1.06,.47,.33,0,.59-.08,.79-.25,.2-.16,.3-.41,.3-.75,0-.21-.07-.39-.2-.55-.14-.16-.31-.3-.51-.42-.2-.12-.49-.27-.87-.46l-.35-.17c-.48-.24-.86-.54-1.15-.91s-.43-.83-.43-1.4,.16-1.01,.47-1.41c.31-.4,.73-.65,1.26-.77v-1.06h1.46v1.09c.71,.22,1.22,.69,1.52,1.42l-1.26,.8c-.21-.59-.58-.89-1.12-.89-.23,0-.43,.07-.6,.22s-.25,.33-.25,.55,.07,.41,.22,.57c.15,.16,.33,.3,.54,.42s.52,.27,.92,.45c.39,.18,.72,.37,.99,.56,.27,.19,.49,.44,.66,.75,.17,.31,.26,.68,.26,1.12,0,.62-.17,1.15-.51,1.57Z"/>
    <path class="cls-1" d="M498.03,291.14c-.34,.42-.8,.7-1.37,.85v1.08h-1.46v-1.06c-.58-.12-1.06-.39-1.46-.81-.4-.42-.65-.91-.77-1.47l1.26-.79c.13,.51,.33,.92,.61,1.24,.28,.31,.63,.47,1.06,.47,.33,0,.59-.08,.79-.25,.2-.16,.3-.41,.3-.75,0-.21-.07-.39-.2-.55-.14-.16-.31-.3-.51-.42-.2-.12-.49-.27-.87-.46l-.35-.17c-.48-.24-.86-.54-1.15-.91s-.43-.83-.43-1.4,.16-1.01,.47-1.41c.31-.4,.73-.65,1.26-.77v-1.06h1.46v1.09c.71,.22,1.22,.69,1.52,1.42l-1.26,.8c-.21-.59-.58-.89-1.12-.89-.23,0-.43,.07-.6,.22s-.25,.33-.25,.55,.07,.41,.22,.57c.15,.16,.33,.3,.54,.42s.52,.27,.92,.45c.39,.18,.72,.37,.99,.56,.27,.19,.49,.44,.66,.75,.17,.31,.26,.68,.26,1.12,0,.62-.17,1.15-.51,1.57Z"/>
    <g>
      <rect class="cls-3" x="166.2" y="40" width="60" height="30"/>
      <path class="cls-6" d="M226.7,70.5h-61v-31h61v31Zm-60-1h59v-29h-59v29Z"/>
    </g>
    <g>
      <rect class="cls-3" x="271.99" y="40" width="60" height="30"/>
      <path class="cls-6" d="M332.49,70.5h-61v-31h61v31Zm-60-1h59v-29h-59v29Z"/>
    </g>
    <g>
      <rect class="cls-3" x="377.78" y="40" width="60" height="30"/>
      <path class="cls-6" d="M438.28,70.5h-61v-31h61v31Zm-60-1h59v-29h-59v29Z"/>
    </g>
    <g>
      <rect class="cls-3" x="483.57" y="40" width="60" height="30"/>
      <path class="cls-6" d="M544.07,70.5h-61v-31h61v31Zm-60-1h59v-29h-59v29Z"/>
    </g>
    <g>
      <rect class="cls-5" x="388.14" y="36.6" width="24" height="36" transform="translate(345.54 454.74) rotate(-90)"/>
      <path class="cls-6" d="M418.64,67.1h-37v-25h37v25Zm-36-1h35v-23h-35v23Z"/>
    </g>
    <g>
      <rect class="cls-7" x="403.69" y="288.53" width="17.7" height="6.91" rx="2.36" ry="2.36"/>
      <path class="cls-2" d="M419.03,295.94h-12.98c-1.58,0-2.86-1.28-2.86-2.86v-2.2c0-1.58,1.28-2.86,2.86-2.86h12.98c1.58,0,2.86,1.28,2.86,2.86v2.2c0,1.58-1.28,2.86-2.86,2.86Zm-12.98-6.91c-1.02,0-1.86,.83-1.86,1.86v2.2c0,1.02,.83,1.86,1.86,1.86h12.98c1.02,0,1.86-.83,1.86-1.86v-2.2c0-1.02-.83-1.86-1.86-1.86h-12.98Z"/>
    </g>
    <circle class="cls-2" cx="406.73" cy="291.87" r="1.01"/>
    <circle class="cls-2" cx="410.51" cy="291.87" r="1.01"/>
    <path class="cls-2" d="M415.53,285.03c-2.9-1.53-5.15-.09-5.24-.03l-.55-.83c.11-.08,2.82-1.84,6.26-.03l-.46,.88Z"/>
    <path class="cls-2" d="M416.97,282.92c-4.28-1.91-8.11-.03-8.15,0l-.45-.89c.17-.09,4.28-2.13,9.01-.01l-.41,.91Z"/>
    <path class="cls-2" d="M418.63,280.69c-6.52-2.8-11.4-.05-11.45-.03l-.5-.86c.21-.13,5.34-3.04,12.34-.03l-.4,.92Z"/>
    <g>
      <g>
        <rect class="cls-5" x="391.29" y="55.95" width="17.7" height="6.91" rx="2.36" ry="2.36"/>
        <path class="cls-2" d="M406.63,63.36h-12.98c-1.58,0-2.86-1.28-2.86-2.86v-2.2c0-1.58,1.28-2.86,2.86-2.86h12.98c1.58,0,2.86,1.28,2.86,2.86v2.2c0,1.58-1.28,2.86-2.86,2.86Zm-12.98-6.91c-1.02,0-1.86,.83-1.86,1.86v2.2c0,1.02,.83,1.86,1.86,1.86h12.98c1.02,0,1.86-.83,1.86-1.86v-2.2c0-1.02-.83-1.86-1.86-1.86h-12.98Z"/>
      </g>
      <circle class="cls-2" cx="394.33" cy="59.29" r="1.01"/>
      <circle class="cls-2" cx="398.11" cy="59.29" r="1.01"/>
      <path class="cls-2" d="M403.13,52.45c-2.9-1.52-5.15-.09-5.24-.03l-.55-.83c.11-.08,2.82-1.84,6.26-.03l-.46,.88Z"/>
      <path class="cls-2" d="M404.57,50.33c-4.28-1.91-8.11-.03-8.15,0l-.45-.89c.17-.09,4.28-2.13,9.01-.01l-.41,.91Z"/>
      <path class="cls-2" d="M406.23,48.11c-6.52-2.8-11.4-.05-11.45-.03l-.5-.86c.21-.12,5.34-3.04,12.34-.03l-.39,.92Z"/>
    </g>
    <g>
      <path class="cls-2" d="M275.57,331.58h1.69v7.54h3.86v1.56h-5.55v-9.1Z"/>
      <path class="cls-2" d="M288.1,337.93h-4.52c.07,.49,.24,.85,.51,1.11,.27,.25,.62,.38,1.05,.38,.36,0,.67-.08,.92-.25s.47-.42,.67-.77l1.3,.48c-.27,.62-.64,1.09-1.12,1.42-.48,.33-1.1,.49-1.85,.49-.71,0-1.3-.17-1.77-.5-.47-.33-.82-.76-1.04-1.27-.22-.52-.33-1.05-.33-1.61s.11-1.09,.33-1.61c.22-.52,.57-.94,1.04-1.27,.47-.33,1.06-.5,1.77-.5s1.26,.16,1.72,.49c.46,.33,.8,.73,1.01,1.23s.33,1,.33,1.52v.66Zm-1.65-1.27c-.08-.36-.23-.66-.46-.9-.23-.23-.54-.35-.94-.35-.35,0-.65,.11-.9,.32s-.43,.52-.53,.93h2.83Z"/>
      <path class="cls-2" d="M289.85,342.88c-.55-.37-.83-.91-.83-1.6,0-.54,.18-.97,.53-1.3-.22-.27-.34-.61-.34-1.01,0-.3,.07-.57,.21-.81s.34-.42,.59-.57c-.3-.37-.46-.82-.46-1.35,0-.44,.11-.83,.32-1.16,.21-.33,.5-.59,.87-.77s.77-.27,1.21-.27,.83,.09,1.21,.29l1.23-.65,.64,1.07-.94,.47c.17,.3,.26,.65,.26,1.04,0,.44-.11,.83-.32,1.16-.21,.33-.5,.59-.87,.76s-.77,.26-1.22,.26c-.33,0-.65-.05-.95-.14-.21,.12-.31,.29-.31,.49,0,.16,.05,.28,.16,.36,.1,.08,.26,.12,.46,.12h1.34c.7,0,1.26,.17,1.68,.5,.42,.33,.62,.81,.62,1.42,0,.51-.14,.94-.42,1.27-.28,.34-.65,.59-1.1,.75-.45,.16-.94,.24-1.46,.24-.88,0-1.59-.19-2.14-.56Zm3.13-.99c.25-.13,.37-.33,.37-.61,0-.25-.09-.43-.27-.53s-.44-.15-.78-.15h-.88c-.29,0-.55-.02-.75-.05-.1,.15-.14,.35-.14,.6,0,.3,.13,.54,.4,.7s.62,.24,1.07,.24c.42,0,.75-.06,.99-.2Zm-.36-5.02c.17-.16,.25-.38,.25-.64s-.08-.49-.25-.66c-.17-.17-.38-.25-.64-.25s-.47,.08-.64,.25c-.17,.17-.25,.39-.25,.66s.08,.47,.25,.64c.17,.17,.38,.25,.64,.25s.47-.08,.64-.25Z"/>
      <path class="cls-2" d="M296.22,332.99c-.2-.2-.3-.45-.3-.74s.1-.54,.3-.74,.45-.3,.74-.3,.54,.1,.74,.3,.3,.45,.3,.74-.1,.54-.3,.74-.45,.3-.74,.3-.54-.1-.74-.3Zm-.06,1.14h1.61v6.55h-1.61v-6.55Z"/>
      <path class="cls-2" d="M300.44,340.18c-.42-.41-.64-1.01-.64-1.81v-2.86h-1.01v-1.38h1.01v-1.64l1.61-1.01v2.65h1.73v1.38h-1.73v2.83c0,.39,.07,.67,.21,.83,.14,.16,.36,.24,.64,.24,.22,0,.42-.05,.62-.16l.38,1.3c-.34,.16-.69,.23-1.07,.23-.75,0-1.34-.2-1.77-.61Z"/>
      <path class="cls-2" d="M304.46,332.99c-.2-.2-.3-.45-.3-.74s.1-.54,.3-.74,.45-.3,.74-.3,.54,.1,.74,.3,.3,.45,.3,.74-.1,.54-.3,.74-.45,.3-.74,.3-.54-.1-.74-.3Zm-.06,1.14h1.61v6.55h-1.61v-6.55Z"/>
      <path class="cls-2" d="M309.38,334.13v1.05c.25-.38,.53-.67,.83-.87s.65-.29,1.06-.29,.8,.11,1.13,.34,.56,.56,.7,1.01c.23-.42,.53-.76,.88-.99,.35-.24,.73-.36,1.12-.36,.61,0,1.08,.18,1.43,.53,.35,.36,.52,.85,.52,1.48v4.64h-1.61v-4.37c0-.61-.27-.91-.81-.91-.42,0-.76,.23-1.02,.7-.26,.47-.4,1.14-.4,2.03v2.55h-1.61v-4.37c0-.61-.27-.91-.81-.91-.42,0-.76,.24-1.02,.73-.26,.49-.4,1.2-.4,2.14v2.4h-1.61v-6.55h1.61Z"/>
      <path class="cls-2" d="M318.89,340.27c-.37-.35-.56-.84-.56-1.47s.25-1.17,.74-1.56c.49-.39,1.16-.58,2-.58h1.14v-.29c0-.32-.11-.56-.33-.72s-.49-.24-.82-.24c-.56,0-.94,.25-1.13,.75l-1.36-.31c.1-.54,.38-.99,.84-1.32,.46-.33,1.01-.5,1.66-.5,.88,0,1.55,.23,2.03,.7,.48,.46,.72,1.15,.72,2.05v3.91h-1.33l-.17-.83c-.51,.62-1.18,.94-2.02,.94-.58,0-1.06-.17-1.43-.52Zm2.89-1.23c.29-.25,.44-.57,.44-.98v-.13h-1.08c-.36,0-.63,.07-.83,.21-.2,.14-.29,.35-.29,.64,0,.19,.07,.34,.2,.46,.13,.12,.31,.18,.53,.18,.39,0,.73-.12,1.03-.37Z"/>
      <path class="cls-2" d="M326.38,340.18c-.42-.41-.64-1.01-.64-1.81v-2.86h-1.01v-1.38h1.01v-1.64l1.61-1.01v2.65h1.73v1.38h-1.73v2.83c0,.39,.07,.67,.21,.83,.14,.16,.36,.24,.64,.24,.22,0,.42-.05,.62-.16l.38,1.3c-.34,.16-.69,.23-1.07,.23-.75,0-1.34-.2-1.77-.61Z"/>
      <path class="cls-2" d="M335.85,337.93h-4.52c.07,.49,.24,.85,.51,1.11,.27,.25,.62,.38,1.05,.38,.36,0,.67-.08,.92-.25s.47-.42,.67-.77l1.3,.48c-.27,.62-.64,1.09-1.12,1.42-.48,.33-1.1,.49-1.85,.49-.71,0-1.3-.17-1.77-.5-.47-.33-.82-.76-1.04-1.27-.22-.52-.33-1.05-.33-1.61s.11-1.09,.33-1.61c.22-.52,.57-.94,1.04-1.27,.47-.33,1.06-.5,1.77-.5s1.26,.16,1.72,.49c.46,.33,.8,.73,1.01,1.23s.33,1,.33,1.52v.66Zm-1.65-1.27c-.08-.36-.23-.66-.46-.9-.23-.23-.54-.35-.94-.35-.35,0-.65,.11-.9,.32s-.43,.52-.53,.93h2.83Z"/>
      <path class="cls-2" d="M340.66,331.58h1.78l3.34,6.01v-6.01h1.69v9.1h-1.78l-3.34-6.01v6.01h-1.69v-9.1Z"/>
      <path class="cls-2" d="M355.26,337.93h-4.52c.07,.49,.24,.85,.51,1.11,.27,.25,.62,.38,1.05,.38,.36,0,.67-.08,.92-.25s.47-.42,.67-.77l1.3,.48c-.27,.62-.64,1.09-1.12,1.42-.48,.33-1.1,.49-1.85,.49-.71,0-1.3-.17-1.77-.5-.47-.33-.82-.76-1.04-1.27-.22-.52-.33-1.05-.33-1.61s.11-1.09,.33-1.61c.22-.52,.57-.94,1.04-1.27,.47-.33,1.06-.5,1.77-.5s1.26,.16,1.72,.49c.46,.33,.8,.73,1.01,1.23s.33,1,.33,1.52v.66Zm-1.65-1.27c-.08-.36-.23-.66-.46-.9-.23-.23-.54-.35-.94-.35-.35,0-.65,.11-.9,.32s-.43,.52-.53,.93h2.83Z"/>
      <path class="cls-2" d="M357.57,340.18c-.42-.41-.64-1.01-.64-1.81v-2.86h-1.01v-1.38h1.01v-1.64l1.61-1.01v2.65h1.73v1.38h-1.73v2.83c0,.39,.07,.67,.21,.83,.14,.16,.36,.24,.64,.24,.22,0,.42-.05,.62-.16l.38,1.3c-.34,.16-.69,.23-1.07,.23-.75,0-1.34-.2-1.77-.61Z"/>
      <path class="cls-2" d="M360.76,334.13h1.62l1.17,4.5,1.1-4.5h1.51l1.11,4.5,1.17-4.5h1.62l-2.09,6.55h-1.43l-1.13-4.24-1.13,4.24h-1.43l-2.09-6.55Z"/>
      <path class="cls-2" d="M372.21,340.35c-.5-.29-.89-.7-1.15-1.21-.26-.51-.4-1.09-.4-1.73s.13-1.22,.4-1.73c.26-.51,.65-.92,1.15-1.21,.5-.29,1.1-.44,1.78-.44s1.28,.15,1.78,.44c.5,.29,.89,.7,1.15,1.21,.26,.51,.4,1.09,.4,1.73s-.13,1.22-.4,1.73c-.26,.51-.65,.92-1.15,1.21-.5,.29-1.1,.44-1.78,.44s-1.28-.15-1.78-.44Zm2.98-1.51c.29-.39,.44-.86,.44-1.42s-.15-1.04-.44-1.42c-.29-.38-.69-.58-1.2-.58s-.9,.19-1.2,.58c-.29,.39-.44,.86-.44,1.42s.15,1.04,.44,1.42c.29,.38,.69,.58,1.2,.58s.9-.19,1.2-.58Z"/>
      <path class="cls-2" d="M380.39,334.13v1.07c.23-.37,.52-.66,.86-.86,.34-.2,.7-.31,1.08-.31,.24,0,.51,.04,.79,.13l-.3,1.5c-.2-.12-.42-.18-.68-.18-.51,0-.93,.23-1.26,.7-.33,.46-.49,1.19-.49,2.19v2.33h-1.61v-6.55h1.61Z"/>
      <path class="cls-2" d="M384.12,331.48h1.61v5.23l2.13-2.57h1.99l-2.63,3.02,2.79,3.54h-1.98l-2.31-3.09v3.09h-1.61v-9.2Z"/>
      <path class="cls-2" d="M391.11,335.9c-.21-.21-.31-.47-.31-.78s.1-.57,.31-.78c.21-.21,.47-.31,.78-.31s.57,.1,.78,.31c.21,.21,.31,.47,.31,.78s-.1,.57-.31,.78c-.21,.21-.47,.31-.78,.31s-.57-.1-.78-.31Zm0,4.55c-.21-.21-.31-.47-.31-.78s.1-.57,.31-.78c.21-.21,.47-.31,.78-.31s.57,.1,.78,.31c.21,.21,.31,.47,.31,.78s-.1,.57-.31,.78-.47,.31-.78,.31-.57-.1-.78-.31Z"/>
      <path class="cls-2" d="M398.97,340.46c-.42-.22-.76-.52-1.03-.9-.27-.38-.44-.8-.52-1.25l.94-.58c.32,1.34,.99,2.01,2.01,2.01,.44,0,.8-.13,1.08-.4,.28-.26,.42-.65,.42-1.15,0-.33-.09-.61-.26-.84-.17-.23-.39-.43-.65-.59s-.63-.35-1.1-.57c-.59-.29-1.06-.62-1.4-1.01-.34-.39-.51-.88-.51-1.48,0-.42,.1-.81,.3-1.14s.47-.6,.82-.79c.35-.19,.74-.29,1.17-.29,.6,0,1.08,.13,1.46,.38,.37,.26,.66,.62,.87,1.1l-.92,.58c-.28-.68-.75-1.01-1.4-1.01-.36,0-.64,.11-.86,.32-.22,.22-.33,.48-.33,.78s.08,.56,.25,.78,.37,.4,.62,.55,.58,.32,1.01,.51c.67,.3,1.18,.66,1.55,1.06,.36,.4,.55,.94,.55,1.61,0,.53-.11,.99-.34,1.39-.23,.4-.55,.71-.95,.93-.4,.22-.86,.33-1.36,.33s-.96-.11-1.38-.33Z"/>
      <path class="cls-2" d="M405.66,340.46c-.42-.22-.76-.52-1.03-.9-.27-.38-.44-.8-.52-1.25l.94-.58c.32,1.34,.99,2.01,2.01,2.01,.44,0,.8-.13,1.08-.4,.28-.26,.42-.65,.42-1.15,0-.33-.09-.61-.26-.84-.17-.23-.39-.43-.65-.59s-.63-.35-1.1-.57c-.59-.29-1.06-.62-1.4-1.01-.34-.39-.51-.88-.51-1.48,0-.42,.1-.81,.3-1.14s.47-.6,.82-.79c.35-.19,.74-.29,1.17-.29,.6,0,1.08,.13,1.46,.38,.37,.26,.66,.62,.87,1.1l-.92,.58c-.28-.68-.75-1.01-1.4-1.01-.36,0-.64,.11-.86,.32-.22,.22-.33,.48-.33,.78s.08,.56,.25,.78,.37,.4,.62,.55,.58,.32,1.01,.51c.67,.3,1.18,.66,1.55,1.06,.36,.4,.55,.94,.55,1.61,0,.53-.11,.99-.34,1.39-.23,.4-.55,.71-.95,.93-.4,.22-.86,.33-1.36,.33s-.96-.11-1.38-.33Z"/>
      <path class="cls-2" d="M411.41,331.58h1.13v9.1h-1.13v-9.1Z"/>
      <path class="cls-2" d="M417.32,331.58c.77,0,1.47,.18,2.11,.53,.63,.36,1.13,.88,1.51,1.56,.37,.68,.56,1.5,.56,2.46s-.19,1.77-.56,2.46c-.37,.68-.88,1.2-1.51,1.56-.63,.36-1.33,.53-2.11,.53h-2.54v-9.1h2.54Zm1.4,7.69c.48-.24,.86-.62,1.16-1.14,.29-.52,.44-1.19,.44-1.99s-.15-1.47-.44-2c-.29-.52-.68-.91-1.16-1.14s-1-.36-1.57-.36h-1.24v6.99h1.24c.57,0,1.1-.12,1.57-.36Z"/>
      <path class="cls-2" d="M426.29,335.02h5.25v.95h-5.25v-.95Zm0,2.22h5.25v.95h-5.25v-.95Z"/>
      <path class="cls-2" d="M442.83,336.02h-1.21c-.16-.86-.79-1.46-1.65-1.46-1.04,0-1.9,.9-1.9,2.65s.86,2.67,1.9,2.67c.95,0,1.55-.69,1.7-1.44h1.23c-.19,1.39-1.44,2.42-3,2.42-1.94,0-3.09-1.51-3.09-3.64s1.21-3.64,3.21-3.64c1.62,0,2.7,1.18,2.81,2.45Z"/>
      <path class="cls-2" d="M448.29,333.57c1.6,0,3.24,1.11,3.24,3.64s-1.64,3.64-3.24,3.64-3.24-1.11-3.24-3.64,1.64-3.64,3.24-3.64Zm0,6.28c1.07,0,1.98-.78,1.98-2.64s-.91-2.64-1.98-2.64-1.98,.78-1.98,2.64,.91,2.64,1.98,2.64Z"/>
      <path class="cls-2" d="M455.35,333.18c0-1.46,.35-1.92,1.86-1.92h2.47v1.01h-2.44c-.58,0-.69,.18-.69,.91v.51h3.13v1.03h-3.13v5.97h-1.2v-5.97h-1.86v-1.03h1.86v-.51Z"/>
      <path class="cls-2" d="M463.75,333.18c0-1.46,.35-1.92,1.86-1.92h2.47v1.01h-2.44c-.58,0-.69,.18-.69,.91v.51h3.13v1.03h-3.13v5.97h-1.2v-5.97h-1.86v-1.03h1.86v-.51Z"/>
      <path class="cls-2" d="M470.35,337.21c0-2.25,1.33-3.65,3.17-3.65,2.04,0,3.21,1.49,3.12,3.99h-5.03c0,1.4,.78,2.33,1.88,2.33,1.04,0,1.56-.49,1.81-1.29h1.23c-.29,1.33-1.38,2.26-3.02,2.26-2.12,0-3.17-1.57-3.17-3.64Zm1.27-.65h3.74c.01-1.14-.62-2.01-1.85-2.01-1.13,0-1.85,.66-1.9,2.01Z"/>
      <path class="cls-2" d="M478.75,337.21c0-2.25,1.33-3.65,3.17-3.65,2.04,0,3.21,1.49,3.12,3.99h-5.03c0,1.4,.78,2.33,1.88,2.33,1.04,0,1.56-.49,1.81-1.29h1.23c-.29,1.33-1.38,2.26-3.02,2.26-2.12,0-3.17-1.57-3.17-3.64Zm1.27-.65h3.74c.01-1.14-.62-2.01-1.85-2.01-1.13,0-1.85,.66-1.9,2.01Z"/>
      <path class="cls-2" d="M491.72,335.6c-.16-.78-.77-1.04-1.56-1.04-.7,0-1.4,.27-1.4,.9,0,.55,.36,.79,1.05,.94l.78,.16c1.21,.23,2.51,.69,2.51,2.09,0,1.48-1.27,2.21-2.79,2.21-1.82,0-2.73-1.14-2.86-2.26h1.26c.16,.81,.65,1.27,1.62,1.27,.74,0,1.56-.26,1.56-1.08,0-.65-.58-.98-1.47-1.13l-.87-.17c-1.1-.22-1.98-.77-1.98-1.98,0-1.35,1.47-1.94,2.64-1.94,1.48,0,2.5,.78,2.76,2.03h-1.25Z"/>
      <path class="cls-2" d="M501.41,336.24v4.45h-1.2v-4.03c0-1.13-.08-2.08-1.38-2.08-1.08,0-1.68,.82-1.68,2.31v3.79h-1.2v-9.42h1.2v3.42c.36-.61,.99-1.11,2.07-1.11,1.69,0,2.18,1.12,2.18,2.67Z"/>
      <path class="cls-2" d="M507.07,333.57c1.6,0,3.24,1.11,3.24,3.64s-1.64,3.64-3.24,3.64-3.24-1.11-3.24-3.64,1.64-3.64,3.24-3.64Zm0,6.28c1.07,0,1.98-.78,1.98-2.64s-.91-2.64-1.98-2.64-1.98,.78-1.98,2.64,.91,2.64,1.98,2.64Z"/>
      <path class="cls-2" d="M513.9,334.74c.39-.68,1.03-1.17,2.07-1.17,1.61,0,2.82,1.34,2.82,3.64s-1.21,3.64-2.82,3.64c-1.04,0-1.68-.49-2.07-1.16v3.26h-1.2v-9.27h1.2v1.05Zm1.82,5.12c1.2,0,1.81-.99,1.81-2.65s-.61-2.64-1.81-2.64c-1,0-1.87,.79-1.87,2.64s.87,2.65,1.87,2.65Z"/>
      <path class="cls-2" d="M524.42,335.09l1.04,3.77,.71-5.17h1.21l-1.17,6.99h-1.21l-1.14-4.22-1.14,4.22h-1.21l-1.17-6.99h1.22l.7,5.17,1.04-3.77h1.12Z"/>
      <path class="cls-2" d="M532.98,333.69v5.97h1.99v1.03h-5.16v-1.03h1.98v-4.94h-1.98v-1.03h3.17Zm0-2.43v1.42h-1.2v-1.42h1.2Z"/>
      <path class="cls-2" d="M539.33,333.18c0-1.46,.35-1.92,1.86-1.92h2.47v1.01h-2.44c-.58,0-.69,.18-.69,.91v.51h3.13v1.03h-3.13v5.97h-1.2v-5.97h-1.86v-1.03h1.86v-.51Z"/>
      <path class="cls-2" d="M549.78,333.69v5.97h1.99v1.03h-5.16v-1.03h1.98v-4.94h-1.98v-1.03h3.17Zm0-2.43v1.42h-1.2v-1.42h1.2Z"/>
    </g>
    <g>
      <rect class="cls-5" x="390.71" y="-29.01" width="30" height="266" transform="translate(301.72 509.7) rotate(-90)"/>
      <path class="cls-6" d="M539.21,119.49H272.21v-31h267v31Zm-266-1h265v-29H273.21v29Z"/>
    </g>
    <g>
      <path class="cls-2" d="M289,99.47h5.63v1.56h-3.94v1.91h3.16v1.56h-3.16v2.51h4.07v1.56h-5.76v-9.1Z"/>
      <path class="cls-2" d="M295.58,102.02h1.62l1.33,4.56,1.33-4.56h1.62l-2.22,6.55h-1.46l-2.22-6.55Z"/>
      <path class="cls-2" d="M302.62,100.88c-.2-.2-.3-.45-.3-.74s.1-.54,.3-.74c.2-.2,.45-.3,.74-.3s.54,.1,.74,.3c.2,.2,.3,.45,.3,.74s-.1,.54-.3,.74-.45,.3-.74,.3-.54-.1-.74-.3Zm-.06,1.14h1.61v6.55h-1.61v-6.55Z"/>
      <path class="cls-2" d="M305.99,99.37h1.61v9.2h-1.61v-9.2Z"/>
      <path class="cls-2" d="M314.58,101.03h-2.54v-1.56h6.76v1.56h-2.54v7.54h-1.69v-7.54Z"/>
      <path class="cls-2" d="M318.48,102.02h1.62l1.17,4.5,1.1-4.5h1.51l1.11,4.5,1.17-4.5h1.62l-2.09,6.55h-1.43l-1.13-4.24-1.13,4.24h-1.43l-2.09-6.55Z"/>
      <path class="cls-2" d="M328.91,100.88c-.2-.2-.3-.45-.3-.74s.1-.54,.3-.74c.2-.2,.45-.3,.74-.3s.54,.1,.74,.3c.2,.2,.3,.45,.3,.74s-.1,.54-.3,.74-.45,.3-.74,.3-.54-.1-.74-.3Zm-.06,1.14h1.61v6.55h-1.61v-6.55Z"/>
      <path class="cls-2" d="M333.83,102.02v1.05c.25-.36,.55-.64,.9-.85,.35-.21,.72-.31,1.13-.31,.61,0,1.09,.17,1.46,.51,.37,.34,.55,.83,.55,1.47v4.68h-1.61v-4.2c0-.37-.08-.65-.25-.82-.17-.17-.4-.26-.68-.26-.27,0-.52,.1-.74,.31-.23,.21-.41,.51-.55,.92-.14,.4-.21,.88-.21,1.44v2.61h-1.61v-6.55h1.61Z"/>
      <path class="cls-2" d="M339.8,103.79c-.21-.21-.31-.47-.31-.78s.1-.57,.31-.78c.21-.21,.47-.31,.78-.31s.57,.1,.78,.31c.21,.21,.31,.47,.31,.78s-.1,.57-.31,.78-.47,.31-.78,.31-.57-.1-.78-.31Zm0,4.55c-.21-.21-.31-.47-.31-.78s.1-.57,.31-.78,.47-.31,.78-.31,.57,.1,.78,.31,.31,.47,.31,.78-.1,.57-.31,.78-.47,.31-.78,.31-.57-.1-.78-.31Z"/>
      <path class="cls-2" d="M347.7,108.35c-.42-.22-.76-.52-1.03-.9-.27-.38-.44-.8-.52-1.25l.94-.58c.32,1.34,.99,2.01,2.01,2.01,.44,0,.8-.13,1.08-.4s.42-.65,.42-1.15c0-.33-.09-.61-.26-.84-.17-.23-.39-.43-.65-.58-.26-.16-.63-.35-1.1-.57-.59-.29-1.06-.62-1.4-1.01-.34-.39-.51-.88-.51-1.48,0-.42,.1-.81,.3-1.14s.47-.6,.82-.79,.74-.29,1.17-.29c.6,0,1.08,.13,1.46,.38,.37,.25,.66,.62,.87,1.1l-.92,.58c-.28-.68-.75-1.01-1.4-1.01-.36,0-.64,.11-.86,.33s-.33,.48-.33,.78,.08,.56,.25,.78c.17,.22,.37,.4,.62,.55,.25,.15,.58,.32,1.01,.51,.67,.3,1.18,.66,1.55,1.06,.36,.4,.55,.94,.55,1.61,0,.53-.11,.99-.34,1.39-.23,.4-.55,.71-.95,.93-.4,.22-.86,.33-1.36,.33s-.96-.11-1.38-.33Z"/>
      <path class="cls-2" d="M354.38,108.35c-.42-.22-.76-.52-1.03-.9-.27-.38-.44-.8-.52-1.25l.94-.58c.32,1.34,.99,2.01,2.01,2.01,.44,0,.8-.13,1.08-.4s.42-.65,.42-1.15c0-.33-.09-.61-.26-.84-.17-.23-.39-.43-.65-.58-.26-.16-.63-.35-1.1-.57-.59-.29-1.06-.62-1.4-1.01-.34-.39-.51-.88-.51-1.48,0-.42,.1-.81,.3-1.14s.47-.6,.82-.79,.74-.29,1.17-.29c.6,0,1.08,.13,1.46,.38,.37,.25,.66,.62,.87,1.1l-.92,.58c-.28-.68-.75-1.01-1.4-1.01-.36,0-.64,.11-.86,.33s-.33,.48-.33,.78,.08,.56,.25,.78c.17,.22,.37,.4,.62,.55,.25,.15,.58,.32,1.01,.51,.67,.3,1.18,.66,1.55,1.06,.36,.4,.55,.94,.55,1.61,0,.53-.11,.99-.34,1.39-.23,.4-.55,.71-.95,.93-.4,.22-.86,.33-1.36,.33s-.96-.11-1.38-.33Z"/>
      <path class="cls-2" d="M360.13,99.47h1.13v9.1h-1.13v-9.1Z"/>
      <path class="cls-2" d="M366.05,99.47c.77,0,1.47,.18,2.11,.53,.63,.36,1.13,.88,1.51,1.56,.37,.68,.56,1.5,.56,2.46s-.19,1.77-.56,2.46c-.37,.68-.88,1.2-1.51,1.56-.63,.36-1.33,.53-2.11,.53h-2.54v-9.1h2.54Zm1.4,7.69c.48-.24,.86-.62,1.16-1.14,.29-.52,.44-1.19,.44-2s-.15-1.47-.44-2c-.29-.52-.68-.91-1.16-1.14s-1-.36-1.57-.36h-1.24v6.99h1.24c.57,0,1.1-.12,1.57-.36Z"/>
      <path class="cls-2" d="M375.02,102.9h5.25v.95h-5.25v-.95Zm0,2.22h5.25v.95h-5.25v-.95Z"/>
      <path class="cls-2" d="M391.55,103.91h-1.21c-.16-.86-.79-1.46-1.65-1.46-1.04,0-1.9,.9-1.9,2.65s.86,2.67,1.9,2.67c.95,0,1.55-.69,1.7-1.44h1.23c-.19,1.39-1.44,2.42-3,2.42-1.94,0-3.09-1.51-3.09-3.64s1.21-3.64,3.21-3.64c1.62,0,2.7,1.18,2.81,2.44Z"/>
      <path class="cls-2" d="M397.01,101.46c1.6,0,3.24,1.1,3.24,3.64s-1.64,3.64-3.24,3.64-3.24-1.11-3.24-3.64,1.64-3.64,3.24-3.64Zm0,6.28c1.07,0,1.98-.78,1.98-2.64s-.91-2.64-1.98-2.64-1.98,.78-1.98,2.64,.91,2.64,1.98,2.64Z"/>
      <path class="cls-2" d="M404.07,101.07c0-1.46,.35-1.92,1.86-1.92h2.47v1.01h-2.44c-.58,0-.69,.18-.69,.91v.51h3.13v1.03h-3.13v5.97h-1.2v-5.97h-1.86v-1.03h1.86v-.51Z"/>
      <path class="cls-2" d="M412.47,101.07c0-1.46,.35-1.92,1.86-1.92h2.47v1.01h-2.44c-.58,0-.69,.18-.69,.91v.51h3.13v1.03h-3.13v5.97h-1.2v-5.97h-1.86v-1.03h1.86v-.51Z"/>
      <path class="cls-2" d="M419.07,105.1c0-2.25,1.33-3.65,3.17-3.65,2.04,0,3.21,1.49,3.12,3.99h-5.03c0,1.4,.78,2.33,1.88,2.33,1.04,0,1.56-.49,1.81-1.29h1.23c-.29,1.33-1.38,2.26-3.02,2.26-2.12,0-3.17-1.57-3.17-3.64Zm1.27-.65h3.74c.01-1.14-.62-2.02-1.85-2.02-1.13,0-1.85,.66-1.9,2.02Z"/>
      <path class="cls-2" d="M427.47,105.1c0-2.25,1.33-3.65,3.17-3.65,2.04,0,3.21,1.49,3.12,3.99h-5.03c0,1.4,.78,2.33,1.88,2.33,1.04,0,1.56-.49,1.81-1.29h1.23c-.29,1.33-1.38,2.26-3.02,2.26-2.12,0-3.17-1.57-3.17-3.64Zm1.27-.65h3.74c.01-1.14-.62-2.02-1.85-2.02-1.13,0-1.85,.66-1.9,2.02Z"/>
      <path class="cls-2" d="M440.45,103.49c-.16-.78-.77-1.04-1.56-1.04-.7,0-1.4,.27-1.4,.9,0,.55,.36,.79,1.05,.94l.78,.16c1.21,.23,2.51,.69,2.51,2.09,0,1.48-1.27,2.21-2.79,2.21-1.82,0-2.73-1.14-2.86-2.26h1.26c.16,.81,.65,1.27,1.62,1.27,.74,0,1.56-.26,1.56-1.08,0-.65-.58-.97-1.47-1.13l-.87-.17c-1.1-.22-1.98-.77-1.98-1.98,0-1.35,1.47-1.94,2.64-1.94,1.48,0,2.5,.78,2.76,2.03h-1.25Z"/>
      <path class="cls-2" d="M450.13,104.13v4.45h-1.2v-4.03c0-1.13-.08-2.08-1.38-2.08-1.08,0-1.68,.82-1.68,2.31v3.8h-1.2v-9.43h1.2v3.42c.36-.61,.99-1.1,2.07-1.1,1.69,0,2.18,1.12,2.18,2.67Z"/>
      <path class="cls-2" d="M455.8,101.46c1.6,0,3.24,1.1,3.24,3.64s-1.64,3.64-3.24,3.64-3.24-1.11-3.24-3.64,1.64-3.64,3.24-3.64Zm0,6.28c1.07,0,1.98-.78,1.98-2.64s-.91-2.64-1.98-2.64-1.98,.78-1.98,2.64,.91,2.64,1.98,2.64Z"/>
      <path class="cls-2" d="M462.62,102.63c.39-.68,1.03-1.17,2.07-1.17,1.61,0,2.82,1.34,2.82,3.64s-1.21,3.64-2.82,3.64c-1.04,0-1.68-.49-2.07-1.16v3.26h-1.2v-9.27h1.2v1.05Zm1.82,5.12c1.2,0,1.81-.99,1.81-2.65s-.61-2.64-1.81-2.64c-1,0-1.87,.79-1.87,2.64s.87,2.65,1.87,2.65Z"/>
      <path class="cls-2" d="M473.14,102.98l1.04,3.77,.71-5.17h1.21l-1.17,6.99h-1.21l-1.14-4.23-1.14,4.23h-1.21l-1.17-6.99h1.22l.7,5.17,1.04-3.77h1.12Z"/>
      <path class="cls-2" d="M481.71,101.58v5.97h1.99v1.03h-5.16v-1.03h1.98v-4.94h-1.98v-1.03h3.17Zm0-2.43v1.42h-1.2v-1.42h1.2Z"/>
      <path class="cls-2" d="M488.05,101.07c0-1.46,.35-1.92,1.86-1.92h2.47v1.01h-2.44c-.58,0-.69,.18-.69,.91v.51h3.13v1.03h-3.13v5.97h-1.2v-5.97h-1.86v-1.03h1.86v-.51Z"/>
      <path class="cls-2" d="M498.5,101.58v5.97h1.99v1.03h-5.16v-1.03h1.98v-4.94h-1.98v-1.03h3.17Zm0-2.43v1.42h-1.2v-1.42h1.2Z"/>
      <path class="cls-2" d="M504.12,105.57v-1.12h4.13v1.12h-4.13Z"/>
      <path class="cls-2" d="M516.56,105.48c0-1.53-1.04-2.16-2.01-2.16-.9,0-1.52,.53-1.72,.99l-1.25-.05,.61-5.11h5.23v1.01h-4.21l-.34,2.82c.49-.48,1.2-.7,1.95-.7,1.56,0,3.02,1.14,3.02,3.18s-1.6,3.28-3.28,3.28c-2.09,0-3.12-1.44-3.24-2.98h1.21c.13,1.14,.78,1.95,2.04,1.95,1.08,0,1.99-.81,1.99-2.24Z"/>
      <path class="cls-2" d="M524.58,101.58h1.2v6.12c0,1.43-.18,2.02-.56,2.46-.49,.58-1.46,.92-2.44,.92-1.52,0-2.6-.73-2.81-2.11h1.26c.17,.64,.53,1.07,1.56,1.07,.6,0,1.14-.18,1.43-.52,.23-.27,.36-.6,.36-1.55v-.68c-.39,.68-1.01,1.16-2.07,1.16-1.61,0-2.82-1.18-2.82-3.5s1.21-3.5,2.82-3.5c1.05,0,1.68,.49,2.07,1.17v-1.05Zm-1.82,.88c-1.2,0-1.81,.83-1.81,2.5s.61,2.51,1.81,2.51c1,0,1.87-.68,1.87-2.51s-.87-2.5-1.87-2.5Z"/>
    </g>
  </g>
  <g id="Layer_4" data-name="Layer 4"/>
</svg>