<svg id="Layer_1" data-name="Layer 1" xmlns="http://www.w3.org/2000/svg" viewBox="0 0 1677 1640"><defs><style>.cls-1{fill:#fff3dc;}.cls-1,.cls-2,.cls-3,.cls-4,.cls-5,.cls-7,.cls-8,.cls-9{stroke:#000;stroke-width:6px;}.cls-1,.cls-3,.cls-4,.cls-7,.cls-8,.cls-9{stroke-linecap:round;}.cls-1,.cls-3,.cls-4,.cls-5,.cls-7,.cls-8,.cls-9{stroke-linejoin:round;}.cls-2,.cls-4{fill:none;}.cls-2{stroke-miterlimit:10;}.cls-3{fill:#ffd500;}.cls-5{fill:#151d39;}.cls-6{fill:#00e9a9;}.cls-7{fill:#b3b3b3;}.cls-8{fill:#1af3c0;}.cls-9{fill:#fa4f45;}</style></defs><path d="M350.26,54h-38.2V70.4h22.3V82.3h-22.3v17.8h38.2V112h-52.1V42h52.1Z"/><path d="M384.86,65c9.9,0,17,6.3,17,17v30h-13V85.3c0-5.8-3.7-8.2-7.8-8.2-3.8,0-7.2,2.1-9.7,5.2V112h-13V66.2h12.7V68c0,1.6-.2,3.6-.2,3.6A18,18,0,0,1,384.86,65Z"/><path d="M422.66,89.1c0,7.2,4.7,12.5,11.5,12.5a10.49,10.49,0,0,0,10.1-7l12.2,3.8c-3,9.1-12,14.8-22.4,14.8-13.6,0-24.4-10.1-24.4-24.1S420.46,65,434.06,65c10.4,0,19.4,5.8,22.4,14.9l-12.2,3.7a10.62,10.62,0,0,0-10.1-7C427.36,76.6,422.66,81.9,422.66,89.1Z"/><path d="M492.26,79h-5.5c-6.6,0-9.6,3.1-9.6,11.1V112h-13V66.2h12.6v7.3c1.8-4.9,6.2-7.9,11.9-7.9a14.72,14.72,0,0,1,3.6.4Z"/><path d="M514.05,112h-3.3l-15.7-45.8h14.5l9.71,32.6,9.8-32.6h14.1l-18.3,53c-2.3,6.7-5.9,10.3-14.31,10.3h-9V118.6H508a4.77,4.77,0,0,0,5.1-3.6Z"/><path d="M562.75,129.5h-13V66.2h13v2.2c0,2.2-.2,3.2-.2,3.7,2.2-3.9,7.61-7.1,14.51-7.1,12.6,0,22.2,10.1,22.2,24.1s-9.7,24.1-22.3,24.1c-6.5,0-11.91-3.1-14.21-7Zm-.3-40.4c0,7,4.8,12.6,11.71,12.6s11.7-5.6,11.7-12.6-4.8-12.5-11.7-12.5S562.45,82,562.45,89.1Z"/><path d="M624.05,48.8V66.2H634v11h-9.9V97.9c0,2.9,2.3,3.3,4.3,3.3,3.3,0,6-.3,6-.3V112s-6.3.6-10.1.6c-6.5,0-13.2-1.1-13.2-10.3V77.2h-7.2v-11h7.2V48.8Z"/><path d="M658.65,112h-13V77.2h-6.4v-11h19.4Zm-7.1-70a8.39,8.39,0,0,1,8.4,8.4,8.35,8.35,0,0,1-16.7,0A8.37,8.37,0,0,1,651.55,42Z"/><path d="M667,89.1c0-14,10.9-24.1,24.5-24.1S716,75.1,716,89.1s-10.91,24.1-24.51,24.1S667,103.1,667,89.1Zm13,0c0,7.1,4.7,12.5,11.5,12.5s11.4-5.4,11.4-12.5-4.7-12.5-11.4-12.5S680,81.9,680,89.1Z"/><path d="M750.75,65c9.9,0,17,6.3,17,17v30h-13V85.3c0-5.8-3.7-8.2-7.8-8.2-3.8,0-7.2,2.1-9.7,5.2V112h-13V66.2H737V68c0,1.6-.2,3.6-.2,3.6A18,18,0,0,1,750.75,65Z"/><path d="M860.15,112h-16.5l-7.1-7.5c-4.6,5.9-11.1,8.7-19.1,8.7-11.9,0-21.3-8.1-21.3-19.6,0-7.9,4.4-14.9,12.1-20.5-4-4.6-5.7-9.1-5.7-14.2,0-7.9,6.1-18.1,20.9-18.1,10.8,0,18.6,7.3,18.6,15.9a15.86,15.86,0,0,1-2.4,8.8l-11.5-1.2a12.68,12.68,0,0,0,1.4-5.1,6.57,6.57,0,0,0-6.5-6.6,6.72,6.72,0,0,0-7.1,6.9q0,4.65,5.4,10.5c5.1,5.5,11.7,12.5,14.3,15.1a84.26,84.26,0,0,0,5.1-11.6h15.1a116,116,0,0,1-10.7,21l15,15.5Zm-44.6-29.4c-4,4-5.5,6.8-5.5,10.5,0,4.9,4.4,8.1,8.4,8.1a11.27,11.27,0,0,0,9.3-5.6C823.75,91.2,819.65,86.9,815.55,82.6Z"/><path d="M912.65,112h-24V42h24c22.9,0,36.3,14.2,36.3,35S935.55,112,912.65,112Zm-.5-58.1h-9.6v46.3h9.6c12.8,0,22.6-7.5,22.6-23.2C934.75,61.5,925,53.9,912.15,53.9Z"/><path d="M1002.15,92.9h-34.1a10.37,10.37,0,0,0,10.5,9.2c3.8,0,7.4-1.6,9.2-4.7l13.5,1.4c-4.1,9.8-12.7,14.4-22.9,14.4-13.7,0-24-10.1-24-24.1S964.45,65,978.15,65c12.6,0,24,8.2,24,27.4Zm-34.4-8.7h20.5a9.93,9.93,0,0,0-10.1-8.4A10.21,10.21,0,0,0,967.75,84.2Z"/><path d="M1020,89.1c0,7.2,4.7,12.5,11.5,12.5a10.49,10.49,0,0,0,10.1-7l12.2,3.8c-3,9.1-12,14.8-22.4,14.8-13.6,0-24.4-10.1-24.4-24.1s10.8-24.1,24.4-24.1c10.4,0,19.4,5.8,22.4,14.9l-12.2,3.7a10.62,10.62,0,0,0-10.1-7C1024.65,76.6,1020,81.9,1020,89.1Z"/><path d="M1089.55,79h-5.5c-6.6,0-9.6,3.1-9.6,11.1V112h-13V66.2h12.6v7.3c1.8-4.9,6.2-7.9,11.9-7.9a14.72,14.72,0,0,1,3.6.4Z"/><path d="M1111.35,112h-3.3l-15.7-45.8h14.5l9.7,32.6,9.8-32.6h14.1l-18.3,53c-2.3,6.7-5.9,10.3-14.3,10.3h-9V118.6h6.4a4.77,4.77,0,0,0,5.1-3.6Z"/><path d="M1160.05,129.5h-13V66.2h13v2.2c0,2.2-.2,3.2-.2,3.7,2.2-3.9,7.6-7.1,14.5-7.1,12.6,0,22.2,10.1,22.2,24.1s-9.7,24.1-22.3,24.1c-6.5,0-11.9-3.1-14.2-7Zm-.3-40.4c0,7,4.8,12.6,11.7,12.6s11.7-5.6,11.7-12.6-4.8-12.5-11.7-12.5S1159.75,82,1159.75,89.1Z"/><path d="M1221.35,48.8V66.2h9.9v11h-9.9V97.9c0,2.9,2.3,3.3,4.3,3.3,3.3,0,6-.3,6-.3V112s-6.3.6-10.1.6c-6.5,0-13.2-1.1-13.2-10.3V77.2h-7.2v-11h7.2V48.8Z"/><path d="M1256,112h-13V77.2h-6.4v-11H1256Zm-7.1-70a8.39,8.39,0,0,1,8.4,8.4,8.35,8.35,0,0,1-16.7,0A8.37,8.37,0,0,1,1248.85,42Z"/><path d="M1264.25,89.1c0-14,10.9-24.1,24.5-24.1s24.5,10.1,24.5,24.1-10.9,24.1-24.5,24.1S1264.25,103.1,1264.25,89.1Zm13,0c0,7.1,4.7,12.5,11.5,12.5s11.4-5.4,11.4-12.5-4.7-12.5-11.4-12.5S1277.25,81.9,1277.25,89.1Z"/><path d="M1348.05,65c9.9,0,17,6.3,17,17v30h-13V85.3c0-5.8-3.7-8.2-7.8-8.2-3.8,0-7.2,2.1-9.7,5.2V112h-13V66.2h12.7V68c0,1.6-.2,3.6-.2,3.6A18,18,0,0,1,1348.05,65Z"/><path d="M477.71,969V939.3h-27.8V969H436V899h13.91v28.4h27.8V899h13.9v70Z"/><path d="M529,938.5c0-3.3-2.6-5.4-7.6-5.4-4.6,0-10.4,2.3-13.8,4.3l-5.1-9.8a39.19,39.19,0,0,1,19.6-5.6c10.4,0,19.9,4.8,19.9,16.9V969H529v-4.3c-2.4,3.6-7.6,5.5-12.8,5.5-9.7,0-16-6.9-16-14.4,0-8.7,6.4-14.1,16.6-14.1h9c2.2,0,3.2-1,3.2-2.7Zm0,14.1v-3.3c-.8.8-2.2,1-4,1h-4.9c-4.1,0-6.5,1.8-6.5,5s2.5,5.4,6.5,5.4C524.81,960.7,529,958.3,529,952.6Z"/><path d="M579.71,937.2a16.68,16.68,0,0,0-11.3-4.7c-3.4,0-4.6,1.7-4.6,3.1,0,1.6,1,2.7,3.4,3.5l7.6,2.4c9.4,3.1,12.6,8.2,12.6,14.2,0,6.7-5.7,14.5-18.2,14.5-10.1,0-16.4-3.9-20.21-7.2l6.91-9c3.3,3.1,9.2,5.7,13.5,5.7,3.1,0,5-1.6,5-3.4,0-2.3-1.5-3.3-5.2-4.4l-7.8-2.3c-7.4-2.4-10.61-7.4-10.61-13.4,0-7.5,6.81-14.2,17.81-14.2,6,0,13.1,1.8,18.5,6.8Z"/><path d="M622.21,922c9.9,0,17,6.3,17,17v30h-13V942.3c0-5.8-3.7-8.2-7.8-8.2-3.8,0-7.2,2.1-9.7,5.2V969h-13V899h12.81v26c0,1.6-.2,3.6-.2,3.6A18,18,0,0,1,622.21,922Z"/><path d="M665.6,969h-13V934.2h-6.4v-11h19.4Zm-7.1-70a8.39,8.39,0,0,1,8.4,8.4,8.35,8.35,0,0,1-16.7,0A8.37,8.37,0,0,1,658.5,899Z"/><path d="M703.3,922c9.91,0,17,6.3,17,17v30h-13V942.3c0-5.8-3.71-8.2-7.81-8.2-3.8,0-7.2,2.1-9.7,5.2V969h-13V923.2h12.7V925c0,1.6-.2,3.6-.2,3.6A18,18,0,0,1,703.3,922Z"/><path d="M777.41,923.2v49.2c0,7.2-3.6,14.1-14.71,14.1H742.8v-11h16.7c2.3,0,4.9-.6,4.9-4.1v-8.8c-2.2,3.7-7.7,6.9-14.2,6.9-12.4,0-22-9.4-22-23.7s9.5-23.8,21.9-23.8c6.9,0,12.2,3.2,14.5,7.1,0-.5-.2-1.4-.2-3.8v-2.1ZM753.1,958.3c6.9,0,11.6-5.1,11.6-12.5s-4.7-12.6-11.6-12.6-11.5,5.1-11.5,12.6S746.3,958.3,753.1,958.3Z"/><path d="M863.71,969h-15l-6-19.1H821.6L816,969H801.4L824,899h16.6ZM832.2,914H832l-7.1,24h14.3Z"/><path d="M883,969H870.1V899H883Z"/><path d="M940.6,923.2v49.2c0,7.2-3.6,14.1-14.7,14.1H906v-11h16.7c2.3,0,4.9-.6,4.9-4.1v-8.8c-2.2,3.7-7.7,6.9-14.2,6.9-12.4,0-22-9.4-22-23.7s9.5-23.8,21.9-23.8c6.9,0,12.2,3.2,14.5,7.1,0-.5-.2-1.4-.2-3.8v-2.1Zm-24.3,35.1c6.9,0,11.6-5.1,11.6-12.5s-4.7-12.6-11.6-12.6-11.5,5.1-11.5,12.6S909.5,958.3,916.3,958.3Z"/><path d="M948.9,946.1c0-14,10.9-24.1,24.5-24.1s24.5,10.1,24.5,24.1-10.9,24.1-24.5,24.1S948.9,960.1,948.9,946.1Zm13,0c0,7.1,4.7,12.5,11.5,12.5s11.4-5.4,11.4-12.5-4.7-12.5-11.4-12.5S961.9,938.9,961.9,946.1Z"/><path d="M1034.3,936h-5.5c-6.6,0-9.6,3.1-9.6,11.1V969h-13V923.2h12.6v7.3c1.8-4.9,6.2-7.9,11.9-7.9a14.72,14.72,0,0,1,3.6.4Z"/><path d="M1057.3,969h-13V934.2h-6.4v-11h19.4Zm-7.1-70a8.39,8.39,0,0,1,8.4,8.4,8.35,8.35,0,0,1-16.7,0A8.37,8.37,0,0,1,1050.2,899Z"/><path d="M1084.9,905.8v17.4h9.9v11h-9.9v20.7c0,2.9,2.3,3.3,4.3,3.3,3.3,0,6-.3,6-.3V969s-6.3.6-10.1.6c-6.5,0-13.2-1.1-13.2-10.3V934.2h-7.2v-11h7.2V905.8Z"/><path d="M1130.3,922c9.9,0,17,6.3,17,17v30h-13V942.3c0-5.8-3.7-8.2-7.8-8.2-3.8,0-7.2,2.1-9.7,5.2V969h-13V899h12.8v26c0,1.6-.2,3.6-.2,3.6A18,18,0,0,1,1130.3,922Z"/><path d="M1218.2,942.1c0-5.6-3.6-8-7.6-8-3.7,0-7,2.1-9.5,5.2V969h-13V942.1c0-5.5-3.5-8-7.6-8-3.7,0-7,2.1-9.5,5.2V969h-13V923.2h12.7V925c0,1.6-.2,3.6-.2,3.6a17.74,17.74,0,0,1,13.7-6.6c6.8,0,12.1,2.9,14.7,8.3,3.8-5.3,9-8.3,15.4-8.3,9.9,0,16.9,6.3,16.9,17v30h-13Z"/><polygon class="cls-1" points="293.28 546.9 45.59 546.9 45.59 273.96 92.93 227 293.28 227 293.28 546.9"/><polyline class="cls-2" points="93.11 227 93.11 274.53 45.59 274.53"/><line class="cls-2" x1="131.27" y1="305.34" x2="269.31" y2="305.34"/><line class="cls-2" x1="71.84" y1="333.88" x2="269.31" y2="333.88"/><line class="cls-2" x1="71.84" y1="362.41" x2="269.31" y2="362.41"/><line class="cls-2" x1="71.84" y1="389.81" x2="269.31" y2="389.81"/><line class="cls-2" x1="71.84" y1="417.2" x2="269.31" y2="417.2"/><line class="cls-2" x1="71.84" y1="444.6" x2="269.31" y2="444.6"/><line class="cls-2" x1="71.84" y1="471.99" x2="269.31" y2="471.99"/><line class="cls-2" x1="71.84" y1="499.39" x2="269.31" y2="499.39"/><polygon class="cls-1" points="293.28 1427.9 45.59 1427.9 45.59 1154.96 92.93 1108 293.28 1108 293.28 1427.9"/><polyline class="cls-2" points="93.11 1108 93.11 1155.53 45.59 1155.53"/><line class="cls-2" x1="131.27" y1="1186.34" x2="269.31" y2="1186.34"/><line class="cls-2" x1="71.84" y1="1214.88" x2="269.31" y2="1214.88"/><line class="cls-2" x1="71.84" y1="1243.41" x2="269.31" y2="1243.41"/><line class="cls-2" x1="71.84" y1="1270.81" x2="269.31" y2="1270.81"/><line class="cls-2" x1="71.84" y1="1298.2" x2="269.31" y2="1298.2"/><line class="cls-2" x1="71.84" y1="1325.6" x2="269.31" y2="1325.6"/><line class="cls-2" x1="71.84" y1="1352.99" x2="269.31" y2="1352.99"/><line class="cls-2" x1="71.84" y1="1380.39" x2="269.31" y2="1380.39"/><polygon class="cls-1" points="1612.28 546.9 1364.59 546.9 1364.59 273.96 1411.93 227 1612.28 227 1612.28 546.9"/><polyline class="cls-2" points="1412.11 227 1412.11 274.53 1364.59 274.53"/><line class="cls-2" x1="1450.27" y1="305.34" x2="1588.31" y2="305.34"/><line class="cls-2" x1="1390.84" y1="333.88" x2="1588.31" y2="333.88"/><line class="cls-2" x1="1390.84" y1="362.41" x2="1588.31" y2="362.41"/><line class="cls-2" x1="1390.84" y1="389.81" x2="1588.31" y2="389.81"/><line class="cls-2" x1="1390.84" y1="417.2" x2="1588.31" y2="417.2"/><line class="cls-2" x1="1390.84" y1="444.6" x2="1588.31" y2="444.6"/><line class="cls-2" x1="1390.84" y1="471.99" x2="1588.31" y2="471.99"/><line class="cls-2" x1="1390.84" y1="499.39" x2="1588.31" y2="499.39"/><polygon class="cls-1" points="1612.28 1430.9 1364.59 1430.9 1364.59 1157.96 1411.93 1111 1612.28 1111 1612.28 1430.9"/><polyline class="cls-2" points="1412.11 1111 1412.11 1158.53 1364.59 1158.53"/><path class="cls-3" d="M417.57,313a55.5,55.5,0,1,0,48.67,82.18h15.9l10.74-12.86L509,395.18l14.73-13.32,14.74,13.32,16.58-11.94,13.82,11.94H570l26.92-26.91L570,341.35H466A55.49,55.49,0,0,0,417.57,313Zm-39.84,55.5a18.66,18.66,0,1,1,18.65,18.65A18.65,18.65,0,0,1,377.73,368.5Z"/><line class="cls-4" x1="469.39" y1="368.27" x2="592" y2="368.27"/><path class="cls-3" d="M1140.57,313a55.5,55.5,0,1,0,48.67,82.18h15.9l10.74-12.86L1232,395.18l14.73-13.32,14.74,13.32,16.58-11.94,13.82,11.94H1293l26.92-26.91L1293,341.35H1189A55.49,55.49,0,0,0,1140.57,313Zm-39.84,55.5a18.66,18.66,0,1,1,18.65,18.65A18.65,18.65,0,0,1,1100.73,368.5Z"/><line class="cls-4" x1="1192.39" y1="368.27" x2="1315" y2="368.27"/><polyline class="cls-4" points="532.62 1234.62 570.13 1272.13 532.62 1309.63"/><line class="cls-4" x1="568.59" y1="1272.13" x2="359" y2="1272.13"/><polyline class="cls-4" points="1279.62 1234.62 1317.13 1272.13 1279.62 1309.63"/><line class="cls-4" x1="1315.59" y1="1272.13" x2="1106" y2="1272.13"/><rect class="cls-5" x="660" y="232" width="368" height="312"/><path class="cls-6" d="M717.17,283.24c0,14.44-5.63,21.06-14.16,21.06s-14.21-6.62-14.21-21.06c0-14.21,5.63-20.94,14.21-20.94S717.17,269,717.17,283.24ZM703,296.87c4,0,5.92-4.58,5.92-13.63S707,269.67,703,269.67s-5.91,4.64-5.91,13.57S699,296.87,703,296.87Z"/><path class="cls-6" d="M723.43,263H739v33.64h7.83v7H723v-7h7.83V270h-7.36Z"/><path class="cls-6" d="M779.69,283.24c0,14.44-5.63,21.06-14.15,21.06s-14.21-6.62-14.21-21.06c0-14.21,5.62-20.94,14.21-20.94S779.69,269,779.69,283.24Zm-14.15,13.63c4,0,5.91-4.58,5.91-13.63s-1.91-13.57-5.91-13.57-5.92,4.64-5.92,13.57S761.48,296.87,765.54,296.87Z"/><path class="cls-6" d="M811,283.24c0,14.44-5.63,21.06-14.15,21.06s-14.21-6.62-14.21-21.06c0-14.21,5.62-20.94,14.21-20.94S811,269,811,283.24ZM796.8,296.87c4,0,5.91-4.58,5.91-13.63s-1.91-13.57-5.91-13.57-5.92,4.64-5.92,13.57S792.74,296.87,796.8,296.87Z"/><path class="cls-6" d="M817.21,263h15.55v33.64h7.83v7H816.75v-7h7.83V270h-7.37Z"/><path class="cls-6" d="M873.47,283.24c0,14.44-5.62,21.06-14.15,21.06s-14.21-6.62-14.21-21.06c0-14.21,5.63-20.94,14.21-20.94S873.47,269,873.47,283.24Zm-14.15,13.63c4,0,5.92-4.58,5.92-13.63s-1.92-13.57-5.92-13.57-5.92,4.64-5.92,13.57S855.26,296.87,859.32,296.87Z"/><path class="cls-6" d="M904.73,283.24c0,14.44-5.62,21.06-14.15,21.06s-14.21-6.62-14.21-21.06c0-14.21,5.63-20.94,14.21-20.94S904.73,269,904.73,283.24Zm-14.15,13.63c4,0,5.92-4.58,5.92-13.63s-1.92-13.57-5.92-13.57-5.91,4.64-5.91,13.57S886.52,296.87,890.58,296.87Z"/><path class="cls-6" d="M936,283.24c0,14.44-5.62,21.06-14.15,21.06s-14.21-6.62-14.21-21.06c0-14.21,5.63-20.94,14.21-20.94S936,269,936,283.24Zm-14.15,13.63c4,0,5.92-4.58,5.92-13.63s-1.92-13.57-5.92-13.57-5.91,4.64-5.91,13.57S917.78,296.87,921.84,296.87Z"/><path class="cls-6" d="M942.26,263H957.8v33.64h7.83v7H941.79v-7h7.83V270h-7.36Z"/><path class="cls-6" d="M998.52,283.24c0,14.44-5.63,21.06-14.16,21.06s-14.21-6.62-14.21-21.06c0-14.21,5.63-20.94,14.21-20.94S998.52,269,998.52,283.24Zm-14.16,13.63c4,0,5.92-4.58,5.92-13.63s-1.91-13.57-5.92-13.57-5.91,4.64-5.91,13.57S980.3,296.87,984.36,296.87Z"/><path class="cls-6" d="M717.17,352.84c0,14.44-5.63,21.06-14.16,21.06s-14.21-6.62-14.21-21.06c0-14.21,5.63-20.94,14.21-20.94S717.17,338.63,717.17,352.84ZM703,366.47c4,0,5.92-4.58,5.92-13.63S707,339.27,703,339.27s-5.91,4.64-5.91,13.57S699,366.47,703,366.47Z"/><path class="cls-6" d="M748.43,352.84c0,14.44-5.63,21.06-14.16,21.06s-14.21-6.62-14.21-21.06c0-14.21,5.63-20.94,14.21-20.94S748.43,338.63,748.43,352.84Zm-14.16,13.63c4,0,5.92-4.58,5.92-13.63s-1.91-13.57-5.92-13.57-5.91,4.64-5.91,13.57S730.21,366.47,734.27,366.47Z"/><path class="cls-6" d="M779.69,352.84c0,14.44-5.63,21.06-14.15,21.06s-14.21-6.62-14.21-21.06c0-14.21,5.62-20.94,14.21-20.94S779.69,338.63,779.69,352.84Zm-14.15,13.63c4,0,5.91-4.58,5.91-13.63s-1.91-13.57-5.91-13.57-5.92,4.64-5.92,13.57S761.48,366.47,765.54,366.47Z"/><path class="cls-6" d="M786,332.6h15.54v33.64h7.83v7H785.49v-7h7.83V339.56H786Z"/><path class="cls-6" d="M842.21,352.84c0,14.44-5.63,21.06-14.15,21.06s-14.21-6.62-14.21-21.06c0-14.21,5.62-20.94,14.21-20.94S842.21,338.63,842.21,352.84Zm-14.15,13.63c4,0,5.91-4.58,5.91-13.63s-1.91-13.57-5.91-13.57-5.92,4.64-5.92,13.57S824,366.47,828.06,366.47Z"/><path class="cls-6" d="M848.47,332.6H864v33.64h7.83v7H848v-7h7.83V339.56h-7.37Z"/><path class="cls-6" d="M904.73,352.84c0,14.44-5.62,21.06-14.15,21.06s-14.21-6.62-14.21-21.06c0-14.21,5.63-20.94,14.21-20.94S904.73,338.63,904.73,352.84Zm-14.15,13.63c4,0,5.92-4.58,5.92-13.63s-1.92-13.57-5.92-13.57-5.91,4.64-5.91,13.57S886.52,366.47,890.58,366.47Z"/><path class="cls-6" d="M911,332.6h15.54v33.64h7.83v7H910.53v-7h7.83V339.56H911Z"/><path class="cls-6" d="M967.25,352.84c0,14.44-5.62,21.06-14.15,21.06s-14.21-6.62-14.21-21.06c0-14.21,5.63-20.94,14.21-20.94S967.25,338.63,967.25,352.84ZM953.1,366.47c4,0,5.92-4.58,5.92-13.63s-1.91-13.57-5.92-13.57-5.91,4.64-5.91,13.57S949,366.47,953.1,366.47Z"/><path class="cls-6" d="M973.52,332.6h15.54v33.64h7.83v7H973.05v-7h7.83V339.56h-7.36Z"/><path class="cls-6" d="M692.17,402.2h15.54v33.64h7.83v7H691.7v-7h7.83V409.16h-7.36Z"/><path class="cls-6" d="M748.43,422.44c0,14.44-5.63,21.06-14.16,21.06s-14.21-6.62-14.21-21.06c0-14.21,5.63-20.94,14.21-20.94S748.43,408.23,748.43,422.44Zm-14.16,13.63c4,0,5.92-4.58,5.92-13.63s-1.91-13.57-5.92-13.57-5.91,4.64-5.91,13.57S730.21,436.07,734.27,436.07Z"/><path class="cls-6" d="M754.69,402.2h15.54v33.64h7.83v7H754.23v-7h7.83V409.16h-7.37Z"/><path class="cls-6" d="M811,422.44c0,14.44-5.63,21.06-14.15,21.06s-14.21-6.62-14.21-21.06c0-14.21,5.62-20.94,14.21-20.94S811,408.23,811,422.44ZM796.8,436.07c4,0,5.91-4.58,5.91-13.63s-1.91-13.57-5.91-13.57-5.92,4.64-5.92,13.57S792.74,436.07,796.8,436.07Z"/><path class="cls-6" d="M817.21,402.2h15.55v33.64h7.83v7H816.75v-7h7.83V409.16h-7.37Z"/><path class="cls-6" d="M873.47,422.44c0,14.44-5.62,21.06-14.15,21.06s-14.21-6.62-14.21-21.06c0-14.21,5.63-20.94,14.21-20.94S873.47,408.23,873.47,422.44Zm-14.15,13.63c4,0,5.92-4.58,5.92-13.63s-1.92-13.57-5.92-13.57-5.92,4.64-5.92,13.57S855.26,436.07,859.32,436.07Z"/><path class="cls-6" d="M879.74,402.2h15.54v33.64h7.83v7H879.27v-7h7.83V409.16h-7.36Z"/><path class="cls-6" d="M911,402.2h15.54v33.64h7.83v7H910.53v-7h7.83V409.16H911Z"/><path class="cls-6" d="M967.25,422.44c0,14.44-5.62,21.06-14.15,21.06s-14.21-6.62-14.21-21.06c0-14.21,5.63-20.94,14.21-20.94S967.25,408.23,967.25,422.44ZM953.1,436.07c4,0,5.92-4.58,5.92-13.63s-1.91-13.57-5.92-13.57-5.91,4.64-5.91,13.57S949,436.07,953.1,436.07Z"/><path class="cls-6" d="M998.52,422.44c0,14.44-5.63,21.06-14.16,21.06s-14.21-6.62-14.21-21.06c0-14.21,5.63-20.94,14.21-20.94S998.52,408.23,998.52,422.44Zm-14.16,13.63c4,0,5.92-4.58,5.92-13.63s-1.91-13.57-5.92-13.57-5.91,4.64-5.91,13.57S980.3,436.07,984.36,436.07Z"/><path class="cls-6" d="M692.17,471.8h15.54v33.64h7.83v7H691.7v-7h7.83V478.76h-7.36Z"/><path class="cls-6" d="M748.43,492c0,14.44-5.63,21.06-14.16,21.06s-14.21-6.62-14.21-21.06c0-14.21,5.63-20.94,14.21-20.94S748.43,477.83,748.43,492Zm-14.16,13.63c4,0,5.92-4.58,5.92-13.63s-1.91-13.57-5.92-13.57-5.91,4.64-5.91,13.57S730.21,505.67,734.27,505.67Z"/><path class="cls-6" d="M754.69,471.8h15.54v33.64h7.83v7H754.23v-7h7.83V478.76h-7.37Z"/><path class="cls-6" d="M811,492c0,14.44-5.63,21.06-14.15,21.06s-14.21-6.62-14.21-21.06c0-14.21,5.62-20.94,14.21-20.94S811,477.83,811,492ZM796.8,505.67c4,0,5.91-4.58,5.91-13.63s-1.91-13.57-5.91-13.57-5.92,4.64-5.92,13.57S792.74,505.67,796.8,505.67Z"/><path class="cls-6" d="M817.21,471.8h15.55v33.64h7.83v7H816.75v-7h7.83V478.76h-7.37Z"/><path class="cls-6" d="M873.47,492c0,14.44-5.62,21.06-14.15,21.06s-14.21-6.62-14.21-21.06c0-14.21,5.63-20.94,14.21-20.94S873.47,477.83,873.47,492Zm-14.15,13.63c4,0,5.92-4.58,5.92-13.63s-1.92-13.57-5.92-13.57-5.92,4.64-5.92,13.57S855.26,505.67,859.32,505.67Z"/><path class="cls-6" d="M904.73,492c0,14.44-5.62,21.06-14.15,21.06s-14.21-6.62-14.21-21.06c0-14.21,5.63-20.94,14.21-20.94S904.73,477.83,904.73,492Zm-14.15,13.63c4,0,5.92-4.58,5.92-13.63s-1.92-13.57-5.92-13.57-5.91,4.64-5.91,13.57S886.52,505.67,890.58,505.67Z"/><path class="cls-6" d="M911,471.8h15.54v33.64h7.83v7H910.53v-7h7.83V478.76H911Z"/><path class="cls-6" d="M967.25,492c0,14.44-5.62,21.06-14.15,21.06s-14.21-6.62-14.21-21.06c0-14.21,5.63-20.94,14.21-20.94S967.25,477.83,967.25,492ZM953.1,505.67c4,0,5.92-4.58,5.92-13.63s-1.91-13.57-5.92-13.57-5.91,4.64-5.91,13.57S949,505.67,953.1,505.67Z"/><path class="cls-6" d="M973.52,471.8h15.54v33.64h7.83v7H973.05v-7h7.83V478.76h-7.36Z"/><rect class="cls-5" x="660" y="1116" width="368" height="312"/><path d="M691.65,1550v-17.23H675.53V1550h-8.07v-40.6h8.07v16.47h16.12v-16.47h8.06V1550Z"/><path d="M721.4,1532.27c0-1.92-1.5-3.14-4.4-3.14a18.07,18.07,0,0,0-8,2.5l-3-5.69a22.71,22.71,0,0,1,11.36-3.24c6,0,11.54,2.78,11.54,9.8V1550H721.4v-2.5c-1.39,2.09-4.4,3.19-7.42,3.19-5.63,0-9.28-4-9.28-8.35,0-5,3.71-8.18,9.63-8.18h5.22c1.27,0,1.85-.58,1.85-1.56Zm0,8.17v-1.91a3.28,3.28,0,0,1-2.32.58h-2.84c-2.38,0-3.77,1-3.77,2.9s1.45,3.13,3.77,3.13C719,1545.14,721.4,1543.75,721.4,1540.44Z"/><path d="M750.81,1531.51a9.65,9.65,0,0,0-6.55-2.72c-2,0-2.67,1-2.67,1.79s.58,1.57,2,2L748,1534c5.45,1.79,7.31,4.75,7.31,8.23,0,3.89-3.31,8.41-10.56,8.41a17.18,17.18,0,0,1-11.72-4.17l4-5.22a13.16,13.16,0,0,0,7.83,3.3c1.79,0,2.9-.93,2.9-2,0-1.33-.87-1.91-3-2.55l-4.52-1.34c-4.3-1.39-6.15-4.29-6.15-7.77,0-4.35,3.94-8.23,10.32-8.23a15.82,15.82,0,0,1,10.73,3.94Z"/><path d="M775.46,1522.7c5.74,0,9.86,3.65,9.86,9.86V1550h-7.54v-15.49c0-3.36-2.15-4.76-4.52-4.76a7.36,7.36,0,0,0-5.63,3V1550h-7.54v-40.6h7.42v15.08c0,.92-.11,2.08-.11,2.08A10.42,10.42,0,0,1,775.46,1522.7Z"/><path d="M812.17,1533.83V1550h-8.06v-40.6h29.41v7H812.17v10.55h15.66v7Z"/><path d="M834.27,1540.21v-16.82h7.54v15.43c0,3.65,2.44,5.1,5.11,5.1s5.1-1.45,5.1-5.1v-15.43h7.48v16.82c0,5.57-4.41,10.44-12.58,10.44S834.27,1545.78,834.27,1540.21Z"/><path d="M881,1522.7c5.74,0,9.86,3.65,9.86,9.86V1550h-7.54v-15.49c0-3.36-2.15-4.76-4.52-4.76a7.36,7.36,0,0,0-5.63,3V1550h-7.54v-26.57H873v1c0,.92-.12,2.08-.12,2.08A10.46,10.46,0,0,1,881,1522.7Z"/><path d="M902.88,1536.67c0,4.18,2.73,7.25,6.67,7.25a6.07,6.07,0,0,0,5.86-4.06l7.08,2.21c-1.74,5.28-7,8.58-13,8.58a14,14,0,1,1,0-28c6,0,11.25,3.36,13,8.64l-7.08,2.14a6.16,6.16,0,0,0-5.86-4.06C905.61,1529.42,902.88,1532.5,902.88,1536.67Z"/><path d="M936.47,1513.3v10.09h5.74v6.38h-5.74v12c0,1.68,1.33,1.91,2.49,1.91,1.91,0,3.48-.17,3.48-.17V1550s-3.65.34-5.86.34c-3.77,0-7.65-.63-7.65-6v-14.56h-4.18v-6.38h4.18V1513.3Z"/><path d="M956.53,1550H949v-20.19h-3.71v-6.38h11.25Zm-4.11-40.6a4.86,4.86,0,0,1,4.87,4.87,4.85,4.85,0,0,1-9.69,0A4.85,4.85,0,0,1,952.42,1509.36Z"/><path d="M961.35,1536.67c0-8.12,6.32-14,14.21-14s14.21,5.85,14.21,14a14.21,14.21,0,0,1-28.42,0Zm7.54,0c0,4.12,2.72,7.25,6.67,7.25s6.61-3.13,6.61-7.25-2.73-7.25-6.61-7.25S968.89,1532.5,968.89,1536.67Z"/><path d="M1010,1522.7c5.74,0,9.86,3.65,9.86,9.86V1550h-7.54v-15.49c0-3.36-2.15-4.76-4.52-4.76a7.36,7.36,0,0,0-5.63,3V1550h-7.54v-26.57H1002v1c0,.92-.12,2.08-.12,2.08A10.46,10.46,0,0,1,1010,1522.7Z"/><path d="M1364.74,1550v-17.23h-16.13V1550h-8.06v-40.6h8.06v16.47h16.13v-16.47h8.06V1550Z"/><path d="M1394.49,1532.27c0-1.92-1.51-3.14-4.41-3.14a18,18,0,0,0-8,2.5l-3-5.69a22.77,22.77,0,0,1,11.37-3.24c6,0,11.54,2.78,11.54,9.8V1550h-7.54v-2.5c-1.39,2.09-4.41,3.19-7.42,3.19-5.63,0-9.28-4-9.28-8.35,0-5,3.71-8.18,9.62-8.18h5.22c1.28,0,1.86-.58,1.86-1.56Zm0,8.17v-1.91a3.3,3.3,0,0,1-2.32.58h-2.84c-2.38,0-3.77,1-3.77,2.9s1.45,3.13,3.77,3.13C1392.05,1545.14,1394.49,1543.75,1394.49,1540.44Z"/><path d="M1423.9,1531.51a9.67,9.67,0,0,0-6.56-2.72c-2,0-2.67,1-2.67,1.79s.58,1.57,2,2l4.4,1.4c5.46,1.79,7.31,4.75,7.31,8.23,0,3.89-3.3,8.41-10.55,8.41a17.16,17.16,0,0,1-11.72-4.17l4-5.22a13.21,13.21,0,0,0,7.83,3.3c1.8,0,2.9-.93,2.9-2,0-1.33-.87-1.91-3-2.55l-4.53-1.34c-4.29-1.39-6.15-4.29-6.15-7.77,0-4.35,3.95-8.23,10.33-8.23a15.82,15.82,0,0,1,10.73,3.94Z"/><path d="M1448.55,1522.7c5.74,0,9.86,3.65,9.86,9.86V1550h-7.54v-15.49c0-3.36-2.15-4.76-4.53-4.76a7.35,7.35,0,0,0-5.62,3V1550h-7.54v-40.6h7.42v15.08c0,.92-.12,2.08-.12,2.08A10.44,10.44,0,0,1,1448.55,1522.7Z"/><path d="M1490.65,1538.88h-19.77a6.31,6.31,0,0,0,11.42,2.61l7.83.81c-2.38,5.68-7.36,8.35-13.28,8.35a13.55,13.55,0,0,1-13.92-14c0-8.12,5.86-14,13.8-14,7.31,0,13.92,4.75,13.92,15.89Zm-20-5.05h11.89a5.76,5.76,0,0,0-5.86-4.87A5.92,5.92,0,0,0,1470.7,1533.83Z"/><path d="M1514.66,1546.59c-1.33,2.21-4.46,4.06-8.29,4.06-7.31,0-12.88-5.86-12.88-14s5.51-14,12.82-14c4.06,0,7.14,1.85,8.47,4.11,0-.87-.12-3.07-.12-5v-12.41h7.54V1550h-7.54Zm-13.39-9.92c0,4.06,2.78,7.31,6.78,7.31s6.79-3.25,6.79-7.31-2.79-7.25-6.79-7.25S1501.27,1532.56,1501.27,1536.67Z"/><path d="M1568.43,1509.36v7.19h-12.12V1550h-8v-33.41h-12.12v-7.19Z"/><path d="M1592.5,1538.88h-19.78a6.31,6.31,0,0,0,11.43,2.61l7.83.81c-2.38,5.68-7.37,8.35-13.28,8.35a13.55,13.55,0,0,1-13.92-14c0-8.12,5.86-14,13.8-14,7.31,0,13.92,4.75,13.92,15.89Zm-20-5.05h11.89a5.76,5.76,0,0,0-5.86-4.87A5.92,5.92,0,0,0,1572.55,1533.83Z"/><path d="M1602.25,1536.73l-8.42-13.34h8.71l4.69,7.95,4.87-7.95h8.47l-8.41,13.17,8.53,13.4h-8.76l-4.81-8-4.64,8h-8.7Z"/><path d="M1634,1513.3v10.09h5.74v6.38H1634v12c0,1.68,1.33,1.91,2.49,1.91,1.92,0,3.48-.17,3.48-.17V1550s-3.65.34-5.85.34c-3.77,0-7.66-.63-7.66-6v-14.56h-4.18v-6.38h4.18V1513.3Z"/><path d="M72.5,1550h-8v-40.6H78.24c9.57,0,14.62,6,14.62,13.34s-5,13.51-14.62,13.51H72.5Zm0-33.64v13H77c4.41,0,7.6-2.09,7.6-6.61s-3.19-6.38-7.6-6.38Z"/><path d="M104.74,1550H97.26v-40.6h7.48Z"/><path d="M126,1532.27c0-1.92-1.51-3.14-4.41-3.14a18.07,18.07,0,0,0-8,2.5l-3-5.69A22.77,22.77,0,0,1,122,1522.7c6,0,11.54,2.78,11.54,9.8V1550H126v-2.5c-1.39,2.09-4.41,3.19-7.42,3.19-5.63,0-9.28-4-9.28-8.35,0-5,3.71-8.18,9.63-8.18h5.22c1.27,0,1.85-.58,1.85-1.56Zm0,8.17v-1.91a3.28,3.28,0,0,1-2.32.58h-2.84c-2.38,0-3.77,1-3.77,2.9s1.45,3.13,3.77,3.13C123.54,1545.14,126,1543.75,126,1540.44Z"/><path d="M148.82,1550h-7.54v-20.19h-3.71v-6.38h11.25Zm-4.11-40.6a4.86,4.86,0,0,1,4.87,4.87,4.85,4.85,0,0,1-9.69,0A4.85,4.85,0,0,1,144.71,1509.36Z"/><path d="M170.69,1522.7c5.74,0,9.86,3.65,9.86,9.86V1550H173v-15.49c0-3.36-2.15-4.76-4.52-4.76a7.36,7.36,0,0,0-5.63,3V1550h-7.54v-26.57h7.37v1c0,.92-.12,2.08-.12,2.08A10.46,10.46,0,0,1,170.69,1522.7Z"/><path d="M226.49,1509.36v7.19H214.36V1550h-8v-33.41H194.24v-7.19Z"/><path d="M250.56,1538.88H230.78a6.31,6.31,0,0,0,11.42,2.61l7.83.81c-2.37,5.68-7.36,8.35-13.28,8.35a13.55,13.55,0,0,1-13.92-14c0-8.12,5.86-14,13.81-14,7.3,0,13.92,4.75,13.92,15.89Zm-20-5.05h11.89a5.75,5.75,0,0,0-5.85-4.87A5.93,5.93,0,0,0,230.6,1533.83Z"/><path d="M260.3,1536.73l-8.41-13.34h8.7l4.7,7.95,4.87-7.95h8.47l-8.41,13.17,8.52,13.4H270l-4.82-8-4.64,8h-8.7Z"/><path d="M292,1513.3v10.09h5.74v6.38H292v12c0,1.68,1.33,1.91,2.49,1.91,1.91,0,3.48-.17,3.48-.17V1550s-3.65.34-5.86.34c-3.77,0-7.65-.63-7.65-6v-14.56h-4.18v-6.38h4.18V1513.3Z"/><path d="M684.81,624.32H662.65v9.51h12.93v6.9H662.65v10.32h22.16V658H654.59v-40.6h30.22Z"/><path d="M704.88,630.7c5.74,0,9.86,3.65,9.86,9.86V658H707.2V642.47c0-3.36-2.15-4.76-4.53-4.76a7.35,7.35,0,0,0-5.62,3V658h-7.54V631.39h7.36v1.05c0,.92-.11,2.08-.11,2.08A10.45,10.45,0,0,1,704.88,630.7Z"/><path d="M726.8,644.67c0,4.18,2.73,7.25,6.67,7.25a6.09,6.09,0,0,0,5.86-4.06l7.07,2.21c-1.74,5.28-7,8.58-13,8.58a14,14,0,1,1,0-27.95c6,0,11.25,3.36,13,8.64l-7.07,2.14a6.18,6.18,0,0,0-5.86-4.06C729.53,637.42,726.8,640.5,726.8,644.67Z"/><path d="M767.17,638.82H764c-3.83,0-5.57,1.79-5.57,6.43V658h-7.54V631.39h7.31v4.24a7,7,0,0,1,6.9-4.59,8.33,8.33,0,0,1,2.09.24Z"/><path d="M779.81,658H777.9l-9.11-26.57h8.41l5.63,18.91,5.68-18.91h8.18l-10.62,30.74c-1.33,3.89-3.42,6-8.29,6h-5.22v-6.33h3.71a2.77,2.77,0,0,0,3-2.08Z"/><path d="M808.06,668.11h-7.54V631.39h7.54v1.28c0,1.27-.12,1.85-.12,2.14,1.28-2.26,4.41-4.11,8.41-4.11,7.31,0,12.88,5.85,12.88,14s-5.63,14-12.94,14c-3.77,0-6.9-1.8-8.23-4.06Zm-.18-23.44c0,4.06,2.79,7.31,6.79,7.31s6.78-3.25,6.78-7.31-2.78-7.25-6.78-7.25S807.88,640.56,807.88,644.67Z"/><path d="M843.61,621.3v10.09h5.74v6.38h-5.74v12c0,1.68,1.33,1.91,2.49,1.91,1.92,0,3.48-.17,3.48-.17V658s-3.65.34-5.85.34c-3.77,0-7.66-.63-7.66-6V637.77h-4.18v-6.38h4.18V621.3Z"/><path d="M880.61,646.88H860.84a6.31,6.31,0,0,0,11.42,2.61l7.83.81c-2.38,5.68-7.36,8.35-13.28,8.35a13.55,13.55,0,0,1-13.92-14c0-8.12,5.86-14,13.8-14,7.31,0,13.92,4.75,13.92,15.89Zm-20-5h11.89a5.76,5.76,0,0,0-5.86-4.87A5.92,5.92,0,0,0,860.66,641.83Z"/><path d="M904.62,654.59c-1.33,2.21-4.46,4.06-8.29,4.06-7.31,0-12.87-5.86-12.87-14s5.5-14,12.81-14c4.06,0,7.14,1.85,8.47,4.11,0-.87-.12-3.07-.12-5V617.36h7.54V658h-7.54Zm-13.39-9.92c0,4.06,2.78,7.31,6.78,7.31s6.79-3.25,6.79-7.31-2.79-7.25-6.79-7.25S891.23,640.56,891.23,644.67Z"/><path d="M958.39,617.36v7.19H946.27V658h-8V624.55H926.14v-7.19Z"/><path d="M982.46,646.88H962.68a6.31,6.31,0,0,0,11.43,2.61l7.83.81c-2.38,5.68-7.37,8.35-13.28,8.35a13.55,13.55,0,0,1-13.92-14c0-8.12,5.86-14,13.8-14,7.31,0,13.92,4.75,13.92,15.89Zm-20-5H974.4a5.76,5.76,0,0,0-5.86-4.87A5.92,5.92,0,0,0,962.51,641.83Z"/><path d="M992.21,644.73l-8.41-13.34h8.7l4.69,8,4.87-8h8.47l-8.41,13.17,8.53,13.4h-8.76l-4.81-8-4.64,8h-8.7Z"/><path d="M1023.93,621.3v10.09h5.74v6.38h-5.74v12c0,1.68,1.33,1.91,2.49,1.91,1.92,0,3.48-.17,3.48-.17V658s-3.65.34-5.85.34c-3.77,0-7.66-.63-7.66-6V637.77h-4.18v-6.38h4.18V621.3Z"/><path d="M1381.5,658h-8v-40.6h13.75c9.57,0,14.61,6,14.61,13.34s-5,13.51-14.61,13.51h-5.74Zm0-33.64v13H1386c4.41,0,7.6-2.09,7.6-6.61s-3.19-6.38-7.6-6.38Z"/><path d="M1413.74,658h-7.48v-40.6h7.48Z"/><path d="M1435,640.27c0-1.92-1.51-3.14-4.41-3.14a18.07,18.07,0,0,0-8,2.5l-3-5.69A22.77,22.77,0,0,1,1431,630.7c6,0,11.54,2.78,11.54,9.8V658H1435v-2.5c-1.39,2.09-4.41,3.19-7.42,3.19-5.63,0-9.28-4-9.28-8.35,0-5,3.71-8.18,9.63-8.18h5.22c1.27,0,1.85-.58,1.85-1.56Zm0,8.17v-1.91a3.28,3.28,0,0,1-2.32.58h-2.84c-2.38,0-3.77,1-3.77,2.9s1.45,3.13,3.77,3.13C1432.54,653.14,1435,651.75,1435,648.44Z"/><path d="M1457.82,658h-7.54V637.77h-3.71v-6.38h11.25Zm-4.11-40.6a4.86,4.86,0,0,1,4.87,4.87,4.85,4.85,0,0,1-9.69,0A4.85,4.85,0,0,1,1453.71,617.36Z"/><path d="M1479.69,630.7c5.74,0,9.86,3.65,9.86,9.86V658H1482V642.47c0-3.36-2.15-4.76-4.52-4.76a7.36,7.36,0,0,0-5.63,3V658h-7.54V631.39h7.37v1.05c0,.92-.12,2.08-.12,2.08A10.46,10.46,0,0,1,1479.69,630.7Z"/><path d="M1535.49,617.36v7.19h-12.13V658h-8V624.55h-12.12v-7.19Z"/><path d="M1559.56,646.88h-19.78a6.31,6.31,0,0,0,11.42,2.61l7.83.81c-2.37,5.68-7.36,8.35-13.28,8.35a13.55,13.55,0,0,1-13.92-14c0-8.12,5.86-14,13.81-14,7.3,0,13.92,4.75,13.92,15.89Zm-20-5h11.89a5.75,5.75,0,0,0-5.85-4.87A5.93,5.93,0,0,0,1539.6,641.83Z"/><path d="M1569.3,644.73l-8.41-13.34h8.7l4.7,8,4.87-8h8.47l-8.41,13.17,8.52,13.4H1579l-4.82-8-4.64,8h-8.7Z"/><path d="M1601,621.3v10.09h5.74v6.38H1601v12c0,1.68,1.33,1.91,2.49,1.91,1.91,0,3.48-.17,3.48-.17V658s-3.65.34-5.86.34c-3.77,0-7.65-.63-7.65-6V637.77h-4.18v-6.38h4.18V621.3Z"/><path d="M72.5,658h-8v-40.6H78.24c9.57,0,14.62,6,14.62,13.34s-5,13.51-14.62,13.51H72.5Zm0-33.64v13H77c4.41,0,7.6-2.09,7.6-6.61s-3.19-6.38-7.6-6.38Z"/><path d="M104.74,658H97.26v-40.6h7.48Z"/><path d="M126,640.27c0-1.92-1.51-3.14-4.41-3.14a18.07,18.07,0,0,0-8,2.5l-3-5.69A22.77,22.77,0,0,1,122,630.7c6,0,11.54,2.78,11.54,9.8V658H126v-2.5c-1.39,2.09-4.41,3.19-7.42,3.19-5.63,0-9.28-4-9.28-8.35,0-5,3.71-8.18,9.63-8.18h5.22c1.27,0,1.85-.58,1.85-1.56Zm0,8.17v-1.91a3.28,3.28,0,0,1-2.32.58h-2.84c-2.38,0-3.77,1-3.77,2.9s1.45,3.13,3.77,3.13C123.54,653.14,126,651.75,126,648.44Z"/><path d="M148.82,658h-7.54V637.77h-3.71v-6.38h11.25Zm-4.11-40.6a4.86,4.86,0,0,1,4.87,4.87,4.85,4.85,0,0,1-9.69,0A4.85,4.85,0,0,1,144.71,617.36Z"/><path d="M170.69,630.7c5.74,0,9.86,3.65,9.86,9.86V658H173V642.47c0-3.36-2.15-4.76-4.52-4.76a7.36,7.36,0,0,0-5.63,3V658h-7.54V631.39h7.37v1.05c0,.92-.12,2.08-.12,2.08A10.46,10.46,0,0,1,170.69,630.7Z"/><path d="M226.49,617.36v7.19H214.36V658h-8V624.55H194.24v-7.19Z"/><path d="M250.56,646.88H230.78a6.31,6.31,0,0,0,11.42,2.61l7.83.81c-2.37,5.68-7.36,8.35-13.28,8.35a13.55,13.55,0,0,1-13.92-14c0-8.12,5.86-14,13.81-14,7.3,0,13.92,4.75,13.92,15.89Zm-20-5h11.89a5.75,5.75,0,0,0-5.85-4.87A5.93,5.93,0,0,0,230.6,641.83Z"/><path d="M260.3,644.73l-8.41-13.34h8.7l4.7,8,4.87-8h8.47l-8.41,13.17,8.52,13.4H270l-4.82-8-4.64,8h-8.7Z"/><path d="M292,621.3v10.09h5.74v6.38H292v12c0,1.68,1.33,1.91,2.49,1.91,1.91,0,3.48-.17,3.48-.17V658s-3.65.34-5.86.34c-3.77,0-7.65-.63-7.65-6V637.77h-4.18v-6.38h4.18V621.3Z"/><rect class="cls-7" x="660" y="1114" width="368" height="54"/><path class="cls-8" d="M939,1276v-23H880v-57H857v57H819v-57H796v57H742v23h54v38H742v23h54v56h23v-56h38v56h23v-56h59v-23H880v-38Zm-82,38H819v-38h38Z"/><circle class="cls-9" cx="692.5" cy="1139.5" r="12.5"/><circle class="cls-3" cx="735.5" cy="1139.5" r="12.5"/><circle class="cls-8" cx="776.5" cy="1139.5" r="12.5"/><path d="M1399.79,1210.79c2.88,0,4-2.24,4-5.21s-1.16-5.24-4-5.24a4.85,4.85,0,0,0-3.44,1.29l-5-.56v-16h17.68v5.16h-12.43v6.23h.22a8.15,8.15,0,0,1,4.3-1.12c5.71,0,9,4.09,9,9.85,0,6.11-3.48,10.49-10,10.49s-10-3.83-10-9.11v-1.34h6.11v1.29C1396.05,1208.72,1397,1210.79,1399.79,1210.79Z"/><path d="M1420.77,1197.59a6.19,6.19,0,0,1,4-1.25c4.6,0,9.08,3,9.08,9.42,0,6-4.17,10-10.24,10-6.4,0-10.62-4.38-10.62-10.66,0-8.69,6.49-15.65,10-19l1-.9h7.91l-.6.51c-2.2,1.89-7.57,6.88-10.71,11.87Zm2.67,13.28c2.88,0,4.34-2.23,4.34-4.86s-1.46-4.94-4.34-4.94-4.43,2.28-4.43,4.94S1420.47,1210.87,1423.44,1210.87Z"/><path d="M1456.33,1193.07a7.15,7.15,0,0,1-4.3,6.54,7.83,7.83,0,0,1,5,7.22c0,5.5-4.26,8.9-10.41,8.9s-10.4-3.4-10.4-8.9a7.78,7.78,0,0,1,4.94-7.22,7.14,7.14,0,0,1-4.34-6.54c0-4.9,3.83-8.47,9.8-8.47S1456.33,1188.17,1456.33,1193.07Zm-5.37,13.46a4.41,4.41,0,1,0-4.39,4.26A4.15,4.15,0,0,0,1451,1206.53Zm-.52-13c0-2.15-1.16-4-3.87-4a3.62,3.62,0,0,0-3.91,4c0,2.15,1.16,4,3.91,4S1450.44,1195.65,1450.44,1193.5Z"/><path d="M1469.71,1210.79c2.88,0,4-2.24,4-5.21s-1.16-5.24-4-5.24a4.87,4.87,0,0,0-3.44,1.29l-5-.56v-16h17.67v5.16H1466.4v6.23h.21a8.17,8.17,0,0,1,4.3-1.12c5.72,0,9,4.09,9,9.85,0,6.11-3.48,10.49-10,10.49s-10-3.83-10-9.11v-1.34H1466v1.29C1466,1208.72,1466.91,1210.79,1469.71,1210.79Z"/><path d="M1486.39,1215.22l10.71-24.94h-13.55v-5.16h19.35v5.16l-9.89,24.94Z"/><path d="M1511.63,1205.37c0,3.09,2,5.37,4.95,5.37a4.51,4.51,0,0,0,4.34-3l5.25,1.64c-1.29,3.91-5.16,6.36-9.64,6.36a10.36,10.36,0,1,1,0-20.72c4.48,0,8.35,2.49,9.64,6.4l-5.25,1.59a4.58,4.58,0,0,0-4.34-3C1513.65,1200,1511.63,1202.27,1511.63,1205.37Z"/><path d="M1530.94,1189.93c0-3.87,2.58-5.2,5.59-5.2,1.5,0,4.08.26,4.08.26v5.11s-1.72-.21-2.32-.21c-1.07,0-1.76.26-1.76,1.63v4h3.78v4.73h-3.78v15h-5.59v-15h-3.1v-4.73h3.1Z"/><path d="M1547.75,1205.37c0,3.09,2,5.37,5,5.37a4.51,4.51,0,0,0,4.34-3l5.24,1.64c-1.29,3.91-5.16,6.36-9.63,6.36a10.36,10.36,0,1,1,0-20.72c4.47,0,8.34,2.49,9.63,6.4L1557,1203a4.58,4.58,0,0,0-4.34-3C1549.77,1200,1547.75,1202.27,1547.75,1205.37Z"/><path d="M1568.13,1215.22l10.71-24.94h-13.55v-5.16h19.35v5.16l-9.89,24.94Z"/><path d="M1410.46,1255.12c0,10.71-4.18,15.61-10.5,15.61s-10.53-4.9-10.53-15.61c0-10.53,4.17-15.52,10.53-15.52S1410.46,1244.59,1410.46,1255.12Zm-10.5,10.11c3,0,4.39-3.4,4.39-10.11s-1.42-10.06-4.39-10.06-4.38,3.44-4.38,10.06S1397,1265.23,1400,1265.23Z"/><path d="M1425.72,1257.75a6.18,6.18,0,0,1-4,1.24c-4.6,0-9.07-3-9.07-9.41,0-6,4.17-10,10.23-10,6.41,0,10.62,4.39,10.62,10.66,0,8.69-6.49,15.66-10,19l-.94.91h-7.91l.6-.52c2.19-1.89,7.57-6.88,10.7-11.87Zm-2.67-13.29c-2.88,0-4.34,2.23-4.34,4.86s1.46,4.94,4.34,4.94,4.43-2.28,4.43-4.94S1426,1244.46,1423.05,1244.46Z"/><path d="M1451.86,1267.72a7.2,7.2,0,0,1-6.15,3c-5.41,0-9.54-4.34-9.54-10.36s4.08-10.36,9.5-10.36a7.16,7.16,0,0,1,6.28,3c0-.65-.09-2.28-.09-3.74v-9.2h5.59v30.1h-5.59Zm-9.93-7.35a5,5,0,1,0,10.06,0,5,5,0,1,0-10.06,0Z"/><path d="M1461.32,1261.62v-1.34h6.11v1.29c0,2.15.94,4.22,3.78,4.22s4-2,4-4.78a4.48,4.48,0,0,0-4.86-4.81,16.73,16.73,0,0,0-3.14.3v-5.33l6.88-5.89h-11.31v-5.16h18.06v5.71l-7.78,6.24a8.61,8.61,0,0,1,8.38,8.86c0,5.76-4,9.8-10.06,9.8C1464.93,1270.73,1461.32,1266.9,1461.32,1261.62Z"/><path d="M1497.36,1257.75a6.21,6.21,0,0,1-4,1.24c-4.6,0-9.08-3-9.08-9.41,0-6,4.18-10,10.24-10,6.41,0,10.62,4.39,10.62,10.66,0,8.69-6.49,15.66-10,19l-.95.91h-7.91l.6-.52c2.2-1.89,7.57-6.88,10.71-11.87Zm-2.67-13.29c-2.88,0-4.34,2.23-4.34,4.86s1.46,4.94,4.34,4.94,4.43-2.28,4.43-4.94S1497.66,1244.46,1494.69,1244.46Z"/><path d="M1520.66,1257.75a6.18,6.18,0,0,1-4,1.24c-4.6,0-9.07-3-9.07-9.41,0-6,4.17-10,10.23-10,6.41,0,10.62,4.39,10.62,10.66,0,8.69-6.49,15.66-10,19l-1,.91h-7.91l.6-.52c2.19-1.89,7.57-6.88,10.71-11.87Zm-2.66-13.29c-2.89,0-4.35,2.23-4.35,4.86s1.46,4.94,4.35,4.94,4.42-2.28,4.42-4.94S1521,1244.46,1518,1244.46Z"/><path d="M1539,1252.59a6.17,6.17,0,0,1,4-1.25c4.6,0,9.07,3,9.07,9.42,0,6-4.17,10-10.23,10-6.41,0-10.62-4.38-10.62-10.66,0-8.69,6.49-15.65,10-19l.94-.9h7.92l-.61.51c-2.19,1.89-7.56,6.88-10.7,11.87Zm2.67,13.28c2.88,0,4.34-2.23,4.34-4.86s-1.46-4.94-4.34-4.94-4.43,2.28-4.43,4.94S1538.72,1265.87,1541.69,1265.87Z"/><path d="M1557,1244.93c0-3.87,2.58-5.2,5.59-5.2,1.51,0,4.09.26,4.09.26v5.11s-1.72-.21-2.32-.21c-1.08,0-1.77.26-1.77,1.63v4h3.79v4.73h-3.79v15H1557v-15h-3.09v-4.73H1557Z"/><path d="M1589.29,1255.12c0,10.71-4.17,15.61-10.49,15.61s-10.54-4.9-10.54-15.61c0-10.53,4.17-15.52,10.54-15.52S1589.29,1244.59,1589.29,1255.12Zm-10.49,10.11c3,0,4.38-3.4,4.38-10.11s-1.42-10.06-4.38-10.06-4.39,3.44-4.39,10.06S1575.79,1265.23,1578.8,1265.23Z"/><path d="M1399.79,1320.79c2.88,0,4-2.24,4-5.21s-1.16-5.24-4-5.24a4.85,4.85,0,0,0-3.44,1.29l-5-.56v-16h17.68v5.16h-12.43v6.23h.22a8.15,8.15,0,0,1,4.3-1.12c5.71,0,9,4.09,9,9.85,0,6.11-3.48,10.49-10,10.49s-10-3.83-10-9.11v-1.34h6.11v1.29C1396.05,1318.72,1397,1320.79,1399.79,1320.79Z"/><path d="M1416.47,1325.22l10.71-24.94h-13.54v-5.16H1433v5.16l-9.89,24.94Z"/><path d="M1436.68,1320.06s5.08-4.48,8.91-8.09,4.6-5.76,4.6-8.21a3.76,3.76,0,0,0-4-3.87c-2.28,0-4,1.37-4,3.57a7.82,7.82,0,0,0,.77,3.14l-5.5,1a9.59,9.59,0,0,1-1.12-4.65c0-4.21,3.53-8.34,9.93-8.34,6.58,0,10.06,4.3,10.06,8.86,0,3.57-1.16,7-8.51,13.46l-3.57,3.14h12.47v5.16h-20Z"/><path d="M1469.71,1320.79c2.88,0,4-2.24,4-5.21s-1.16-5.24-4-5.24a4.87,4.87,0,0,0-3.44,1.29l-5-.56v-16h17.67v5.16H1466.4v6.23h.21a8.17,8.17,0,0,1,4.3-1.12c5.72,0,9,4.09,9,9.85,0,6.11-3.48,10.49-10,10.49s-10-3.83-10-9.11v-1.34H1466v1.29C1466,1318.72,1466.91,1320.79,1469.71,1320.79Z"/><path d="M1483.29,1320.06s5.08-4.48,8.91-8.09,4.6-5.76,4.6-8.21a3.76,3.76,0,0,0-4-3.87c-2.28,0-4,1.37-4,3.57a7.82,7.82,0,0,0,.77,3.14l-5.5,1a9.59,9.59,0,0,1-1.12-4.65c0-4.21,3.53-8.34,9.93-8.34,6.58,0,10.07,4.3,10.07,8.86,0,3.57-1.17,7-8.52,13.46l-3.57,3.14h12.47v5.16h-20Z"/><path d="M1511.63,1315.37c0,3.09,2,5.37,4.95,5.37a4.51,4.51,0,0,0,4.34-3l5.25,1.64c-1.29,3.91-5.16,6.36-9.64,6.36a10.36,10.36,0,1,1,0-20.72c4.48,0,8.35,2.49,9.64,6.4l-5.25,1.59a4.58,4.58,0,0,0-4.34-3C1513.65,1310,1511.63,1312.27,1511.63,1315.37Z"/><path d="M1530.77,1295.12h11.52v24.94h5.8v5.16h-17.67v-5.16h5.81v-19.78h-5.46Z"/><path d="M1559.62,1307.59a6.17,6.17,0,0,1,4-1.25c4.6,0,9.07,3,9.07,9.42,0,6-4.17,10-10.23,10-6.41,0-10.62-4.38-10.62-10.66,0-8.69,6.49-15.65,10-19l1-.9h7.91l-.6.51c-2.19,1.89-7.57,6.88-10.71,11.87Zm2.66,13.28c2.89,0,4.35-2.23,4.35-4.86s-1.46-4.94-4.35-4.94-4.42,2.28-4.42,4.94S1559.32,1320.87,1562.28,1320.87Z"/><path d="M1595.52,1317h-14.66a4.68,4.68,0,0,0,8.47,1.94l5.81.6c-1.77,4.21-5.47,6.19-9.85,6.19a10.36,10.36,0,0,1-.09-20.72c5.42,0,10.32,3.52,10.32,11.78Zm-14.79-3.74h8.82a4.28,4.28,0,0,0-4.35-3.61A4.39,4.39,0,0,0,1580.73,1313.26Z"/><path d="M1395.1,1370.37c0,3.09,2,5.37,5,5.37a4.51,4.51,0,0,0,4.34-3l5.25,1.64c-1.29,3.91-5.16,6.36-9.63,6.36a10.36,10.36,0,1,1,0-20.72c4.47,0,8.34,2.49,9.63,6.4l-5.25,1.59a4.58,4.58,0,0,0-4.34-3C1397.13,1365,1395.1,1367.27,1395.1,1370.37Z"/><path d="M1411.4,1367.53l10.15-17.41h7.65v17.45H1433v5h-3.79v7.7h-5.8v-7.7h-12Zm5.16,0h6.84v-11.43h-.22Z"/><path d="M1443.09,1362.59a6.17,6.17,0,0,1,4-1.25c4.6,0,9.07,3,9.07,9.42,0,6-4.17,10-10.23,10-6.41,0-10.62-4.38-10.62-10.66,0-8.69,6.49-15.65,10-19l.94-.9h7.92l-.61.51c-2.19,1.89-7.56,6.88-10.7,11.87Zm2.67,13.28c2.88,0,4.34-2.23,4.34-4.86s-1.46-4.94-4.34-4.94-4.43,2.28-4.43,4.94S1442.79,1375.87,1445.76,1375.87Z"/><path d="M1468.72,1375.79c2.88,0,4-2.24,4-5.21s-1.16-5.24-4-5.24a4.87,4.87,0,0,0-3.44,1.29l-5-.56v-16h17.67v5.16h-12.42v6.23h.21a8.17,8.17,0,0,1,4.3-1.12c5.72,0,9,4.09,9,9.85,0,6.11-3.48,10.49-10,10.49s-10-3.83-10-9.11v-1.34H1465v1.29C1465,1373.72,1465.92,1375.79,1468.72,1375.79Z"/><path d="M1489.7,1362.59a6.19,6.19,0,0,1,4-1.25c4.6,0,9.07,3,9.07,9.42,0,6-4.17,10-10.23,10-6.41,0-10.62-4.38-10.62-10.66,0-8.69,6.49-15.65,10-19l.94-.9h7.92l-.61.51c-2.19,1.89-7.56,6.88-10.7,11.87Zm2.67,13.28c2.88,0,4.34-2.23,4.34-4.86s-1.46-4.94-4.34-4.94-4.43,2.28-4.43,4.94S1489.4,1375.87,1492.37,1375.87Z"/><path d="M1507.63,1354.93c0-3.87,2.58-5.2,5.59-5.2,1.51,0,4.09.26,4.09.26v5.11s-1.72-.21-2.32-.21c-1.08,0-1.77.26-1.77,1.63v4H1517v4.73h-3.79v15h-5.59v-15h-3.09v-4.73h3.09Z"/><path d="M1529.3,1375.79c2.88,0,4-2.24,4-5.21s-1.16-5.24-4-5.24a4.87,4.87,0,0,0-3.44,1.29l-5-.56v-16h17.67v5.16H1526v6.23h.22a8.17,8.17,0,0,1,4.3-1.12c5.72,0,9,4.09,9,9.85,0,6.11-3.48,10.49-10,10.49s-10-3.83-10-9.11v-1.34h6.1v1.29C1525.56,1373.72,1526.51,1375.79,1529.3,1375.79Z"/><path d="M1542.89,1375.06s5.08-4.48,8.9-8.09,4.6-5.76,4.6-8.21a3.76,3.76,0,0,0-4-3.87c-2.27,0-4,1.37-4,3.57a7.82,7.82,0,0,0,.77,3.14l-5.5,1a9.48,9.48,0,0,1-1.12-4.65c0-4.21,3.52-8.34,9.93-8.34,6.58,0,10.06,4.3,10.06,8.86,0,3.57-1.16,7-8.51,13.46l-3.57,3.14h12.47v5.16h-20Z"/><path d="M1578.54,1367.75a6.21,6.21,0,0,1-4,1.24c-4.6,0-9.07-3-9.07-9.41,0-6,4.17-10,10.23-10,6.41,0,10.62,4.39,10.62,10.66,0,8.69-6.49,15.66-10,19l-.94.91h-7.92l.61-.52c2.19-1.89,7.56-6.88,10.7-11.87Zm-2.67-13.29c-2.88,0-4.34,2.23-4.34,4.86s1.46,4.94,4.34,4.94,4.43-2.28,4.43-4.94S1578.84,1354.46,1575.87,1354.46Z"/></svg>