<?xml version="1.0" encoding="utf-8" standalone="no"?>
<!DOCTYPE svg PUBLIC "-//W3C//DTD SVG 1.1//EN"
  "http://www.w3.org/Graphics/SVG/1.1/DTD/svg11.dtd">
<!-- Created with matplotlib (https://matplotlib.org/) -->
<svg height="504pt" version="1.1" viewBox="0 0 864 504" width="864pt" xmlns="http://www.w3.org/2000/svg" xmlns:xlink="http://www.w3.org/1999/xlink">
 <defs>
  <style type="text/css">
*{stroke-linecap:butt;stroke-linejoin:round;}
  </style>
 </defs>
 <g id="figure_1">
  <g id="patch_1">
   <path d="M 0 504 
L 864 504 
L 864 0 
L 0 0 
z
" style="fill:#10162f;"/>
  </g>
  <g id="axes_1">
   <g id="patch_2">
    <path d="M 108 375.768 
L 541.270588 375.768 
L 541.270588 60.48 
L 108 60.48 
z
" style="fill:#10162f;"/>
   </g>
   <g id="line2d_1">
    <path clip-path="url(#p3cc95c3251)" d="M 108 375.768 
L 541.270588 375.768 
" style="fill:none;stroke:#d3d3d3;stroke-dasharray:5,2.5;stroke-dashoffset:0;stroke-width:0.5;"/>
   </g>
   <g id="line2d_2">
    <path clip-path="url(#p3cc95c3251)" d="M 108 315.713143 
L 541.270588 315.713143 
" style="fill:none;stroke:#d3d3d3;stroke-dasharray:5,2.5;stroke-dashoffset:0;stroke-width:0.5;"/>
   </g>
   <g id="line2d_3">
    <path clip-path="url(#p3cc95c3251)" d="M 108 255.658286 
L 541.270588 255.658286 
" style="fill:none;stroke:#d3d3d3;stroke-dasharray:5,2.5;stroke-dashoffset:0;stroke-width:0.5;"/>
   </g>
   <g id="line2d_4">
    <path clip-path="url(#p3cc95c3251)" d="M 108 195.603429 
L 541.270588 195.603429 
" style="fill:none;stroke:#d3d3d3;stroke-dasharray:5,2.5;stroke-dashoffset:0;stroke-width:0.5;"/>
   </g>
   <g id="line2d_5">
    <path clip-path="url(#p3cc95c3251)" d="M 108 135.548571 
L 541.270588 135.548571 
" style="fill:none;stroke:#d3d3d3;stroke-dasharray:5,2.5;stroke-dashoffset:0;stroke-width:0.5;"/>
   </g>
   <g id="line2d_6">
    <path clip-path="url(#p3cc95c3251)" d="M 108 75.493714 
L 541.270588 75.493714 
" style="fill:none;stroke:#d3d3d3;stroke-dasharray:5,2.5;stroke-dashoffset:0;stroke-width:0.5;"/>
   </g>
   <g id="patch_3">
    <path clip-path="url(#p3cc95c3251)" d="M 127.694118 375.768 
L 240.231933 375.768 
L 240.231933 353.547703 
L 127.694118 353.547703 
z
" style="fill:#1557ff;"/>
   </g>
   <g id="patch_4">
    <path clip-path="url(#p3cc95c3251)" d="M 268.366387 375.768 
L 380.904202 375.768 
L 380.904202 362.555931 
L 268.366387 362.555931 
z
" style="fill:#1557ff;"/>
   </g>
   <g id="patch_5">
    <path clip-path="url(#p3cc95c3251)" d="M 409.038655 375.768 
L 521.576471 375.768 
L 521.576471 311.809577 
L 409.038655 311.809577 
z
" style="fill:#1557ff;"/>
   </g>
   <g id="patch_6">
    <path clip-path="url(#p3cc95c3251)" d="M 127.694118 353.547703 
L 240.231933 353.547703 
L 240.231933 334.330149 
L 127.694118 334.330149 
z
" style="fill:#66c4ff;"/>
   </g>
   <g id="patch_7">
    <path clip-path="url(#p3cc95c3251)" d="M 268.366387 362.555931 
L 380.904202 362.555931 
L 380.904202 314.512046 
L 268.366387 314.512046 
z
" style="fill:#66c4ff;"/>
   </g>
   <g id="patch_8">
    <path clip-path="url(#p3cc95c3251)" d="M 409.038655 311.809577 
L 521.576471 311.809577 
L 521.576471 236.741006 
L 409.038655 236.741006 
z
" style="fill:#66c4ff;"/>
   </g>
   <g id="patch_9">
    <path clip-path="url(#p3cc95c3251)" d="M 127.694118 334.330149 
L 240.231933 334.330149 
L 240.231933 200.407817 
L 127.694118 200.407817 
z
" style="fill:#ffd300;"/>
   </g>
   <g id="patch_10">
    <path clip-path="url(#p3cc95c3251)" d="M 268.366387 314.512046 
L 380.904202 314.512046 
L 380.904202 253.85664 
L 268.366387 253.85664 
z
" style="fill:#ffd300;"/>
   </g>
   <g id="patch_11">
    <path clip-path="url(#p3cc95c3251)" d="M 409.038655 236.741006 
L 521.576471 236.741006 
L 521.576471 166.777097 
L 409.038655 166.777097 
z
" style="fill:#ffd300;"/>
   </g>
   <g id="patch_12">
    <path clip-path="url(#p3cc95c3251)" d="M 127.694118 200.407817 
L 240.231933 200.407817 
L 240.231933 75.493714 
L 127.694118 75.493714 
z
" style="fill:#fffae5;"/>
   </g>
   <g id="patch_13">
    <path clip-path="url(#p3cc95c3251)" d="M 268.366387 253.85664 
L 380.904202 253.85664 
L 380.904202 75.493714 
L 268.366387 75.493714 
z
" style="fill:#fffae5;"/>
   </g>
   <g id="patch_14">
    <path clip-path="url(#p3cc95c3251)" d="M 409.038655 166.777097 
L 521.576471 166.777097 
L 521.576471 75.793989 
L 409.038655 75.793989 
z
" style="fill:#fffae5;"/>
   </g>
   <g id="matplotlib.axis_1">
    <g id="xtick_1">
     <g id="line2d_7">
      <defs>
       <path d="M 0 0 
L 0 3.5 
" id="m007224ffe2" style="stroke:#ffffff;stroke-width:0.8;"/>
      </defs>
      <g>
       <use style="fill:#ffffff;stroke:#ffffff;stroke-width:0.8;" x="183.963025" xlink:href="#m007224ffe2" y="375.768"/>
      </g>
     </g>
     <g id="text_1">
      <!-- Adience -->
      <defs>
       <path d="M 37.40625 72.5 
L 27.203125 72.5 
L 3.40625 0 
L 13.59375 0 
L 18.40625 15.5 
L 46.09375 15.5 
L 51 0 
L 61.203125 0 
z
M 32.296875 59.796875 
L 43.296875 24.40625 
L 21.203125 24.40625 
z
" id="SuisseIntlMono-65"/>
       <path d="M 44.40625 45.703125 
C 41.40625 50.90625 36.59375 54.703125 28.5 54.703125 
C 16.09375 54.703125 6.796875 44.40625 6.796875 26.703125 
C 6.796875 8.90625 16.09375 -1.296875 28.5 -1.296875 
C 36.59375 -1.296875 41.40625 2.5 44.40625 7.59375 
L 44.5 0 
L 53.59375 0 
L 53.59375 72.5 
L 44.40625 72.5 
z
M 44.796875 26.703125 
C 44.796875 12.59375 38.09375 6.296875 30.40625 6.296875 
C 21.203125 6.296875 16.5 13.90625 16.5 26.703125 
C 16.5 39.5 21.203125 47 30.40625 47 
C 38.09375 47 44.796875 40.90625 44.796875 26.703125 
z
" id="SuisseIntlMono-100"/>
       <path d="M 28.59375 72.5 
L 28.59375 61.59375 
L 37.796875 61.59375 
L 37.796875 72.5 
z
M 13.40625 53.796875 
L 13.40625 45.90625 
L 28.59375 45.90625 
L 28.59375 7.90625 
L 13.40625 7.90625 
L 13.40625 0 
L 53.09375 0 
L 53.09375 7.90625 
L 37.796875 7.90625 
L 37.796875 53.796875 
z
" id="SuisseIntlMono-105"/>
       <path d="M 32.59375 -1.296875 
C 45.203125 -1.296875 53.59375 5.90625 55.796875 16.09375 
L 46.296875 16.09375 
C 44.40625 10 40.40625 6.203125 32.40625 6.203125 
C 23.90625 6.203125 17.90625 13.296875 17.90625 24.09375 
L 56.59375 24.09375 
C 57.296875 43.296875 48.296875 54.796875 32.59375 54.796875 
C 18.40625 54.796875 8.203125 44 8.203125 26.703125 
C 8.203125 10.796875 16.296875 -1.296875 32.59375 -1.296875 
z
M 32.59375 47.203125 
C 42 47.203125 46.90625 40.5 46.796875 31.703125 
L 18 31.703125 
C 18.40625 42.09375 23.90625 47.203125 32.59375 47.203125 
z
" id="SuisseIntlMono-101"/>
       <path d="M 20.59375 53.796875 
L 11.40625 53.796875 
L 11.40625 0 
L 20.59375 0 
L 20.59375 29.203125 
C 20.59375 40.703125 25.09375 46.90625 33.40625 46.90625 
C 43.40625 46.90625 44.09375 39.703125 44.09375 31 
L 44.09375 0 
L 53.296875 0 
L 53.296875 34.203125 
C 53.296875 46.09375 49.40625 54.703125 36.40625 54.703125 
C 27.90625 54.703125 23.296875 50.796875 20.59375 46.203125 
z
" id="SuisseIntlMono-110"/>
       <path d="M 33.296875 54.703125 
C 17.90625 54.703125 8.59375 42.703125 8.59375 26.703125 
C 8.59375 10.296875 17.5 -1.296875 32.40625 -1.296875 
C 44.40625 -1.296875 54 6.59375 55.5 17.296875 
L 46 17.296875 
C 44.796875 11.5 40.203125 6.203125 32.90625 6.203125 
C 24.90625 6.203125 18.296875 13 18.296875 26.703125 
C 18.296875 40.203125 24.90625 47.09375 32.90625 47.09375 
C 39.5 47.09375 44.40625 42.5 45.59375 35.90625 
L 54.90625 35.90625 
C 54.09375 45.59375 45.796875 54.703125 33.296875 54.703125 
z
" id="SuisseIntlMono-99"/>
      </defs>
      <g style="fill:#ffffff;" transform="translate(152.312088 392.918)scale(0.14 -0.14)">
       <use xlink:href="#SuisseIntlMono-65"/>
       <use x="64.599991" xlink:href="#SuisseIntlMono-100"/>
       <use x="129.199982" xlink:href="#SuisseIntlMono-105"/>
       <use x="193.799973" xlink:href="#SuisseIntlMono-101"/>
       <use x="258.399963" xlink:href="#SuisseIntlMono-110"/>
       <use x="322.999954" xlink:href="#SuisseIntlMono-99"/>
       <use x="387.599945" xlink:href="#SuisseIntlMono-101"/>
      </g>
     </g>
    </g>
    <g id="xtick_2">
     <g id="line2d_8">
      <g>
       <use style="fill:#ffffff;stroke:#ffffff;stroke-width:0.8;" x="324.635294" xlink:href="#m007224ffe2" y="375.768"/>
      </g>
     </g>
     <g id="text_2">
      <!-- IJB-A -->
      <defs>
       <path d="M 9.203125 63.5 
L 27.5 63.5 
L 27.5 9 
L 9.203125 9 
L 9.203125 0 
L 55.296875 0 
L 55.296875 9 
L 37 9 
L 37 63.5 
L 55.296875 63.5 
L 55.296875 72.5 
L 9.203125 72.5 
z
" id="SuisseIntlMono-73"/>
       <path d="M 14.59375 72.5 
L 14.59375 63.5 
L 42.5 63.5 
L 42.5 23.09375 
C 42.5 10 37.90625 7.40625 30.90625 7.40625 
C 22.59375 7.40625 18.796875 12.296875 18.796875 22.40625 
L 9.296875 22.40625 
C 9.296875 7.59375 17.90625 -1.296875 30.90625 -1.296875 
C 45.09375 -1.296875 52 7.203125 52 23 
L 52 72.5 
z
" id="SuisseIntlMono-74"/>
       <path d="M 10 0 
L 33.59375 0 
C 46.59375 0 57.90625 6.09375 57.90625 21.5 
C 57.90625 30.40625 54.203125 35.796875 48 38.703125 
C 52.59375 41.59375 55.203125 47.703125 55.203125 54.59375 
C 55.203125 69 43.5 72.5 31.40625 72.5 
L 10 72.5 
z
M 19.5 33.203125 
L 33.703125 33.203125 
C 43.5 33.203125 48.09375 29.90625 48.09375 21.40625 
C 48.09375 13.203125 43.5 9 34.40625 9 
L 19.5 9 
z
M 19.5 63.5 
L 33.40625 63.5 
C 40.703125 63.5 45.703125 60.59375 45.703125 53.203125 
C 45.703125 44.703125 40.90625 41.703125 33.40625 41.703125 
L 19.5 41.703125 
z
" id="SuisseIntlMono-66"/>
       <path d="M 48.203125 23.09375 
L 48.203125 31.703125 
L 16.40625 31.703125 
L 16.40625 23.09375 
z
" id="SuisseIntlMono-45"/>
      </defs>
      <g style="fill:#ffffff;" transform="translate(302.027482 392.918)scale(0.14 -0.14)">
       <use xlink:href="#SuisseIntlMono-73"/>
       <use x="64.599991" xlink:href="#SuisseIntlMono-74"/>
       <use x="129.199982" xlink:href="#SuisseIntlMono-66"/>
       <use x="193.799973" xlink:href="#SuisseIntlMono-45"/>
       <use x="258.399963" xlink:href="#SuisseIntlMono-65"/>
      </g>
     </g>
    </g>
    <g id="xtick_3">
     <g id="line2d_9">
      <g>
       <use style="fill:#ffffff;stroke:#ffffff;stroke-width:0.8;" x="465.307563" xlink:href="#m007224ffe2" y="375.768"/>
      </g>
     </g>
     <g id="text_3">
      <!-- PPB -->
      <defs>
       <path d="M 12.09375 72.5 
L 12.09375 0 
L 21.59375 0 
L 21.59375 27.90625 
L 29.90625 27.90625 
C 45.796875 27.90625 58 32.203125 58 50.203125 
C 58 68.203125 45.796875 72.5 29.90625 72.5 
z
M 31.09375 63.5 
C 40.796875 63.5 48.203125 62 48.203125 50.203125 
C 48.203125 38.40625 40.796875 36.90625 31.09375 36.90625 
L 21.59375 36.90625 
L 21.59375 63.5 
z
" id="SuisseIntlMono-80"/>
      </defs>
      <g style="fill:#ffffff;" transform="translate(451.742876 392.918)scale(0.14 -0.14)">
       <use xlink:href="#SuisseIntlMono-80"/>
       <use x="64.599991" xlink:href="#SuisseIntlMono-80"/>
       <use x="129.199982" xlink:href="#SuisseIntlMono-66"/>
      </g>
     </g>
    </g>
   </g>
   <g id="matplotlib.axis_2">
    <g id="ytick_1">
     <g id="line2d_10">
      <defs>
       <path d="M 0 0 
L -3.5 0 
" id="m0519268545" style="stroke:#ffffff;stroke-width:0.8;"/>
      </defs>
      <g>
       <use style="fill:#ffffff;stroke:#ffffff;stroke-width:0.8;" x="108" xlink:href="#m0519268545" y="375.768"/>
      </g>
     </g>
     <g id="text_4">
      <!-- 0% -->
      <defs>
       <path d="M 32.203125 -1.296875 
C 50.5 -1.296875 57.59375 14.09375 57.59375 36.59375 
C 57.59375 59.09375 50.5 73.796875 32.203125 73.796875 
C 13.90625 73.796875 6.90625 59.09375 6.90625 36.59375 
C 6.90625 14.09375 13.90625 -1.296875 32.203125 -1.296875 
z
M 16.203125 36.59375 
C 16.203125 56.40625 21.296875 66 32.203125 66 
C 40.90625 66 46 59.796875 47.59375 47.203125 
L 16.296875 32.90625 
C 16.203125 34.09375 16.203125 35.296875 16.203125 36.59375 
z
M 32.203125 6.59375 
C 23.59375 6.59375 18.59375 12.90625 16.90625 25.296875 
L 48.203125 39.796875 
C 48.296875 38.703125 48.296875 37.703125 48.296875 36.59375 
C 48.296875 16.796875 43.09375 6.59375 32.203125 6.59375 
z
" id="SuisseIntlMono-48"/>
       <path d="M 17.09375 37.796875 
C 26.5 37.796875 31.09375 45.09375 31.09375 55.796875 
C 31.09375 66.703125 26.5 73.796875 17.09375 73.796875 
C 7.796875 73.796875 3.203125 66.703125 3.203125 55.796875 
C 3.203125 45.09375 7.796875 37.796875 17.09375 37.796875 
z
M 17.09375 43.90625 
C 12.59375 43.90625 10.296875 48.09375 10.296875 55.796875 
C 10.296875 63.703125 12.59375 67.703125 17.09375 67.703125 
C 21.5 67.703125 24 63.703125 24 55.796875 
C 24 48.09375 21.5 43.90625 17.09375 43.90625 
z
M 11.296875 0 
L 61.40625 72.5 
L 53.40625 72.5 
L 3.40625 0 
z
M 47.203125 -1.296875 
C 56.5 -1.296875 61.09375 6 61.09375 16.796875 
C 61.09375 27.703125 56.5 34.796875 47.203125 34.796875 
C 37.796875 34.796875 33.203125 27.703125 33.203125 16.796875 
C 33.203125 6 37.796875 -1.296875 47.203125 -1.296875 
z
M 47.203125 4.796875 
C 42.59375 4.796875 40.296875 9 40.296875 16.796875 
C 40.296875 24.59375 42.59375 28.59375 47.203125 28.59375 
C 51.59375 28.59375 54 24.59375 54 16.796875 
C 54 9 51.59375 4.796875 47.203125 4.796875 
z
" id="SuisseIntlMono-37"/>
      </defs>
      <g style="fill:#ffffff;" transform="translate(82.91375 380.843)scale(0.14 -0.14)">
       <use xlink:href="#SuisseIntlMono-48"/>
       <use x="64.599991" xlink:href="#SuisseIntlMono-37"/>
      </g>
     </g>
    </g>
    <g id="ytick_2">
     <g id="line2d_11">
      <g>
       <use style="fill:#ffffff;stroke:#ffffff;stroke-width:0.8;" x="108" xlink:href="#m0519268545" y="315.713143"/>
      </g>
     </g>
     <g id="text_5">
      <!-- 20% -->
      <defs>
       <path d="M 33.40625 73.796875 
C 18.703125 73.796875 9.09375 63.296875 9.296875 49.5 
L 18.703125 49.5 
C 18.90625 61.40625 25.796875 66 33.296875 66 
C 41.5 66 45.796875 60.59375 45.796875 53.09375 
C 45.796875 40.40625 32.296875 26.796875 8 7.90625 
L 8 0 
L 56.90625 0 
L 56.90625 7.90625 
L 20.90625 7.90625 
C 39.40625 22.703125 55.59375 37.5 55.59375 54.296875 
C 55.59375 66.59375 46.09375 73.796875 33.40625 73.796875 
z
" id="SuisseIntlMono-50"/>
      </defs>
      <g style="fill:#ffffff;" transform="translate(73.870625 320.788143)scale(0.14 -0.14)">
       <use xlink:href="#SuisseIntlMono-50"/>
       <use x="64.599991" xlink:href="#SuisseIntlMono-48"/>
       <use x="129.199982" xlink:href="#SuisseIntlMono-37"/>
      </g>
     </g>
    </g>
    <g id="ytick_3">
     <g id="line2d_12">
      <g>
       <use style="fill:#ffffff;stroke:#ffffff;stroke-width:0.8;" x="108" xlink:href="#m0519268545" y="255.658286"/>
      </g>
     </g>
     <g id="text_6">
      <!-- 40% -->
      <defs>
       <path d="M 38.5 60.09375 
L 38.5 26.5 
L 13.90625 26.5 
z
M 59.796875 26.5 
L 47.703125 26.5 
L 47.703125 72.5 
L 38.40625 72.5 
L 4.296875 26.5 
L 4.296875 17.90625 
L 38.5 17.90625 
L 38.5 0 
L 47.703125 0 
L 47.703125 17.90625 
L 59.796875 17.90625 
z
" id="SuisseIntlMono-52"/>
      </defs>
      <g style="fill:#ffffff;" transform="translate(73.870625 260.733286)scale(0.14 -0.14)">
       <use xlink:href="#SuisseIntlMono-52"/>
       <use x="64.599991" xlink:href="#SuisseIntlMono-48"/>
       <use x="129.199982" xlink:href="#SuisseIntlMono-37"/>
      </g>
     </g>
    </g>
    <g id="ytick_4">
     <g id="line2d_13">
      <g>
       <use style="fill:#ffffff;stroke:#ffffff;stroke-width:0.8;" x="108" xlink:href="#m0519268545" y="195.603429"/>
      </g>
     </g>
     <g id="text_7">
      <!-- 60% -->
      <defs>
       <path d="M 17.59375 23.203125 
C 17.59375 32.90625 23.703125 40 32.703125 40 
C 41.5 40 47.703125 32.90625 47.703125 23.203125 
C 47.703125 13.40625 41.40625 6.59375 32.59375 6.59375 
C 23.5 6.59375 17.59375 13.296875 17.59375 23.203125 
z
M 34 66 
C 40.59375 66 45.296875 62.296875 46.40625 55.90625 
L 56.296875 55.90625 
C 54.90625 64.90625 48 73.796875 34.5 73.796875 
C 14.59375 73.796875 7.09375 53.796875 7.09375 33.40625 
C 7.09375 11.40625 15.5 -1.296875 32.703125 -1.296875 
C 47.5 -1.296875 57.5 10.296875 57.5 23.59375 
C 57.5 38 47.59375 48.203125 34.796875 48.203125 
C 25.59375 48.203125 19.703125 43.90625 16.59375 38.296875 
C 17 54.796875 22.90625 66 34 66 
z
" id="SuisseIntlMono-54"/>
      </defs>
      <g style="fill:#ffffff;" transform="translate(73.870625 200.678429)scale(0.14 -0.14)">
       <use xlink:href="#SuisseIntlMono-54"/>
       <use x="64.599991" xlink:href="#SuisseIntlMono-48"/>
       <use x="129.199982" xlink:href="#SuisseIntlMono-37"/>
      </g>
     </g>
    </g>
    <g id="ytick_5">
     <g id="line2d_14">
      <g>
       <use style="fill:#ffffff;stroke:#ffffff;stroke-width:0.8;" x="108" xlink:href="#m0519268545" y="135.548571"/>
      </g>
     </g>
     <g id="text_8">
      <!-- 80% -->
      <defs>
       <path d="M 32.296875 73.796875 
C 18.203125 73.796875 8.703125 65.90625 8.703125 55.296875 
C 8.703125 49.5 11.40625 42.5 18.296875 38.703125 
C 9.203125 34.796875 6.59375 26.90625 6.59375 20.40625 
C 6.59375 6.796875 18.09375 -1.296875 32.296875 -1.296875 
C 46.5 -1.296875 58 6.796875 58 20.40625 
C 58 26.90625 55.296875 34.796875 46.296875 38.703125 
C 53.09375 42.5 55.796875 49.5 55.796875 55.296875 
C 55.796875 65.90625 46.40625 73.796875 32.296875 73.796875 
z
M 32.296875 34.59375 
C 42 34.59375 48.203125 28.796875 48.203125 20.40625 
C 48.203125 12 42 6.59375 32.296875 6.59375 
C 22.59375 6.59375 16.296875 12 16.296875 20.40625 
C 16.296875 28.796875 22.59375 34.59375 32.296875 34.59375 
z
M 46.59375 54.40625 
C 46.59375 47.203125 40.90625 41.703125 32.296875 41.703125 
C 23.703125 41.703125 18 47.203125 18 54.40625 
C 18 61.5 23.703125 65.90625 32.296875 65.90625 
C 40.90625 65.90625 46.59375 61.796875 46.59375 54.40625 
z
" id="SuisseIntlMono-56"/>
      </defs>
      <g style="fill:#ffffff;" transform="translate(73.870625 140.623571)scale(0.14 -0.14)">
       <use xlink:href="#SuisseIntlMono-56"/>
       <use x="64.599991" xlink:href="#SuisseIntlMono-48"/>
       <use x="129.199982" xlink:href="#SuisseIntlMono-37"/>
      </g>
     </g>
    </g>
    <g id="ytick_6">
     <g id="line2d_15">
      <g>
       <use style="fill:#ffffff;stroke:#ffffff;stroke-width:0.8;" x="108" xlink:href="#m0519268545" y="75.493714"/>
      </g>
     </g>
     <g id="text_9">
      <!-- 100% -->
      <defs>
       <path d="M 32.703125 72.5 
C 29 64.59375 23.09375 63.296875 11 63 
L 11 56.703125 
L 29.5 56.703125 
L 29.5 7.90625 
L 11 7.90625 
L 11 0 
L 53.90625 0 
L 53.90625 7.90625 
L 38.703125 7.90625 
L 38.703125 72.5 
z
" id="SuisseIntlMono-49"/>
      </defs>
      <g style="fill:#ffffff;" transform="translate(64.8275 80.568714)scale(0.14 -0.14)">
       <use xlink:href="#SuisseIntlMono-49"/>
       <use x="64.599991" xlink:href="#SuisseIntlMono-48"/>
       <use x="129.199982" xlink:href="#SuisseIntlMono-48"/>
       <use x="193.799973" xlink:href="#SuisseIntlMono-37"/>
      </g>
     </g>
    </g>
   </g>
   <g id="patch_15">
    <path d="M 108 375.768 
L 108 60.48 
" style="fill:none;stroke:#ffffff;stroke-linecap:square;stroke-linejoin:miter;stroke-width:2.5;"/>
   </g>
   <g id="patch_16">
    <path d="M 541.270588 375.768 
L 541.270588 60.48 
" style="fill:none;stroke:#ffffff;stroke-linecap:square;stroke-linejoin:miter;stroke-width:2.5;"/>
   </g>
   <g id="patch_17">
    <path d="M 108 375.768 
L 541.270588 375.768 
" style="fill:none;stroke:#ffffff;stroke-linecap:square;stroke-linejoin:miter;stroke-width:2.5;"/>
   </g>
   <g id="patch_18">
    <path d="M 108 60.48 
L 541.270588 60.48 
" style="fill:none;stroke:#ffffff;stroke-linecap:square;stroke-linejoin:miter;stroke-width:2.5;"/>
   </g>
   <g id="text_10">
    <!-- Facial Recognition Benchmarking Datasets -->
    <defs>
     <path d="M 8.703125 70 
L 50.203125 70 
L 50.203125 61.90625 
L 17.40625 61.90625 
L 17.40625 40.40625 
L 44.203125 40.40625 
L 44.203125 32.296875 
L 17.40625 32.296875 
L 17.40625 0 
L 8.703125 0 
z
" id="ApercuPro-Regular-70"/>
     <path d="M 20.40625 -0.796875 
Q 13.59375 -0.796875 9.1875 3.046875 
Q 4.796875 6.90625 4.796875 14.5 
Q 4.796875 22.5 10.75 26.75 
Q 16.703125 31 27.09375 31 
L 35.90625 31 
L 35.90625 33.203125 
Q 35.90625 38.703125 32.953125 41.25 
Q 30 43.796875 25.203125 43.796875 
Q 16.90625 43.796875 14.203125 35.59375 
L 6.796875 37.296875 
Q 7.796875 43.59375 12.9375 47.390625 
Q 18.09375 51.203125 25.203125 51.203125 
Q 33.703125 51.203125 38.890625 46.25 
Q 44.09375 41.296875 44.09375 32.296875 
L 44.09375 0 
L 37.59375 0 
L 36.09375 7.296875 
Q 30.90625 -0.796875 20.40625 -0.796875 
z
M 21.90625 6.59375 
Q 25.296875 6.59375 28.5 8.25 
Q 31.703125 9.90625 33.796875 13.453125 
Q 35.90625 17 35.90625 22.296875 
L 35.90625 23.90625 
L 27.40625 23.90625 
Q 20.40625 23.90625 16.90625 21.5 
Q 13.40625 19.09375 13.40625 14.59375 
Q 13.40625 10.796875 15.65625 8.6875 
Q 17.90625 6.59375 21.90625 6.59375 
z
" id="ApercuPro-Regular-97"/>
     <path d="M 27.703125 -0.796875 
Q 20.296875 -0.796875 15.09375 2.796875 
Q 9.90625 6.40625 7.25 12.296875 
Q 4.59375 18.203125 4.59375 25.203125 
Q 4.59375 32.203125 7.25 38.09375 
Q 9.90625 44 15.09375 47.59375 
Q 20.296875 51.203125 27.703125 51.203125 
Q 43.5 51.203125 48.796875 37.09375 
L 41.40625 34.203125 
Q 37.5 43.796875 27.703125 43.796875 
Q 20.59375 43.796875 16.890625 38.59375 
Q 13.203125 33.40625 13.203125 25.203125 
Q 13.203125 17.09375 16.890625 11.84375 
Q 20.59375 6.59375 27.703125 6.59375 
Q 32.703125 6.59375 36 9 
Q 39.296875 11.40625 41.40625 16.203125 
L 48.796875 13.296875 
Q 46.09375 6.296875 40.75 2.75 
Q 35.40625 -0.796875 27.703125 -0.796875 
z
" id="ApercuPro-Regular-99"/>
     <path d="M 7.5 50.40625 
L 15.796875 50.40625 
L 15.796875 0 
L 7.5 0 
z
M 11.59375 58.90625 
Q 9.09375 58.90625 7.34375 60.65625 
Q 5.59375 62.40625 5.59375 64.90625 
Q 5.59375 67.5 7.34375 69.203125 
Q 9.09375 70.90625 11.59375 70.90625 
Q 14.203125 70.90625 15.953125 69.203125 
Q 17.703125 67.5 17.703125 64.90625 
Q 17.703125 62.296875 15.953125 60.59375 
Q 14.203125 58.90625 11.59375 58.90625 
z
" id="ApercuPro-Regular-105"/>
     <path d="M 7.5 70.796875 
L 15.796875 70.796875 
L 15.796875 0 
L 7.5 0 
z
" id="ApercuPro-Regular-108"/>
     <path id="ApercuPro-Regular-32"/>
     <path d="M 32.203125 70 
Q 41.90625 70 47.25 65.203125 
Q 52.59375 60.40625 52.59375 51.59375 
Q 52.59375 44.203125 48.796875 39.640625 
Q 45 35.09375 38 33.703125 
L 59 0 
L 49.296875 0 
L 28.40625 33.203125 
L 17.40625 33.203125 
L 17.40625 0 
L 8.703125 0 
L 8.703125 70 
z
M 31.90625 41.296875 
Q 37.796875 41.296875 40.796875 43.796875 
Q 43.796875 46.296875 43.796875 51.59375 
Q 43.796875 61.90625 31.90625 61.90625 
L 17.40625 61.90625 
L 17.40625 41.296875 
L 31.90625 41.296875 
z
" id="ApercuPro-Regular-82"/>
     <path d="M 50.09375 23.90625 
L 13 23.90625 
Q 13.296875 16.203125 17.1875 11.390625 
Q 21.09375 6.59375 27.796875 6.59375 
Q 33 6.59375 36.296875 8.890625 
Q 39.59375 11.203125 42.203125 16.40625 
L 49.203125 13.40625 
Q 45.59375 6 40.4375 2.59375 
Q 35.296875 -0.796875 27.59375 -0.796875 
Q 20.5 -0.796875 15.296875 2.75 
Q 10.09375 6.296875 7.34375 12.25 
Q 4.59375 18.203125 4.59375 25.203125 
Q 4.59375 32.296875 7.34375 38.25 
Q 10.09375 44.203125 15.296875 47.703125 
Q 20.5 51.203125 27.59375 51.203125 
Q 34.5 51.203125 39.59375 48 
Q 44.703125 44.796875 47.390625 39.390625 
Q 50.09375 34 50.09375 27.40625 
z
M 41.703125 31 
Q 40.796875 36.90625 37.1875 40.34375 
Q 33.59375 43.796875 27.59375 43.796875 
Q 22.40625 43.796875 18.59375 40.5 
Q 14.796875 37.203125 13.5 31 
z
" id="ApercuPro-Regular-101"/>
     <path d="M 28.90625 -0.796875 
Q 21.59375 -0.796875 16.046875 2.75 
Q 10.5 6.296875 7.546875 12.296875 
Q 4.59375 18.296875 4.59375 25.203125 
Q 4.59375 32.09375 7.546875 38.09375 
Q 10.5 44.09375 16.046875 47.640625 
Q 21.59375 51.203125 28.90625 51.203125 
Q 36.203125 51.203125 41.703125 47.640625 
Q 47.203125 44.09375 50.140625 38.09375 
Q 53.09375 32.09375 53.09375 25.203125 
Q 53.09375 18.296875 50.140625 12.296875 
Q 47.203125 6.296875 41.703125 2.75 
Q 36.203125 -0.796875 28.90625 -0.796875 
z
M 28.90625 6.59375 
Q 33.796875 6.59375 37.34375 9.1875 
Q 40.90625 11.796875 42.703125 16.046875 
Q 44.5 20.296875 44.5 25.203125 
Q 44.5 30.09375 42.703125 34.34375 
Q 40.90625 38.59375 37.34375 41.1875 
Q 33.796875 43.796875 28.90625 43.796875 
Q 24 43.796875 20.453125 41.1875 
Q 16.90625 38.59375 15.046875 34.34375 
Q 13.203125 30.09375 13.203125 25.203125 
Q 13.203125 20.296875 15.046875 16.046875 
Q 16.90625 11.796875 20.453125 9.1875 
Q 24 6.59375 28.90625 6.59375 
z
" id="ApercuPro-Regular-111"/>
     <path d="M 25.203125 -21.203125 
Q 15.40625 -21.203125 9.546875 -16.796875 
Q 3.703125 -12.40625 3.703125 -4.59375 
Q 3.703125 -1.296875 5.046875 1.390625 
Q 6.40625 4.09375 8.59375 5.796875 
Q 5 8.296875 5 13.90625 
Q 5 17.09375 6.703125 19.546875 
Q 8.40625 22 11.203125 23.40625 
Q 7.5 27.90625 7.5 34.296875 
Q 7.5 39.296875 9.84375 43.140625 
Q 12.203125 47 16.203125 49.09375 
Q 20.203125 51.203125 25.09375 51.203125 
Q 29.703125 51.203125 34 48.90625 
L 43.09375 54 
L 46.703125 47.796875 
L 39.59375 44 
Q 42.59375 39.703125 42.59375 34.296875 
Q 42.59375 29.203125 40.296875 25.34375 
Q 38 21.5 34 19.453125 
Q 30 17.40625 25.09375 17.40625 
Q 20.296875 17.40625 16.296875 19.40625 
Q 12.796875 17.703125 12.796875 14.40625 
Q 12.796875 12.09375 14.390625 11 
Q 16 9.90625 18.5 9.90625 
L 30.59375 9.90625 
Q 37.90625 9.90625 42.25 6.453125 
Q 46.59375 3 46.59375 -3.796875 
Q 46.59375 -12.59375 40.59375 -16.890625 
Q 34.59375 -21.203125 25.203125 -21.203125 
z
M 25.09375 24.296875 
Q 29.203125 24.296875 31.953125 27 
Q 34.703125 29.703125 34.703125 34.296875 
Q 34.703125 38.90625 31.953125 41.59375 
Q 29.203125 44.296875 25.09375 44.296875 
Q 21 44.296875 18.25 41.59375 
Q 15.5 38.90625 15.5 34.296875 
Q 15.5 29.703125 18.25 27 
Q 21 24.296875 25.09375 24.296875 
z
M 25.203125 -14 
Q 31.5 -14 35 -11.453125 
Q 38.5 -8.90625 38.5 -4.59375 
Q 38.5 -0.59375 36.09375 1.15625 
Q 33.703125 2.90625 29.203125 2.90625 
L 20.09375 2.90625 
Q 17.296875 2.90625 14.90625 3.203125 
Q 11.5 0.796875 11.5 -4.40625 
Q 11.5 -8.90625 15.046875 -11.453125 
Q 18.59375 -14 25.203125 -14 
z
" id="ApercuPro-Regular-103"/>
     <path d="M 15.796875 50.40625 
L 15.796875 40.703125 
Q 18.5 45.5 22.953125 48.34375 
Q 27.40625 51.203125 32.5 51.203125 
Q 39.59375 51.203125 43.796875 47 
Q 48 42.796875 48 35.09375 
L 48 0 
L 39.796875 0 
L 39.796875 33.296875 
Q 39.796875 38.5 37.4375 41.140625 
Q 35.09375 43.796875 30.5 43.796875 
Q 26.40625 43.796875 23.046875 41.09375 
Q 19.703125 38.40625 17.75 33.34375 
Q 15.796875 28.296875 15.796875 21.5 
L 15.796875 0 
L 7.5 0 
L 7.5 50.40625 
z
" id="ApercuPro-Regular-110"/>
     <path d="M 24.203125 -0.796875 
Q 17.40625 -0.796875 13.5 3.25 
Q 9.59375 7.296875 9.59375 15.40625 
L 9.59375 43 
L 1.09375 43 
L 1.09375 50.40625 
L 9.59375 50.40625 
L 9.59375 65.5 
L 17.90625 70.796875 
L 17.90625 50.40625 
L 31.40625 50.40625 
L 31.40625 43 
L 17.90625 43 
L 17.90625 14.796875 
Q 17.90625 6.59375 24.90625 6.59375 
Q 28.296875 6.59375 30.703125 8 
L 32.796875 1 
Q 29.203125 -0.796875 24.203125 -0.796875 
z
" id="ApercuPro-Regular-116"/>
     <path d="M 32.203125 70 
Q 41.40625 70 46.59375 65.25 
Q 51.796875 60.5 51.796875 51.796875 
Q 51.796875 46.796875 49.546875 43.390625 
Q 47.296875 40 43.703125 38.296875 
Q 49.09375 36.203125 52.25 31.796875 
Q 55.40625 27.40625 55.40625 20.5 
Q 55.40625 11 49.5 5.5 
Q 43.59375 0 33.40625 0 
L 8.703125 0 
L 8.703125 70 
z
M 32 41.203125 
Q 43.203125 41.203125 43.203125 51.5 
Q 43.203125 61.90625 31.90625 61.90625 
L 17.40625 61.90625 
L 17.40625 41.203125 
L 32 41.203125 
z
M 32.203125 8.09375 
Q 39.40625 8.09375 43 11.09375 
Q 46.59375 14.09375 46.59375 20.59375 
Q 46.59375 27.09375 43 30.09375 
Q 39.40625 33.09375 32.203125 33.09375 
L 17.40625 33.09375 
L 17.40625 8.09375 
L 32.203125 8.09375 
z
" id="ApercuPro-Regular-66"/>
     <path d="M 15.796875 70.796875 
L 15.796875 40.296875 
Q 18.296875 45.5 23 48.34375 
Q 27.703125 51.203125 33.09375 51.203125 
Q 40.5 51.203125 44.640625 47.046875 
Q 48.796875 42.90625 48.796875 35.09375 
L 48.796875 0 
L 40.59375 0 
L 40.59375 33.09375 
Q 40.59375 38.296875 38.1875 41.046875 
Q 35.796875 43.796875 31.09375 43.796875 
Q 27 43.796875 23.5 41.140625 
Q 20 38.5 17.890625 33.390625 
Q 15.796875 28.296875 15.796875 21.40625 
L 15.796875 0 
L 7.5 0 
L 7.5 70.796875 
z
" id="ApercuPro-Regular-104"/>
     <path d="M 15.796875 50.40625 
L 15.796875 40.703125 
Q 18.40625 45.59375 22.296875 48.390625 
Q 26.203125 51.203125 31.296875 51.203125 
Q 36.703125 51.203125 40.25 48.453125 
Q 43.796875 45.703125 45.09375 40.296875 
Q 47.703125 45.203125 52 48.203125 
Q 56.296875 51.203125 61.203125 51.203125 
Q 75.703125 51.203125 75.703125 35 
L 75.703125 0 
L 67.5 0 
L 67.5 33.703125 
Q 67.5 38.90625 65.59375 41.34375 
Q 63.703125 43.796875 59.40625 43.796875 
Q 55.59375 43.796875 52.5 41.09375 
Q 49.40625 38.40625 47.546875 33.296875 
Q 45.703125 28.203125 45.703125 21.296875 
L 45.703125 0 
L 37.5 0 
L 37.5 33.703125 
Q 37.5 38.90625 35.640625 41.34375 
Q 33.796875 43.796875 29.40625 43.796875 
Q 25.59375 43.796875 22.5 41.09375 
Q 19.40625 38.40625 17.59375 33.203125 
Q 15.796875 28 15.796875 20.90625 
L 15.796875 0 
L 7.5 0 
L 7.5 50.40625 
z
" id="ApercuPro-Regular-109"/>
     <path d="M 15.796875 50.40625 
L 15.796875 41.703125 
Q 18.203125 46.296875 22 48.75 
Q 25.796875 51.203125 30.59375 51.203125 
Q 33.90625 51.203125 37.703125 49.703125 
L 36 42 
Q 32.90625 43.703125 29.5 43.703125 
Q 23.5 43.703125 19.640625 37.390625 
Q 15.796875 31.09375 15.796875 19 
L 15.796875 0 
L 7.5 0 
L 7.5 50.40625 
z
" id="ApercuPro-Regular-114"/>
     <path d="M 7.5 70.796875 
L 15.796875 70.796875 
L 15.796875 28.90625 
L 35.296875 50.40625 
L 45.59375 50.40625 
L 24.296875 27.296875 
L 47.203125 0 
L 36.90625 0 
L 15.796875 25.59375 
L 15.796875 0 
L 7.5 0 
z
" id="ApercuPro-Regular-107"/>
     <path d="M 28.203125 70 
Q 37.09375 70 44.390625 65.890625 
Q 51.703125 61.796875 56 53.890625 
Q 60.296875 46 60.296875 35 
Q 60.296875 24 56 16.09375 
Q 51.703125 8.203125 44.390625 4.09375 
Q 37.09375 0 28.203125 0 
L 8.703125 0 
L 8.703125 70 
z
M 26.90625 8.09375 
Q 33.5 8.09375 39 10.84375 
Q 44.5 13.59375 47.890625 19.640625 
Q 51.296875 25.703125 51.296875 35 
Q 51.296875 44.296875 47.890625 50.34375 
Q 44.5 56.40625 39 59.15625 
Q 33.5 61.90625 26.90625 61.90625 
L 17.40625 61.90625 
L 17.40625 8.09375 
L 26.90625 8.09375 
z
" id="ApercuPro-Regular-68"/>
     <path d="M 23 -0.796875 
Q 15.296875 -0.796875 10.5 3.203125 
Q 5.703125 7.203125 4.203125 12.90625 
L 11.09375 16.59375 
Q 12.59375 11.796875 15.4375 9.1875 
Q 18.296875 6.59375 23 6.59375 
Q 26.703125 6.59375 28.84375 8.59375 
Q 31 10.59375 31 14.203125 
Q 31 17.40625 28.25 19.40625 
Q 25.5 21.40625 20.09375 23.40625 
Q 14.09375 25.59375 10.84375 28.890625 
Q 7.59375 32.203125 7.59375 37.703125 
Q 7.59375 43.703125 11.75 47.453125 
Q 15.90625 51.203125 22.296875 51.203125 
Q 32 51.203125 36.90625 43.296875 
L 31.5 38.5 
Q 28.09375 43.796875 22.203125 43.796875 
Q 19.40625 43.796875 17.5 42.140625 
Q 15.59375 40.5 15.59375 37.703125 
Q 15.59375 34.90625 18.046875 33.046875 
Q 20.5 31.203125 26.796875 28.90625 
Q 39.09375 24.40625 39.09375 14.5 
Q 39.09375 7.40625 34.6875 3.296875 
Q 30.296875 -0.796875 23 -0.796875 
z
" id="ApercuPro-Regular-115"/>
    </defs>
    <g style="fill:#f5fcff;" transform="translate(101.005919 40.48)scale(0.24 -0.24)">
     <use xlink:href="#ApercuPro-Regular-70"/>
     <use x="53.599991" xlink:href="#ApercuPro-Regular-97"/>
     <use x="104.099976" xlink:href="#ApercuPro-Regular-99"/>
     <use x="156.899963" xlink:href="#ApercuPro-Regular-105"/>
     <use x="180.199951" xlink:href="#ApercuPro-Regular-97"/>
     <use x="230.699936" xlink:href="#ApercuPro-Regular-108"/>
     <use x="253.999924" xlink:href="#ApercuPro-Regular-32"/>
     <use x="279.099915" xlink:href="#ApercuPro-Regular-82"/>
     <use x="341.099899" xlink:href="#ApercuPro-Regular-101"/>
     <use x="395.899887" xlink:href="#ApercuPro-Regular-99"/>
     <use x="448.699875" xlink:href="#ApercuPro-Regular-111"/>
     <use x="506.399872" xlink:href="#ApercuPro-Regular-103"/>
     <use x="555.399857" xlink:href="#ApercuPro-Regular-110"/>
     <use x="610.899841" xlink:href="#ApercuPro-Regular-105"/>
     <use x="634.199829" xlink:href="#ApercuPro-Regular-116"/>
     <use x="669.399826" xlink:href="#ApercuPro-Regular-105"/>
     <use x="692.699814" xlink:href="#ApercuPro-Regular-111"/>
     <use x="750.399811" xlink:href="#ApercuPro-Regular-110"/>
     <use x="805.899796" xlink:href="#ApercuPro-Regular-32"/>
     <use x="830.999786" xlink:href="#ApercuPro-Regular-66"/>
     <use x="891.89978" xlink:href="#ApercuPro-Regular-101"/>
     <use x="946.699768" xlink:href="#ApercuPro-Regular-110"/>
     <use x="1002.199753" xlink:href="#ApercuPro-Regular-99"/>
     <use x="1054.999741" xlink:href="#ApercuPro-Regular-104"/>
     <use x="1111.299728" xlink:href="#ApercuPro-Regular-109"/>
     <use x="1194.49971" xlink:href="#ApercuPro-Regular-97"/>
     <use x="1244.999695" xlink:href="#ApercuPro-Regular-114"/>
     <use x="1284.199692" xlink:href="#ApercuPro-Regular-107"/>
     <use x="1332.399689" xlink:href="#ApercuPro-Regular-105"/>
     <use x="1355.699677" xlink:href="#ApercuPro-Regular-110"/>
     <use x="1411.199661" xlink:href="#ApercuPro-Regular-103"/>
     <use x="1460.199646" xlink:href="#ApercuPro-Regular-32"/>
     <use x="1485.299637" xlink:href="#ApercuPro-Regular-68"/>
     <use x="1550.599625" xlink:href="#ApercuPro-Regular-97"/>
     <use x="1601.099609" xlink:href="#ApercuPro-Regular-116"/>
     <use x="1636.299606" xlink:href="#ApercuPro-Regular-97"/>
     <use x="1686.799591" xlink:href="#ApercuPro-Regular-115"/>
     <use x="1730.199585" xlink:href="#ApercuPro-Regular-101"/>
     <use x="1784.999573" xlink:href="#ApercuPro-Regular-116"/>
     <use x="1820.19957" xlink:href="#ApercuPro-Regular-115"/>
    </g>
   </g>
   <g id="legend_1">
    <g id="patch_19">
     <path d="M 552.336 134.535 
L 680.850375 134.535 
Q 683.250375 134.535 683.250375 132.135 
L 683.250375 62.88 
Q 683.250375 60.48 680.850375 60.48 
L 552.336 60.48 
Q 549.936 60.48 549.936 62.88 
L 549.936 132.135 
Q 549.936 134.535 552.336 134.535 
z
" style="opacity:0.8;stroke:#cccccc;stroke-linejoin:miter;"/>
    </g>
    <g id="patch_20">
     <path d="M 554.736 74.398125 
L 578.736 74.398125 
L 578.736 65.998125 
L 554.736 65.998125 
z
" style="fill:#fffae5;"/>
    </g>
    <g id="text_11">
     <!-- Lighter Male -->
     <defs>
      <path d="M 9.8125 72.90625 
L 19.671875 72.90625 
L 19.671875 8.296875 
L 55.171875 8.296875 
L 55.171875 0 
L 9.8125 0 
z
" id="DejaVuSans-76"/>
      <path d="M 9.421875 54.6875 
L 18.40625 54.6875 
L 18.40625 0 
L 9.421875 0 
z
M 9.421875 75.984375 
L 18.40625 75.984375 
L 18.40625 64.59375 
L 9.421875 64.59375 
z
" id="DejaVuSans-105"/>
      <path d="M 45.40625 27.984375 
Q 45.40625 37.75 41.375 43.109375 
Q 37.359375 48.484375 30.078125 48.484375 
Q 22.859375 48.484375 18.828125 43.109375 
Q 14.796875 37.75 14.796875 27.984375 
Q 14.796875 18.265625 18.828125 12.890625 
Q 22.859375 7.515625 30.078125 7.515625 
Q 37.359375 7.515625 41.375 12.890625 
Q 45.40625 18.265625 45.40625 27.984375 
z
M 54.390625 6.78125 
Q 54.390625 -7.171875 48.1875 -13.984375 
Q 42 -20.796875 29.203125 -20.796875 
Q 24.46875 -20.796875 20.265625 -20.09375 
Q 16.0625 -19.390625 12.109375 -17.921875 
L 12.109375 -9.1875 
Q 16.0625 -11.328125 19.921875 -12.34375 
Q 23.78125 -13.375 27.78125 -13.375 
Q 36.625 -13.375 41.015625 -8.765625 
Q 45.40625 -4.15625 45.40625 5.171875 
L 45.40625 9.625 
Q 42.625 4.78125 38.28125 2.390625 
Q 33.9375 0 27.875 0 
Q 17.828125 0 11.671875 7.65625 
Q 5.515625 15.328125 5.515625 27.984375 
Q 5.515625 40.671875 11.671875 48.328125 
Q 17.828125 56 27.875 56 
Q 33.9375 56 38.28125 53.609375 
Q 42.625 51.21875 45.40625 46.390625 
L 45.40625 54.6875 
L 54.390625 54.6875 
z
" id="DejaVuSans-103"/>
      <path d="M 54.890625 33.015625 
L 54.890625 0 
L 45.90625 0 
L 45.90625 32.71875 
Q 45.90625 40.484375 42.875 44.328125 
Q 39.84375 48.1875 33.796875 48.1875 
Q 26.515625 48.1875 22.3125 43.546875 
Q 18.109375 38.921875 18.109375 30.90625 
L 18.109375 0 
L 9.078125 0 
L 9.078125 75.984375 
L 18.109375 75.984375 
L 18.109375 46.1875 
Q 21.34375 51.125 25.703125 53.5625 
Q 30.078125 56 35.796875 56 
Q 45.21875 56 50.046875 50.171875 
Q 54.890625 44.34375 54.890625 33.015625 
z
" id="DejaVuSans-104"/>
      <path d="M 18.3125 70.21875 
L 18.3125 54.6875 
L 36.8125 54.6875 
L 36.8125 47.703125 
L 18.3125 47.703125 
L 18.3125 18.015625 
Q 18.3125 11.328125 20.140625 9.421875 
Q 21.96875 7.515625 27.59375 7.515625 
L 36.8125 7.515625 
L 36.8125 0 
L 27.59375 0 
Q 17.1875 0 13.234375 3.875 
Q 9.28125 7.765625 9.28125 18.015625 
L 9.28125 47.703125 
L 2.6875 47.703125 
L 2.6875 54.6875 
L 9.28125 54.6875 
L 9.28125 70.21875 
z
" id="DejaVuSans-116"/>
      <path d="M 56.203125 29.59375 
L 56.203125 25.203125 
L 14.890625 25.203125 
Q 15.484375 15.921875 20.484375 11.0625 
Q 25.484375 6.203125 34.421875 6.203125 
Q 39.59375 6.203125 44.453125 7.46875 
Q 49.3125 8.734375 54.109375 11.28125 
L 54.109375 2.78125 
Q 49.265625 0.734375 44.1875 -0.34375 
Q 39.109375 -1.421875 33.890625 -1.421875 
Q 20.796875 -1.421875 13.15625 6.1875 
Q 5.515625 13.8125 5.515625 26.8125 
Q 5.515625 40.234375 12.765625 48.109375 
Q 20.015625 56 32.328125 56 
Q 43.359375 56 49.78125 48.890625 
Q 56.203125 41.796875 56.203125 29.59375 
z
M 47.21875 32.234375 
Q 47.125 39.59375 43.09375 43.984375 
Q 39.0625 48.390625 32.421875 48.390625 
Q 24.90625 48.390625 20.390625 44.140625 
Q 15.875 39.890625 15.1875 32.171875 
z
" id="DejaVuSans-101"/>
      <path d="M 41.109375 46.296875 
Q 39.59375 47.171875 37.8125 47.578125 
Q 36.03125 48 33.890625 48 
Q 26.265625 48 22.1875 43.046875 
Q 18.109375 38.09375 18.109375 28.8125 
L 18.109375 0 
L 9.078125 0 
L 9.078125 54.6875 
L 18.109375 54.6875 
L 18.109375 46.1875 
Q 20.953125 51.171875 25.484375 53.578125 
Q 30.03125 56 36.53125 56 
Q 37.453125 56 38.578125 55.875 
Q 39.703125 55.765625 41.0625 55.515625 
z
" id="DejaVuSans-114"/>
      <path id="DejaVuSans-32"/>
      <path d="M 9.8125 72.90625 
L 24.515625 72.90625 
L 43.109375 23.296875 
L 61.8125 72.90625 
L 76.515625 72.90625 
L 76.515625 0 
L 66.890625 0 
L 66.890625 64.015625 
L 48.09375 14.015625 
L 38.1875 14.015625 
L 19.390625 64.015625 
L 19.390625 0 
L 9.8125 0 
z
" id="DejaVuSans-77"/>
      <path d="M 34.28125 27.484375 
Q 23.390625 27.484375 19.1875 25 
Q 14.984375 22.515625 14.984375 16.5 
Q 14.984375 11.71875 18.140625 8.90625 
Q 21.296875 6.109375 26.703125 6.109375 
Q 34.1875 6.109375 38.703125 11.40625 
Q 43.21875 16.703125 43.21875 25.484375 
L 43.21875 27.484375 
z
M 52.203125 31.203125 
L 52.203125 0 
L 43.21875 0 
L 43.21875 8.296875 
Q 40.140625 3.328125 35.546875 0.953125 
Q 30.953125 -1.421875 24.3125 -1.421875 
Q 15.921875 -1.421875 10.953125 3.296875 
Q 6 8.015625 6 15.921875 
Q 6 25.140625 12.171875 29.828125 
Q 18.359375 34.515625 30.609375 34.515625 
L 43.21875 34.515625 
L 43.21875 35.40625 
Q 43.21875 41.609375 39.140625 45 
Q 35.0625 48.390625 27.6875 48.390625 
Q 23 48.390625 18.546875 47.265625 
Q 14.109375 46.140625 10.015625 43.890625 
L 10.015625 52.203125 
Q 14.9375 54.109375 19.578125 55.046875 
Q 24.21875 56 28.609375 56 
Q 40.484375 56 46.34375 49.84375 
Q 52.203125 43.703125 52.203125 31.203125 
z
" id="DejaVuSans-97"/>
      <path d="M 9.421875 75.984375 
L 18.40625 75.984375 
L 18.40625 0 
L 9.421875 0 
z
" id="DejaVuSans-108"/>
     </defs>
     <g style="fill:#ffffff;" transform="translate(588.336 74.398125)scale(0.12 -0.12)">
      <use xlink:href="#DejaVuSans-76"/>
      <use x="55.712891" xlink:href="#DejaVuSans-105"/>
      <use x="83.496094" xlink:href="#DejaVuSans-103"/>
      <use x="146.972656" xlink:href="#DejaVuSans-104"/>
      <use x="210.351562" xlink:href="#DejaVuSans-116"/>
      <use x="249.560547" xlink:href="#DejaVuSans-101"/>
      <use x="311.083984" xlink:href="#DejaVuSans-114"/>
      <use x="352.197266" xlink:href="#DejaVuSans-32"/>
      <use x="383.984375" xlink:href="#DejaVuSans-77"/>
      <use x="470.263672" xlink:href="#DejaVuSans-97"/>
      <use x="531.542969" xlink:href="#DejaVuSans-108"/>
      <use x="559.326172" xlink:href="#DejaVuSans-101"/>
     </g>
    </g>
    <g id="patch_21">
     <path d="M 554.736 92.011875 
L 578.736 92.011875 
L 578.736 83.611875 
L 554.736 83.611875 
z
" style="fill:#ffd300;"/>
    </g>
    <g id="text_12">
     <!-- Lighter Female -->
     <defs>
      <path d="M 9.8125 72.90625 
L 51.703125 72.90625 
L 51.703125 64.59375 
L 19.671875 64.59375 
L 19.671875 43.109375 
L 48.578125 43.109375 
L 48.578125 34.8125 
L 19.671875 34.8125 
L 19.671875 0 
L 9.8125 0 
z
" id="DejaVuSans-70"/>
      <path d="M 52 44.1875 
Q 55.375 50.25 60.0625 53.125 
Q 64.75 56 71.09375 56 
Q 79.640625 56 84.28125 50.015625 
Q 88.921875 44.046875 88.921875 33.015625 
L 88.921875 0 
L 79.890625 0 
L 79.890625 32.71875 
Q 79.890625 40.578125 77.09375 44.375 
Q 74.3125 48.1875 68.609375 48.1875 
Q 61.625 48.1875 57.5625 43.546875 
Q 53.515625 38.921875 53.515625 30.90625 
L 53.515625 0 
L 44.484375 0 
L 44.484375 32.71875 
Q 44.484375 40.625 41.703125 44.40625 
Q 38.921875 48.1875 33.109375 48.1875 
Q 26.21875 48.1875 22.15625 43.53125 
Q 18.109375 38.875 18.109375 30.90625 
L 18.109375 0 
L 9.078125 0 
L 9.078125 54.6875 
L 18.109375 54.6875 
L 18.109375 46.1875 
Q 21.1875 51.21875 25.484375 53.609375 
Q 29.78125 56 35.6875 56 
Q 41.65625 56 45.828125 52.96875 
Q 50 49.953125 52 44.1875 
z
" id="DejaVuSans-109"/>
     </defs>
     <g style="fill:#ffffff;" transform="translate(588.336 92.011875)scale(0.12 -0.12)">
      <use xlink:href="#DejaVuSans-76"/>
      <use x="55.712891" xlink:href="#DejaVuSans-105"/>
      <use x="83.496094" xlink:href="#DejaVuSans-103"/>
      <use x="146.972656" xlink:href="#DejaVuSans-104"/>
      <use x="210.351562" xlink:href="#DejaVuSans-116"/>
      <use x="249.560547" xlink:href="#DejaVuSans-101"/>
      <use x="311.083984" xlink:href="#DejaVuSans-114"/>
      <use x="352.197266" xlink:href="#DejaVuSans-32"/>
      <use x="383.984375" xlink:href="#DejaVuSans-70"/>
      <use x="441.425781" xlink:href="#DejaVuSans-101"/>
      <use x="502.949219" xlink:href="#DejaVuSans-109"/>
      <use x="600.361328" xlink:href="#DejaVuSans-97"/>
      <use x="661.640625" xlink:href="#DejaVuSans-108"/>
      <use x="689.423828" xlink:href="#DejaVuSans-101"/>
     </g>
    </g>
    <g id="patch_22">
     <path d="M 554.736 109.625625 
L 578.736 109.625625 
L 578.736 101.225625 
L 554.736 101.225625 
z
" style="fill:#66c4ff;"/>
    </g>
    <g id="text_13">
     <!-- Darker Male -->
     <defs>
      <path d="M 19.671875 64.796875 
L 19.671875 8.109375 
L 31.59375 8.109375 
Q 46.6875 8.109375 53.6875 14.9375 
Q 60.6875 21.78125 60.6875 36.53125 
Q 60.6875 51.171875 53.6875 57.984375 
Q 46.6875 64.796875 31.59375 64.796875 
z
M 9.8125 72.90625 
L 30.078125 72.90625 
Q 51.265625 72.90625 61.171875 64.09375 
Q 71.09375 55.28125 71.09375 36.53125 
Q 71.09375 17.671875 61.125 8.828125 
Q 51.171875 0 30.078125 0 
L 9.8125 0 
z
" id="DejaVuSans-68"/>
      <path d="M 9.078125 75.984375 
L 18.109375 75.984375 
L 18.109375 31.109375 
L 44.921875 54.6875 
L 56.390625 54.6875 
L 27.390625 29.109375 
L 57.625 0 
L 45.90625 0 
L 18.109375 26.703125 
L 18.109375 0 
L 9.078125 0 
z
" id="DejaVuSans-107"/>
     </defs>
     <g style="fill:#ffffff;" transform="translate(588.336 109.625625)scale(0.12 -0.12)">
      <use xlink:href="#DejaVuSans-68"/>
      <use x="77.001953" xlink:href="#DejaVuSans-97"/>
      <use x="138.28125" xlink:href="#DejaVuSans-114"/>
      <use x="179.394531" xlink:href="#DejaVuSans-107"/>
      <use x="237.257812" xlink:href="#DejaVuSans-101"/>
      <use x="298.78125" xlink:href="#DejaVuSans-114"/>
      <use x="339.894531" xlink:href="#DejaVuSans-32"/>
      <use x="371.681641" xlink:href="#DejaVuSans-77"/>
      <use x="457.960938" xlink:href="#DejaVuSans-97"/>
      <use x="519.240234" xlink:href="#DejaVuSans-108"/>
      <use x="547.023438" xlink:href="#DejaVuSans-101"/>
     </g>
    </g>
    <g id="patch_23">
     <path d="M 554.736 127.239375 
L 578.736 127.239375 
L 578.736 118.839375 
L 554.736 118.839375 
z
" style="fill:#1557ff;"/>
    </g>
    <g id="text_14">
     <!-- Darker Female -->
     <g style="fill:#ffffff;" transform="translate(588.336 127.239375)scale(0.12 -0.12)">
      <use xlink:href="#DejaVuSans-68"/>
      <use x="77.001953" xlink:href="#DejaVuSans-97"/>
      <use x="138.28125" xlink:href="#DejaVuSans-114"/>
      <use x="179.394531" xlink:href="#DejaVuSans-107"/>
      <use x="237.257812" xlink:href="#DejaVuSans-101"/>
      <use x="298.78125" xlink:href="#DejaVuSans-114"/>
      <use x="339.894531" xlink:href="#DejaVuSans-32"/>
      <use x="371.681641" xlink:href="#DejaVuSans-70"/>
      <use x="429.123047" xlink:href="#DejaVuSans-101"/>
      <use x="490.646484" xlink:href="#DejaVuSans-109"/>
      <use x="588.058594" xlink:href="#DejaVuSans-97"/>
      <use x="649.337891" xlink:href="#DejaVuSans-108"/>
      <use x="677.121094" xlink:href="#DejaVuSans-101"/>
     </g>
    </g>
   </g>
  </g>
 </g>
 <defs>
  <clipPath id="p3cc95c3251">
   <rect height="315.288" width="433.270588" x="108" y="60.48"/>
  </clipPath>
 </defs>
</svg>
